<svg xmlns="http://www.w3.org/2000/svg" width="450" height="300"><path d="M0 0h450v300H0z"/><path fill="#cc092f" d="M0 0h450v150H0z"/><path fill="#ffcb00" fill-rule="evenodd" d="M195.43 102.899h18.32l5.557-17.27 5.705 17.27h18.32l-14.716 10.963 5.704 17.567-15.013-10.662-14.866 10.662 5.706-17.567z"/><path fill="#ffcb00" fill-rule="evenodd" d="m262.4 197.353-14.413-11.265c14.564-11.862 24.026-30.032 24.026-50.302 0-30.934-22.072-56.912-51.206-63.07l2.252-10.512c4.055.902 8.813 2.61 12.716 3.958l3.756-6.304c4.05 1.95 8.558 3.902 12.31 6.304l-2.852 6.76c3.756 2.404 8.288 6.125 10.809 9.056l5.638-4.405c3.004 3.302 6.61 6.753 9.161 10.36l-5.105 5.256c3.297 4.84 4.572 7.068 7.002 12.644l7.163-1.68c1.354 4.204 3.408 9.351 4.16 13.704l-6.782 2.666c.81 3.383 1.859 9.292 1.791 14.262-.006.3-.028.638-.028.94l7.084 1.01c-.3 4.356-.449 9.313-1.353 13.667h-7.356c-1.05 4.502-2.405 10.01-4.055 14.212l6.154 3.606c-1.951 3.903-3.9 8.56-6.454 12.314l-6.758-2.852c-2.555 3.752-5.405 7.355-8.558 10.66l4.353 5.706c-1.2 1.05-2.251 2.102-3.454 3.305M230.719 196l10.886 6.56c-1.015.928-4.055 2.502-4.861 2.821l1.78 6.834c-4.204 1.354-8.71 3.304-13.363 4.205l-2.702-6.756c-4.355.9-8.708 1.5-13.213 1.5l-.904 7.057c-4.203-.3-9.309 0-13.964-1.05v-7.056a80.166 80.166 0 0 1-12.162-3.156l-3.455 6.161c-3.603-1.505-8.408-3.308-12.314-5.708l2.554-6.757c-3.155-1.653-6.007-3.754-8.71-5.86l6.757-8.559c11.113 8.861 25.077 14.114 40.394 14.114 8.11 0 16.066-1.348 23.277-4.35"/><path fill="#ffcb00" fill-rule="evenodd" d="m276.096 213.406-71.865-54.691-.655.932 71.68 54.787-4.254 5.323-69.877-44.82c-18.92-11.863-18.169-21.171-14.264-31.233l3.304-8.108c1.803 10.512 12.612 18.472 23.874 27.33l63.457 48.747zm18.042 16.3c-.616 0-1.115-.5-1.115-1.12a1.119 1.119 0 1 1 1.115 1.12m-4.295-3.154a1.12 1.12 0 0 1-1.118-1.118 1.118 1.118 0 1 1 1.119 1.118m-4.396-3.503a1.118 1.118 0 1 1 0-2.236 1.118 1.118 0 0 1 0 2.236m14.777 6.2-21.533-16.682-6.257 8.063 18.706 13.117c1.502 1.05 1.65 5.86 7.203 6.611 2.257.299 3.754-1.355 3.754-1.355 2.42-2.945 1.76-7-1.873-9.754"/></svg>