<svg xmlns="http://www.w3.org/2000/svg" height="600" width="900"><path style="fill:#d01c1f" d="M0 0h900v600H0z"/><path style="fill:#00a95c" d="M0 120h900v360H0z"/><path d="M229.558 222.475A222 222.017 0 0 0 449.935 420a222 222.017 0 0 0 220.507-197.314 239.213 222.017 0 0 1-220.507 136.008 239.213 222.017 0 0 1-220.377-136.219Z" style="fill:gold"/><path d="M486.12 291.203 450 265.138l-36.12 26.065 13.62-42.418-35.942-26.31 44.536-.15L450 180l13.906 42.325 44.537.15-35.943 26.31Z" style="fill:gold"/></svg>