<svg xmlns="http://www.w3.org/2000/svg" width="900" height="450" viewBox="0 0 180 90"><path fill="#0038a8" d="M0 0h180v90H0z"/><path fill="#ce1126" d="M0 45h180v45H0z"/><path d="M77.942 45 0 90V0" fill="#fff"/><path style="fill:#fcd116;fill-opacity:1;stroke:none" d="m22.5 38.971 13.545 11.706 15.683-8.634-6.947 16.5L57.84 70.79 40 69.282l-7.613 16.203-4.078-17.432-17.763-2.233 15.319-9.266zM327.437 201.224l.365 17.898 16.91 5.878-16.91 5.878-.365 17.898-10.816-14.265-17.135 5.184L309.711 225l-10.225-14.695 17.135 5.184zM32.387 364.515 40 380.718l17.839-1.508-13.058 12.247 6.947 16.5-15.683-8.634L22.5 411.03l3.365-17.583-15.319-9.266 17.763-2.233z" transform="scale(.2)"/><path d="m28 26-1.169 1.169.58 8.85a9.016 9.016 0 0 0-.585.057L25.762 28l-.954.953 1.436 7.22a8.947 8.947 0 0 0-3.245 1.343l-4.088-6.119h-1.35l4.96 6.464a9.04 9.04 0 0 0-.454.374l-5.85-6.67h-1.652v1.653l6.67 5.85c-.13.147-.255.298-.374.454l-6.464-4.96v1.349l6.12 4.09a8.946 8.946 0 0 0-1.345 3.243l-7.219-1.436-.953.954 8.076 1.064a9.022 9.022 0 0 0-.057.585l-8.85-.58L9 45l1.169 1.169 8.85-.58c.013.197.032.393.057.587L11 47.238l.953.954 7.22-1.436a8.946 8.946 0 0 0 1.343 3.245l-6.119 4.088v1.35l6.464-4.96c.12.156.244.306.374.454l-6.67 5.85v1.652h1.653l5.85-6.67c.147.13.298.254.454.374l-4.96 6.464h1.349l4.09-6.12a8.936 8.936 0 0 0 3.243 1.346l-1.436 7.218.954.953 1.064-8.076c.193.025.388.044.585.057l-.58 8.85L28 64l1.168-1.168-.579-8.85c.197-.014.392-.033.585-.058L30.238 62l.954-.953-1.436-7.22a8.946 8.946 0 0 0 3.245-1.343l4.088 6.119h1.35l-4.96-6.464a9.04 9.04 0 0 0 .454-.374l5.85 6.67h1.652v-1.653l-6.67-5.85c.13-.147.255-.298.374-.454l6.464 4.96V54.09L35.483 50a8.946 8.946 0 0 0 1.345-3.243l7.219 1.436.953-.954-8.076-1.064c.025-.193.044-.388.057-.585l8.85.58L47 45l-1.169-1.168-8.85.579a9.016 9.016 0 0 0-.057-.585L45 42.762l-.953-.954-7.22 1.436a8.946 8.946 0 0 0-1.343-3.245l6.119-4.088v-1.35l-6.464 4.96a9.044 9.044 0 0 0-.374-.454l6.67-5.85v-1.652h-1.653l-5.85 6.67a9.042 9.042 0 0 0-.454-.374l4.96-6.464H37.09L33 37.517a8.946 8.946 0 0 0-3.243-1.345l1.436-7.219-.954-.953-1.064 8.076a9.022 9.022 0 0 0-.585-.057l.58-8.85L28 26z" style="fill:#fcd116;fill-opacity:1"/></svg>