<?xml version="1.0" encoding="UTF-8"?>
<svg width="900" height="450" version="1.1" viewBox="0 0 180 90" xmlns="http://www.w3.org/2000/svg" xmlns:cc="http://creativecommons.org/ns#" xmlns:dc="http://purl.org/dc/elements/1.1/" xmlns:rdf="http://www.w3.org/1999/02/22-rdf-syntax-ns#">
<rect width="180" height="90" fill="#0038a8"/>
<rect y="45" width="180" height="45" fill="#ce1126"/>
<path d="M 77.942286,45 0,90 0,0" fill="#fff"/>
<path transform="scale(.2)" d="m22.5 38.971 13.545 11.705 15.683-8.6334-6.9468 16.5 13.057 12.248-17.839-1.5082-7.6132 16.203-4.0781-17.432-17.762-2.2337 15.318-9.2652z" fill="#fcd116"/>
<path transform="scale(.2)" d="m327.44 201.22 0.36475 17.899 16.91 5.8779-16.91 5.8778-0.36475 17.899-10.816-14.266-17.135 5.1841 10.225-14.695-10.225-14.695 17.135 5.1841z" fill="#fcd116"/>
<path transform="scale(.2)" d="m32.387 364.52 7.6132 16.203 17.839-1.5082-13.057 12.248 6.9468 16.5-15.683-8.6334-13.545 11.705 3.3645-17.583-15.318-9.2652 17.762-2.2337z" fill="#fcd116"/>
<path d="m28 26-1.1685 1.1685 0.5795 8.8504c-0.19703 0.0127-0.39206 0.0318-0.58544 0.057l-1.064-8.0762-0.95356 0.95356 1.4357 7.2188c-1.181 0.23368-2.2786 0.69759-3.2442 1.3442l-4.0886-6.1192h-1.349l4.959 6.4636c-0.1556 0.11962-0.30631 0.24474-0.45363 0.37406l-5.8496-6.6702h-1.653v1.653l6.6702 5.8496c-0.12946 0.1475-0.25433 0.29902-0.37406 0.45481l-6.4636-4.9602v1.349l6.1204 4.0898c-0.64648 0.9655-1.1118 2.0624-1.3454 3.2431l-7.2188-1.4357-0.95356 0.95356 8.0762 1.064c-0.0252 0.19341-0.0443 0.38846-0.057 0.58544l-8.8504-0.5795-1.1685 1.1685 1.1685 1.1685 8.8504-0.5795c0.0128 0.19709 0.0318 0.39321 0.057 0.58662l-8.0762 1.0628 0.95356 0.95356 7.2188-1.4357c0.23364 1.1809 0.69748 2.2784 1.3442 3.2442l-6.1192 4.0886v1.349l6.4636-4.959c0.11963 0.15566 0.24474 0.30625 0.37406 0.45363l-6.6702 5.8496v1.653h1.653l5.8496-6.6702c0.14754 0.12955 0.29899 0.25421 0.45481 0.37406l-4.9602 6.4636h1.349l4.0898-6.1204c0.96524 0.64705 2.0622 1.113 3.2431 1.3466l-1.4357 7.2176 0.95356 0.95356 1.064-8.0762c0.1933 0.0252 0.38841 0.0443 0.58544 0.057l-0.5795 8.8504 1.1685 1.1685 1.1685-1.1685-0.5795-8.8504c0.19703-0.0128 0.39206-0.0318 0.58544-0.057l1.064 8.0762 0.95356-0.95356-1.4357-7.2188c1.181-0.23367 2.2786-0.69758 3.2442-1.3442l4.0886 6.1192h1.349l-4.959-6.4636c0.1556-0.11962 0.30631-0.24474 0.45363-0.37406l5.8496 6.6702h1.653v-1.653l-6.6702-5.8496c0.12946-0.1475 0.25433-0.29902 0.37406-0.45481l6.4636 4.9602v-1.349l-6.1204-4.0898c0.64648-0.96549 1.1118-2.0624 1.3454-3.2431l7.2188 1.4357 0.95356-0.95356-8.0762-1.064c0.0252-0.19342 0.0443-0.38846 0.057-0.58544l8.8504 0.5795 1.1685-1.1685-1.1685-1.1685-8.8504 0.5795c-0.0127-0.19703-0.0318-0.39206-0.057-0.58544l8.0762-1.064-0.95356-0.95356-7.2188 1.4357c-0.23367-1.181-0.69757-2.2786-1.3442-3.2442l6.1192-4.0886v-1.349l-6.4636 4.959c-0.11962-0.15559-0.24474-0.3063-0.37406-0.45362l6.6702-5.8496v-1.653h-1.653l-5.8496 6.6702c-0.1475-0.12946-0.29901-0.25433-0.45481-0.37406l4.9602-6.4636h-1.349l-4.0898 6.1204c-0.96549-0.64648-2.0624-1.1118-3.2431-1.3454l1.4357-7.2188-0.95356-0.95356-1.064 8.0762c-0.19341-0.0252-0.38846-0.0443-0.58544-0.057l0.5795-8.8504-1.1685-1.1685z" fill="#fcd116"/>
<metadata>
<rdf:RDF>
<cc:Work rdf:about="">
<dc:format>image/svg+xml</dc:format>
<dc:type rdf:resource="http://purl.org/dc/dcmitype/StillImage"/>
</cc:Work>
</rdf:RDF>
</metadata>
<title>Flag of the Philippines</title>
<desc>Coding according to the official "description and specification of the FILIPINO flag" in Executive Order No. 23 from 1936</desc>
</svg>
