<svg xmlns="http://www.w3.org/2000/svg" xmlns:xlink="http://www.w3.org/1999/xlink" width="1008.173" height="672.12" viewBox="0 0 756.13 504.09" xmlns:v="https://vecta.io/nano"><style><![CDATA[.B{stroke-miterlimit:22.926}.C{stroke-width:.667}.D{fill:#edb92f}.E{stroke-linejoin:round}.F{fill:#fff}.G{stroke:#21231e}.H{fill-rule:evenodd}.I{fill:#21231e}.J{stroke-linecap:round}.K{fill:none}.L{fill:#0d4077}.M{stroke-width:.666}.N{stroke-width:.665}.O{stroke-width:.674}.P{fill:#c7363d}.Q{stroke-width:.662}.R{stroke-width:.668}.S{stroke-width:.659}.T{stroke-width:.66}.U{stroke-width:.672}.V{stroke-width:.637}.W{stroke-width:.663}.X{stroke-width:.634}.Y{stroke-width:.675}.Z{stroke-width:.641}.a{stroke-width:.607}.b{stroke-width:.638}.c{stroke-width:.647}.d{stroke-width:.658}.e{stroke-width:.614}.f{stroke-width:.677}.g{stroke-width:.669}.h{stroke-width:.588}.i{stroke-width:.664}.j{stroke-width:.611}.k{stroke-width:1.304}]]></style><clipPath id="A"><path d="M0 0h756.13v168.35H0z"/></clipPath><clipPath id="B"><path d="M0 167.75h756.13v168.34H0z"/></clipPath><clipPath id="C"><path d="M0 335.51h756.13v168.58H0z"/></clipPath><g transform="scale(1 2.9999)" clip-path="url(#A)" class="H P"><path d="M0 0h756.13v168.03H0z"/></g><g transform="matrix(1 0 0 1.9975 0 -167.2)" clip-path="url(#B)" class="H L"><path d="M0 167.62h756.13v168.44H0z"/></g><g clip-path="url(#C)" class="F H"><path d="M0 334.79h756.13v169.29H0z"/></g><g class="H"><g class="D G B C"><path d="M336.045 119.821c1.051-2.281.203-5.461-.137-6.18-.176-.363.34-1.164.563-1.48 7.152-10.055 7.277-10.945 2.344-14.715-4.445-3.398-14.496-6.703-21.687-8.93-1.496-1.133-2.449-2.676-3.809-3.949 13.817.988 28.789 6.559 36.34 13.066 3.988 3.441-.863 10.391-6.809 20.961-3.672 2.633-5.394 3.859-6.805 1.227z"/><path d="M338.22 120.62c.313-.906.535-1.777.691-2.594.301-1.492.172-3.035-.328-4.484l4.832-7.332c.953-1.785 1.691-3.773 1.129-5.809-.598-2.172-2.488-3.648-4.199-4.957-2.051-1.566-4.777-2.937-7.543-4.106-6.191-2.551-11.114-3.797-14.723-3.91l2.289 2.109c6.715 2.156 14.637 4.996 18.445 7.91 4.934 3.766 4.809 4.66-2.344 14.715-.223.313-.738 1.117-.566 1.481.344.719.977 4.035-.074 6.316.617 1.152 1.512.551 2.391.66z"/><path d="M277.792 75.855c-.063-1.273.023-1.055.215.906.207-.395.477-.574.805-.566.582.012.934.891.988 2.871l-.105 1.519c18.324-.406 29.187 2.356 31.988 7.656 2.305 4.363-1.613 11.586-7.527 19.832-.715 1-.695.914-.004 1.738 1.004 1.188 2.078 3.203 1.27 4.969 3.582 1.961 7.848 2.441 11.567.82.621-1.633 1.957-2.406 3.043-3.144.223-.148 1.016-.539 1.098-.793l5.598-17.391c5.289-16.879-41.695-18.426-48.934-18.418z"/><g class="E"><path d="M326.18 148.47c1.812-3.629 3.715-7.191 6.258-10.277-6.512 4.809-9.934 4.086-10.41-2.176-.387-.137-.91-.137-1.43-.137-4.969 7.691-9.801 6.625-14.496-3.195-6.398 10.09-11.887 9.91-16.196-.617-7.379 9.203-13.594 9.231-18.648.195v-1.144c.285.125.09.164-.57.07l-.109-.207-.543.102c-.164-.027-.348-.062-.547-.102l-.105.207c-.66.094-.855.055-.574-.07v1.148c-5.051 9.031-11.266 9.004-18.644-.199-4.312 10.527-9.801 10.707-16.196.617-4.695 9.82-9.527 10.887-14.496 3.195-.523 0-1.043 0-1.43.137-.477 6.262-3.902 6.984-10.41 2.176 2.539 3.086 4.445 6.648 6.258 10.277l56.144-2.727 56.144 2.727z"/><path d="M333.87 133.36l-2.043-.34c-3.918 9.563-7.434 9.797-8.098.699.879-.316.531-1.836 1.523-1.231.523.32 1.184-.586.75-1.086-1.109-.816-2.098-.687-3.07.219-.457-1.453-1.578-2.129-2.977-1.519-.605.266-.398 1.356.207 1.293.98-.102.586.914.895 1.598-6.957 9.063-10.512 7.984-9.645-3.922-1.656-.34-3.586-.68-5.309-1.293-6.398 12.84-10.953 13.395-14.641 1.871.789-.59.566-2.066 1.719-1.59.652.266 1.199-.879.617-1.371-1.348-1.133-2.809-.75-3.793.707-.785-1.57-2.188-2.137-3.668-1.18-.637.41-.242 1.617.437 1.434 1.305-.348.719 1.363 1.707 1.949-2.828 10.832-17.109 11.562-14.774-4.477l-3.672.133-3.676-.133c2.336 16.039-11.942 15.309-14.77 4.477.988-.586.402-2.297 1.707-1.949.676.184 1.074-1.023.434-1.434-1.48-.957-2.879-.391-3.668 1.18-.98-1.457-2.441-1.84-3.789-.707-.582.492-.035 1.637.613 1.371 1.156-.477.93 1 1.723 1.59-3.687 11.523-8.242 10.969-14.641-1.871-1.727.613-3.652.953-5.309 1.293.867 11.906-2.691 12.984-9.645 3.922.305-.684-.086-1.699.891-1.598.609.063.816-1.027.211-1.293-1.398-.609-2.523.066-2.977 1.519-.973-.906-1.961-1.035-3.07-.219-.434.5.227 1.406.746 1.086.992-.605.648.914 1.523 1.231-.66 9.098-4.176 8.863-8.094-.699l-2.043.34c-.063 2.246.723 4.637 2.109 6.394 5.879 7.457 10.254 5.766 10.414-2.586 7.695 9.019 13.516 7.875 14.559-1.633 6.477 11.996 16.867 6.258 17.081-1.019 2.852 10.574 18.656 10.5 19.667-1.656 1.012 12.156 16.812 12.23 19.667 1.656.215 7.277 10.606 13.016 17.078 1.019 1.047 9.508 6.867 10.652 14.563 1.633.16 8.352 4.531 10.043 10.414 2.586 1.387-1.758 2.172-4.148 2.109-6.394z"/></g><path transform="matrix(0 .99572 1 0 0 0)" d="M121.68 283.2c-.545-.867-.4-1.039-.757-1.316-.459-.359-1.216-.363-1.938-.25-2.919.453-2.511-1.297-1.22-3.262.643-.98 2.142-1.973 2.927-2.816s.847-1.547 1.157-1.758l2.526-.023h.004l2.522.023c.31.211.377.914 1.161 1.758s2.279 1.836 2.923 2.816c1.291 1.965 1.699 3.715-1.22 3.262-.722-.113-1.475-.109-1.938.25-.357.277-.212.449-.757 1.316-.353.563-.777.984-1.24 1.266s-.957.129-1.455.129-.993.152-1.455-.129-.887-.703-1.24-1.266z"/></g><path d="M273.71 124.29l.074.488c2.078.258 3.793 1.09 5.293 2.394-.988-1.469-3.117-2.559-5.367-2.883m0-.889l.074-.488c2.078-.262 3.793-1.094 5.293-2.398-.988 1.469-3.117 2.563-5.367 2.887" class="I"/><g class="G B"><g class="D"><path transform="rotate(270)" d="M-117.15 281.67c-.258-.633-.535-1.32-1.098-1.902-.855-.887-2.269-.313-3.644.832-.43.363-1.195.535-1.957.531s-1.519-.18-1.937-.531c-1.371-1.145-2.789-1.719-3.644-.832-.562.582-.836 1.27-1.098 1.902.332.059.766.055 1.324-.031.719-.113 1.469-.109 1.926.25.359.277.215.449.758 1.316.352.563.773.984 1.234 1.266s.953.129 1.449.129.988.152 1.449-.129.883-.703 1.234-1.266c.539-.867.398-1.039.75-1.316.461-.359 1.211-.363 1.934-.25.555.086.988.09 1.32.031z" class="C"/><path transform="matrix(-.12583 -1 -.99997 .12583 0 0)" d="M-143.23-186.01c2.376.752 5.401-.476 6.066-.904.336-.214 1.192.19 1.528.374 10.784 5.796 11.676 5.804 14.776.485 2.794-4.801 4.803-15.101 6.104-22.456.93-1.613 2.331-2.743 3.416-4.238.738 13.72-2.891 29.15-8.361 37.393-2.894 4.352-10.336.437-21.478-4.106-3.047-3.292-4.468-4.836-2.05-6.547z" class="Q"/><g class="C"><path d="M201.854 120.62a18.21 18.21 0 0 1-.687-2.594c-.301-1.492-.172-3.035.324-4.484l-4.832-7.332c-.949-1.785-1.687-3.773-1.129-5.809.602-2.172 2.492-3.648 4.203-4.957 2.047-1.566 4.777-2.937 7.543-4.106 6.191-2.551 11.114-3.797 14.719-3.91l-2.289 2.109c-6.711 2.156-14.633 4.996-18.441 7.91-4.934 3.766-4.809 4.66 2.344 14.715.223.313.738 1.117.563 1.481-.34.719-.973 4.035.078 6.316-.617 1.152-1.516.551-2.395.66z"/><path d="M262.282 75.855c.062-1.273-.027-1.055-.215.906-.211-.395-.48-.574-.809-.566-.578.012-.93.891-.988 2.871l.105 1.519c-18.32-.406-29.183 2.356-31.984 7.656-2.305 4.363 1.613 11.586 7.527 19.832.715 1 .691.914 0 1.738-1 1.188-2.074 3.203-1.266 4.969-3.586 1.961-7.848 2.441-11.571.82-.617-1.633-1.957-2.406-3.039-3.144-.223-.148-1.02-.539-1.098-.793l-5.602-17.391c-5.285-16.879 41.699-18.426 48.938-18.418zm3.185 69.849l-.656 18.293 57.789 1.836 3.621-17.082-60.754-3.047z"/></g><g class="C"><path d="M265.462 145.71l-.004.098-51.605 2.949 3.621 17.082 52.562-1.687 52.562 1.688 3.617-17.082-51.605-2.949-.004-.098c.98-.191-.539-.227-4.57-.086-4.035-.141-5.551-.105-4.574.086z"/><path d="M270.042 147.73l-2 .004-.664.004h-.34l-.617.004-.371.004h-.242l-.422.004-.664.008-.586.004-.125.004-.488.004-1.453.02h-.16l-.094.004-.617.008-.191.004-.262.004-.637.012h-.023l-.664.012-.211.004-.445.012h-.145l-.516.012-.66.016h-.031l-.629.016-.266.004-.02.004-2.348.059-.316.008-.895.027-.102.004-.789.027-.52.016-.371.012-.105.004-.789.023-.047.004-.652.023-.031.004-.625.023-.422.016-.883.035h-.004l-3.48.148-.164.008-5.094.262-.098.008-.254.012-10.114.668-.125.008-.043.008-14.59 1.301c-2.742.258-3.266-2.973 0-3.273l14.59-1.305.043-.004c6.738-.508 13.555-.898 20.449-1.16l.566-.023h.09l.187-.008.652-.023.051-.004 8.496-.234.445-.008.023-.004.758-.012h.094l.023-.004.637-.008.262-.008.398-.004.504-.008.16-.004.234-.004 1.754-.023.555-.004h.109l.664-.004 1.938-.016h.055l.664-.004 2-.004 1.996.004.668.004h.055l1.938.016.664.004h.109l.555.004 1.754.023.234.004.16.004.5.008.402.004.262.008.637.008.023.004h.098l.754.012.023.004.445.008 8.5.234.043.004.656.023.187.008h.086l.57.023a549.37 549.37 0 0 1 20.449 1.16l.039.004 14.59 1.305c3.27.301 2.742 3.531 0 3.273l-14.59-1.301-.039-.008-.125-.008-10.114-.668-.254-.012-.094-.008-5.098-.262-.164-.008-3.48-.148h-.004l-.883-.035-.426-.016-.625-.023-.027-.004-.656-.023-.043-.004-.793-.023-.102-.004-.371-.012-.52-.016-.793-.027-.098-.004-.895-.027-.32-.008-2.344-.059-.02-.004-.266-.004-.629-.016h-.031l-.66-.016-.516-.012h-.145l-.445-.012-.215-.004-.66-.012h-.023l-.637-.012-.262-.004-.191-.004-.617-.008-.094-.004h-.16l-1.453-.02-.488-.004-.125-.004-.586-.004-.664-.008-.422-.004h-.242l-.371-.004-.617-.004h-.34l-.668-.004-1.996-.004z"/></g></g><g class="F C"><path d="M227.285 107.74a3.53 3.53 0 0 1 3.531 3.527 3.53 3.53 0 0 1-3.531 3.527 3.53 3.53 0 0 1-3.527-3.527 3.53 3.53 0 0 1 3.527-3.527z"/><path d="M197.224 115.13a3.28 3.28 0 0 1 3.277 3.277 3.28 3.28 0 0 1-3.277 3.277 3.28 3.28 0 0 1-3.277-3.277 3.28 3.28 0 0 1 3.277-3.277zm-3.13-5.99c1.809 0 3.277 1.465 3.277 3.277a3.28 3.28 0 0 1-3.277 3.277 3.28 3.28 0 0 1-3.277-3.277 3.28 3.28 0 0 1 3.277-3.277zm-2.95-6.05a3.28 3.28 0 0 1 3.277 3.277c0 1.813-1.469 3.277-3.277 3.277a3.28 3.28 0 0 1-3.277-3.277 3.28 3.28 0 0 1 3.277-3.277z"/></g><g class="C D"><use xlink:href="#E"/><path transform="matrix(.99925 -.067482 -.067529 -1 0 0)" d="M240.42-130.56c1.896.001 1.202-3.323.778-4.045-.552-.943-1.006-.944-1.556 0-.424.724-1.114 4.044.778 4.045z"/></g><path transform="matrix(.99997 -.067532 -.067532 -1 0 0)" d="M240.24-132.38c4.449 0 2.821-7.808 1.827-9.502-1.294-2.217-2.361-2.216-3.657-.003-.995 1.7-2.624 9.505 1.829 9.505z" class="F N"/><path transform="matrix(.99924 -.31799 -.3182 -1 0 0)" d="M159.39-169.78c1.81-.001 1.147-3.173.744-3.862-.53-.902-.963-.901-1.49-.003-.402.69-1.064 3.866.746 3.864z" class="D V"/><path transform="matrix(.99997 -.31822 -.31821 -1 0 0)" d="M159.27-171.52c4.255.002 2.699-7.453 1.749-9.076-1.239-2.113-2.255-2.114-3.495.003-.95 1.619-2.503 9.074 1.747 9.073z" stroke-width=".635" class="F"/><g transform="scale(.99997 -1)" class="C"><path d="M260.1-78.922c-9.547.863-19.313-.109-28.981-3.945-8.149-3.234-7.352-12.68 2.586-25.793-.898-1.66-1.41-3.723-1.492-6.109 1.051.059 1.789.031 2.715.055-.719 1.586.086 3.531.996 4.902.598.898.715.738 0 1.738-5.914 8.246-9.832 15.469-7.528 19.832 2.801 5.301 13.664 8.063 31.985 7.656l-.098 1.465c-.059.066-.121.133-.184.199z" class="D E"/><g class="F"><path d="M213.76-81.609c1.883 0 3.406-1.523 3.406-3.402s-1.524-3.402-3.406-3.402c-1.875 0-3.399 1.523-3.399 3.402s1.524 3.402 3.399 3.402z"/><use xlink:href="#F"/></g></g><g class="D"><path d="M221.313 82.332l1.016 1.352c-5.375 2.949-7.602 6.059-7.074 9.184.09.539 1.723 6.262 5.375 17.355 2.496 1.723 4.355 3.269 5.578 4.629-.137.152.395.637.238.77.371 1.695-1.539 1.352-2.82.93-.617-1.625-2.504-3.356-3.586-4.094-.223-.148-1.02-.539-1.098-.793l-5.602-17.391c-1.691-5.402 1.973-9.227 7.973-11.941z" class="C"/><path transform="matrix(.99997 -.067794 -.067794 -1 0 0)" d="M190.93-135.37l-.276-1.071c-1.584-.256-2.924-.255-4.016-.001 1.974 1.683 3.376 1.97 4.292 1.072z" class="E N"/><path d="M199.932 119.94c.98.219 1.074.383 1.5.457.551.094 1.309.055 1.828-.402 2.129-1.273 2.176 1.023 1.348 2.742-.598 1.246-.289 2.656.277 3.723.676 1.262.535 1.836.059 2.176l-.934.602c-.57.676-1.008.559-1.086-.324-2.125-.875-2.828-2.91-3.461-4.703-.934-2.621-4.309-3.242.469-4.269z" class="R"/><path d="M200.764 120.03c1.852.656 2.059-.367 3.305-.316-.492 2.828-.988 4.293-3.941 2.777-1.625-.84-3.711.387-4.109 1.297-.141.332-1.09-.359-1.437-1.117-1.449-3.168 3.707-3.523 6.184-2.641z" class="M"/></g><g class="F C"><path d="M257.125 71.613a3.39 3.39 0 0 1 3.387 3.391 3.38 3.38 0 0 1-3.387 3.383c-1.871 0-3.387-1.512-3.387-3.383a3.39 3.39 0 0 1 3.387-3.391zm-6.94 0a3.39 3.39 0 0 1 3.387 3.391 3.38 3.38 0 0 1-3.387 3.383c-1.871 0-3.391-1.512-3.391-3.383a3.39 3.39 0 0 1 3.391-3.391zm-6.94.547c1.871 0 3.387 1.512 3.387 3.387s-1.516 3.387-3.387 3.387-3.387-1.516-3.387-3.387 1.516-3.387 3.387-3.387z"/><path d="M236.845 73.383c1.871 0 3.391 1.519 3.391 3.391a3.39 3.39 0 0 1-3.391 3.387c-1.871 0-3.387-1.516-3.387-3.387a3.39 3.39 0 0 1 3.387-3.391z"/><use xlink:href="#G"/><path d="M200.584 87.16a3.403 3.403 0 0 1 0 6.805c-1.879 0-3.402-1.523-3.402-3.402s1.523-3.402 3.402-3.402zm6.63-3.109a3.4 3.4 0 0 1 3.402 3.398c0 1.883-1.523 3.406-3.402 3.406s-3.402-1.523-3.402-3.406a3.4 3.4 0 0 1 3.402-3.398z"/><use xlink:href="#G" x="-4.51" y="5.531"/></g><g class="C"><path d="M257.432 155.05l12.602-6.305 12.606 6.305-12.606 6.301z" class="D"/><path transform="matrix(0 .99538 1 0 0 0)" d="M151.89 270.04c0 3.133 1.703 5.668 3.799 5.668s3.799-2.535 3.799-5.668-1.699-5.672-3.799-5.672-3.799 2.539-3.799 5.672z" class="L"/></g><g class="M"><path transform="matrix(.99997 -.061144 -.061144 -1 0 0)" d="M219.03-170.03l12.58 6.286 12.581-6.289-12.58-6.286z" class="D"/><path transform="matrix(-.060846 -.99538 -1 .061124 0 0)" d="M-166.94-231.6c.004-3.129-1.694-5.663-3.789-5.66s-3.792 2.531-3.789 5.66c-.004 3.125 1.694 5.659 3.789 5.66s3.792-2.535 3.789-5.66z" class="P"/></g><g transform="scale(.99997 -1)" class="C"><path d="M214.76-151.57l13.176-4.988-10.879-7.277c-2.82.938-5.055 10.52-2.297 12.266z" class="D"/><path d="M215.01-154c3.117.32 5.817-1.106 6.028-3.184s-2.145-4.019-5.262-4.336c-2.024-.207-3.281 1.563-3.5 3.445-.223 1.875.602 3.859 2.734 4.074z" class="L"/><g class="F"><path d="M256.37-157.38a1.77 1.77 0 0 0 1.77-1.773c0-.977-.793-1.766-1.77-1.766s-1.77.789-1.77 1.766a1.77 1.77 0 0 0 1.77 1.773zm-27.02-1.5a1.77 1.77 0 0 0 1.77-1.769c0-.977-.793-1.766-1.77-1.766s-1.77.789-1.77 1.766a1.77 1.77 0 0 0 1.77 1.769z"/><use xlink:href="#H"/><use xlink:href="#H" x="27.9" y="1.15"/></g></g><g class="D"><g class="R"><path transform="matrix(0 1 .99969 0 0 0)" d="M133.71 208.48c-.406 1.336 2.555 3.435 2.504 3.931-1.695.656-5.742-.684-8.945-3.067-.527-1.618-1.566-1.762-3.977-2.098-.719-.098-.223-1.485 1.004-1.508 1.313-.027 2.043-.129 3.164.164.445.113.867.051 1.27-.442 1 2.52 2.223 3.138 4.981 3.02z"/><path d="M207.216 123.33c-.23.559-.301 1.012-.355 1.856-.043.641.195 1.242.605 1.773s1.004 1.008 1.664 1.391c.414.238.887.895 1.258 1.641s.641 1.578.66 2.176c.051 1.969.438 3.688 1.34 4.027.586.223.824.188 1.281.082-.129-.355-.082-.852-.398-1.348-.41-.637-.77-1.367-.801-2.004-.027-.5-.262-.832-.07-1.809.125-.637.539-.875.465-1.461-.141-1.137-1.039-3.312-2.352-3.312-1.297-.004-1.906-.141-2.578-1.856-.227-.582-.523-.863-.719-1.156z" class="E"/></g><path transform="matrix(.99836 -.15239 -.15263 -1 0 0)" d="M178.91-155.31c.385.215.835.345 1.252.434.705.158 1.423.092 2.079-.219 2.904-1.38 3.419-6.943-.116-7.721-.666.019-1.184.7-1.575 2.088-.434 1.816-.991 3.116-1.675 3.962-.388.684-.329 1.199.035 1.456z" class="W"/><path transform="matrix(.99846 -.15241 -.15263 -1 0 0)" d="M180.37-155.9c3.097.684 4.401-5.198 1.51-5.836-1.555-.345-1.418 1.497-1.546 2.552-.178 1.422-2.936 2.623.036 3.284z" class="Q"/></g><path transform="matrix(.99998 -.15264 -.15264 -1 0 0)" d="M180.28-156.77c1.508.332 2.957-3.276 1.06-3.756-1.28-.324-2.129.489-2.362 1.544s.243 1.978 1.302 2.211z" class="L S"/><path d="M310.656 156.638l-12.195-7.059-12.961 5.519 12.191 7.059z" class="C D"/><path transform="matrix(.060846 -.99538 1 .061124 0 0)" d="M-133.9 306.46c0-3.125-1.697-5.658-3.789-5.66s-3.792 2.531-3.793 5.661 1.697 5.658 3.793 5.66 3.788-2.535 3.789-5.66z" class="M P"/><g class="C"><path d="M325.32 151.57l-13.176 4.988 10.879 7.277c2.82-.937 5.055-10.52 2.297-12.266z" class="D"/><path d="M325.07 154c-3.113-.32-5.813 1.106-6.023 3.184s2.145 4.019 5.258 4.336c2.027.207 3.285-1.562 3.504-3.445.219-1.875-.602-3.859-2.738-4.074z" class="L"/></g><g class="F C"><g transform="scale(-.99997 -1)"><path d="M-283.73-157.38c.977 0 1.774-.793 1.774-1.773a1.77 1.77 0 0 0-1.774-1.766c-.977 0-1.77.789-1.77 1.766a1.77 1.77 0 0 0 1.77 1.773zm-27.01-1.5c.981 0 1.77-.789 1.77-1.769s-.789-1.766-1.77-1.766a1.76 1.76 0 0 0-1.766 1.766c0 .977.789 1.769 1.766 1.769z"/><use xlink:href="#H" x="-540.1"/><use xlink:href="#H" x="-512.19" y="1.15"/></g><path d="M224.566 101.96c1.945 0 3.527 1.582 3.527 3.531a3.53 3.53 0 0 1-3.527 3.527c-1.949 0-3.531-1.582-3.531-3.527s1.582-3.531 3.531-3.531z"/><path d="M221.986 96.098a3.53 3.53 0 0 1 3.527 3.531c0 1.949-1.578 3.527-3.527 3.527s-3.527-1.578-3.527-3.527a3.53 3.53 0 0 1 3.527-3.531zm8.447-20.649c1.883 0 3.406 1.523 3.406 3.402s-1.523 3.402-3.406 3.402a3.4 3.4 0 1 1 0-6.804z"/><path d="M224.716 78.047a3.53 3.53 0 0 1 3.531 3.527 3.53 3.53 0 0 1-3.531 3.527c-1.949 0-3.527-1.578-3.527-3.527s1.578-3.527 3.527-3.527z"/><path d="M220.506 83.031c1.945 0 3.527 1.582 3.527 3.531a3.53 3.53 0 0 1-3.527 3.527 3.53 3.53 0 0 1-3.531-3.527c0-1.949 1.582-3.531 3.531-3.531z"/><path d="M219.826 89.312a3.53 3.53 0 0 1 3.527 3.527 3.53 3.53 0 0 1-3.527 3.531 3.53 3.53 0 0 1-3.531-3.531 3.53 3.53 0 0 1 3.531-3.527z"/></g><g class="C"><path d="M271.762 49.832a1.72 1.72 0 0 0 1.676-1.723 1.72 1.72 0 0 0-1.68-1.723 1.72 1.72 0 0 0-1.723-1.715c-.949 0-1.719.77-1.723 1.715-.934.023-1.684.785-1.684 1.723s.75 1.699 1.68 1.723v3.535h-3.043c-.008-.945-.773-1.711-1.723-1.711-.941 0-1.703.746-1.723 1.68-.949.004-1.719.773-1.719 1.723s.77 1.719 1.719 1.723c.02.93.781 1.684 1.723 1.684.922 0 1.676-.73 1.723-1.645h3.043v11.758h3.453V56.821h3.043c.047.914.801 1.645 1.723 1.645a1.73 1.73 0 0 0 1.723-1.684 1.72 1.72 0 0 0 0-3.445 1.72 1.72 0 0 0-1.723-1.68 1.72 1.72 0 0 0-1.723 1.711h-3.043z" class="D"/><path d="M270.045 60.93c5.254 0 9.512 4.262 9.512 9.52s-4.258 9.512-9.512 9.512-9.516-4.258-9.516-9.512a9.52 9.52 0 0 1 9.516-9.519z" class="L"/><path d="M270.042 60.93c.59 0 1.164.055 1.727.156v7.492h-3.453v-7.492c.563-.102 1.137-.156 1.727-.156z" class="D"/><g class="D"><path d="M279.352 68.516a9.51 9.51 0 0 1 .195 1.93c0 .457-.031.906-.094 1.348l-9.418-.18-9.418.18a9.6 9.6 0 0 1-.098-1.348c0-.66.07-1.309.195-1.93l9.32-.18 9.316.18z"/><path d="M262.652 76.391c-2.016-1.238-2.367.684-2.316 2.617.191 7.277 1.59 14.203-.371 23.117-.785 3.566-2.051 5.574-.82 6.262 3.145 1.75 4.586 3.356 4.086 4.219.93 1.769 3.246 1.426 6.805.859 3.559.566 5.875.91 6.805-.859-.5-.863.941-2.469 4.082-4.219 1.234-.687-.031-2.695-.816-6.262-1.961-8.914-.563-15.84-.371-23.117.047-1.934-.301-3.856-2.316-2.617-3.965 2.445-10.754 2.473-14.766 0z" class="E"/></g><g class="F"><path d="M270.045 103.79c2.086 0 3.781 1.691 3.781 3.781s-1.695 3.781-3.781 3.781-3.781-1.691-3.781-3.781 1.695-3.781 3.781-3.781z"/><path d="M270.045 97.234c2.086 0 3.781 1.695 3.781 3.781s-1.695 3.781-3.781 3.781-3.781-1.691-3.781-3.781 1.695-3.781 3.781-3.781z"/><use xlink:href="#I"/><path d="M270.045 73.043a3.78 3.78 0 0 1 3.781 3.777c0 2.09-1.695 3.781-3.781 3.781s-3.781-1.691-3.781-3.781a3.78 3.78 0 0 1 3.781-3.777z"/><path d="M270.045 78.586c2.086 0 3.781 1.691 3.781 3.781s-1.695 3.781-3.781 3.781-3.781-1.695-3.781-3.781 1.695-3.781 3.781-3.781z"/><use xlink:href="#I" y="-6.301"/></g></g><g class="D"><g class="E"><path transform="matrix(-.89741 -1 -.99997 .89744 0 0)" d="M-194.18-91.497c2.278-.548 4.048-.547 5.309.001 2.858-4.881 7.763-9.826 14.822-14.802 1.022-.781 1.647-.912 1.969-.54.281.326-.031.958-1.099 1.975-3.724 2.92-7.05 5.389-9.514 7.889-2.2 2.232-3.643 4.52-5.279 7.085-.227.356-.659.353-2.198-.172-1.138-.385-2.118-.388-2.83-.046-.113-.305-.269-.426-.367-.487-.926-.579-1.162-.965-.814-.902z" stroke-width=".496"/><path d="M274.328 112.066c1.496-2.766 3.086-4.539 4.766-5.309-2.316-7.238-2.859-16.582-1.5-28.106.137-1.723.566-2.465 1.227-2.453.582.012.93.891.988 2.875-.422 6.34-.938 11.883-.648 16.59.258 4.203 1.254 7.699 2.348 11.637.152.547-.238.977-2.144 2.043-1.406.793-2.289 1.769-2.586 2.789-.406-.16-.668-.113-.816-.07-1.41.406-2.008.297-1.633.004z" class="M"/></g><path d="M272.724 110.68c.543.867.398 1.039.754 1.316.457.359 1.211.363 1.93.25 2.906-.453 2.5 1.297 1.219 3.262-.645.984-2.137 1.973-2.918 2.816s-.844 1.547-1.152 1.758l-2.516.023c-.437.008-1.398.004-2.516-.023-.309-.211-.375-.914-1.152-1.758s-2.273-1.832-2.914-2.816c-1.289-1.965-1.691-3.715 1.215-3.262.723.113 1.473.109 1.93-.25.355-.277.211-.449.754-1.316.352-.562.773-.984 1.234-1.266s.953-.129 1.449-.129.988-.152 1.449.129.883.703 1.234 1.266z" class="M"/></g></g><path d="M269.6 120.17l-.488-.07c-.262-2.078-1.094-3.797-2.398-5.297 1.469.992 2.559 3.121 2.887 5.367m.879 0l.492-.07c.258-2.078 1.09-3.797 2.394-5.297-1.465.992-2.559 3.121-2.887 5.367" class="I"/><g class="B C D G"><path d="M276.722 112.21c-.258.633-.535 1.324-1.098 1.906-.855.883-2.27.309-3.641-.836-.434-.359-1.199-.535-1.961-.531s-1.52.184-1.938.531c-1.371 1.144-2.789 1.719-3.644.836-.563-.582-.836-1.273-1.094-1.906.332-.059.762-.055 1.32.031.719.113 1.473.109 1.93-.25.355-.277.211-.449.754-1.312.352-.562.773-.988 1.234-1.269s.953-.129 1.449-.129.988-.152 1.449.129.883.707 1.234 1.269c.539.863.398 1.035.754 1.313.457.359 1.207.363 1.93.25.559-.086.988-.09 1.32-.031z"/><path transform="matrix(0 .99572 -1 0 0 0)" d="M121.68-256.88c-.545-.867-.4-1.039-.757-1.316-.459-.359-1.216-.363-1.938-.25-2.919.453-2.511-1.293-1.22-3.258.643-.984 2.142-1.973 2.927-2.82s.847-1.543 1.157-1.754l2.526-.027h.004l2.522.027c.31.211.377.91 1.161 1.754s2.279 1.836 2.923 2.82c1.291 1.965 1.699 3.711-1.22 3.258-.722-.113-1.475-.109-1.938.25-.357.277-.212.449-.757 1.316-.353.563-.777.988-1.24 1.266-.459.285-.957.129-1.455.129s-.993.156-1.455-.129c-.459-.277-.887-.703-1.24-1.266z"/></g><path d="M266.37 124.29l-.074.488c-2.078.258-3.797 1.09-5.293 2.394.988-1.469 3.117-2.559 5.367-2.883m0-.889l-.074-.488c-2.078-.262-3.797-1.094-5.293-2.398.988 1.469 3.117 2.563 5.367 2.887" class="I"/><g class="B C D G"><path transform="matrix(0 -1 -.99997 0 0 0)" d="M-117.15-258.42c-.258-.633-.535-1.324-1.098-1.906-.855-.887-2.269-.313-3.644.832-.43.363-1.195.539-1.957.531-.762 0-1.519-.18-1.937-.531-1.371-1.145-2.789-1.719-3.644-.832-.562.582-.836 1.274-1.098 1.906.332.059.766.051 1.324-.035.719-.113 1.469-.109 1.926.25.359.277.215.449.758 1.316.352.563.773.984 1.234 1.266s.953.129 1.449.129.988.156 1.449-.129.883-.703 1.234-1.266c.539-.867.398-1.039.75-1.316.461-.359 1.211-.363 1.934-.25.555.086.988.094 1.32.035z"/><path transform="matrix(0 -.99572 1 0 0 0)" d="M-127.07 283.2c-.545-.867-.4-1.039-.757-1.316-.463-.359-1.216-.363-1.938-.25-2.919.453-2.511-1.297-1.22-3.262.643-.98 2.142-1.973 2.927-2.816s.847-1.547 1.157-1.758l2.526-.023h.004l2.522.023c.31.211.377.914 1.157 1.758s2.283 1.836 2.927 2.816c1.291 1.965 1.699 3.715-1.22 3.262-.722-.113-1.479-.109-1.938.25-.357.277-.212.449-.757 1.316-.353.563-.777.984-1.24 1.266s-.957.129-1.455.129-.996.152-1.455-.129-.887-.703-1.24-1.266z"/></g><path d="M273.71 123.4l.074-.488c2.078-.262 3.793-1.094 5.293-2.398-.988 1.469-3.117 2.563-5.367 2.887m0 .889l.074.488c2.078.258 3.793 1.09 5.293 2.394-.988-1.469-3.117-2.559-5.367-2.883" class="I"/><g class="G B C"><g class="D"><path transform="matrix(0 1 .99997 0 0 0)" d="M130.53 281.67c-.258-.633-.535-1.32-1.098-1.902-.855-.887-2.273-.313-3.644.832-.43.363-1.195.535-1.957.531s-1.519-.18-1.937-.531c-1.375-1.145-2.789-1.719-3.644-.832-.562.582-.84 1.27-1.098 1.902.332.059.766.055 1.32-.031.723-.113 1.473-.109 1.934.25.352.277.211.449.75 1.316.352.563.777.984 1.234 1.266s.953.129 1.449.129.992.152 1.449-.129.883-.703 1.234-1.266c.543-.867.398-1.039.758-1.316.457-.359 1.207-.363 1.926-.25.559.086.992.09 1.324.031z"/><use xlink:href="#E"/><path d="M270.035 120.69a3.15 3.15 0 1 1 0 6.301 3.15 3.15 0 1 1 0-6.301z"/></g><path d="M270.045 121.86c1.094 0 1.984.887 1.984 1.981s-.891 1.984-1.984 1.984a1.98 1.98 0 1 1 0-3.965z" class="L"/></g><path d="M202.9 127.59l.375-.16c-.852-1.184-1.035-2.312-.711-3.445-.727.898-.551 2.313.336 3.606" class="I"/><path d="M230.463 113.1c.738.926.648 1.148 1.047 1.414.523.344 1.23.227 1.887-.023 2.691-1.023 2.695 1.102 1.91 3.535-.379 1.18-1.527 2.461-2.039 3.465-.504.98-.395 1.719-.621 1.969l-2.195.324h-.004l-2.168.266c-.313-.176-.555-.875-1.441-1.644-.898-.766-2.441-1.602-3.273-2.543-1.687-1.914-2.586-3.746.066-3.684.664.016 1.324-.102 1.617-.574.234-.367.059-.535.285-1.609.148-.707.41-1.269.746-1.676s.836-.32 1.293-.406.879-.355 1.391-.098 1.023.68 1.5 1.285z" class="B C D G"/><path d="M230.08 123.84l-.437-.02c-.758-2.109-1.941-3.812-3.496-5.246 1.563.867 3.082 2.981 3.934 5.266m.769-.11l.41-.129a11.01 11.01 0 0 1 .852-5.988c-1.086 1.309-1.531 3.746-1.262 6.117" class="I"/><g class="B D G"><path d="M234.653 114.23c-.098.781-.199 1.625-.594 2.375-.59 1.129-2.039.695-3.594-.383-.488-.34-1.234-.418-1.926-.297s-1.32.434-1.598.887c-.883 1.453-1.945 2.266-2.941 1.438-.66-.551-1.105-1.258-1.523-1.914.27-.113.645-.172 1.156-.16.664.016 1.324-.102 1.617-.574.234-.367.059-.531.285-1.609.152-.707.41-1.266.746-1.676s.836-.316 1.293-.402.879-.359 1.391-.105 1.023.684 1.5 1.289c.738.926.645 1.148 1.047 1.418.523.34 1.23.219 1.887-.027.508-.191.922-.273 1.254-.258z" class="C"/><path d="M219.95 124.799c.43-.516.602-.402.68-.727.098-.422-.152-1.082-.473-1.707-1.293-2.516.082-2.301 1.945-1.313.473.25 1.023.699 1.566 1.16l1.547 1.273c.926.66 1.496.68 1.766.945l.891 2.301v.004l.855 2.297c-.059.285-.59.363-.984 1.094-.395.711-.699 2.008-1.176 2.633-.699.918-1.344 1.465-1.84 1.375s-.852-.812-.988-2.41a2.78 2.78 0 0 0-.816-1.668c-.324-.305-.395-.176-1.191-.617-.512-.289-.949-.645-1.301-1.031-.348-.379-.398-.809-.562-1.234s-.43-.844-.387-1.246a2.04 2.04 0 0 1 .469-1.129z" class="O"/></g><path d="M228.12 127.52l.125.52c-.801.188-1.465.516-2.016.965s-.996 1.027-1.344 1.723c.121-.77.508-1.457 1.07-2.008s1.313-.969 2.164-1.199m-.319-.921l-.242-.512a8.22 8.22 0 0 1-2.594-.664c-.836-.359-1.656-.855-2.465-1.469.641.715 1.477 1.32 2.391 1.773.926.461 1.938.766 2.91.871" class="I"/><g class="B D G"><path d="M219.733 120.74c.551.203.918.453 1.551.973.484.395.746.969.84 1.621s.02 1.402-.164 2.137c-.113.457.027 1.238.297 2.004s.676 1.52 1.086 1.926c1.355 1.348 2.305 2.773 1.926 3.652-.246.578-.434.727-.82.988-.16-.328-.547-.625-.68-1.18-.168-.723-.437-1.473-.867-1.922-.332-.348-.406-.742-1.23-1.254-.535-.328-.988-.187-1.348-.629-.703-.859-1.625-2.957-.727-3.918.891-.945 1.207-1.481.457-3.106-.254-.555-.246-.957-.32-1.293z" class="C E"/><path transform="matrix(-.3224 -.9955 1 -.32386 0 0)" d="M-187.65 182.9c-.342-.817-.179-.945-.452-1.228-.351-.367-1.026-.464-1.693-.464-2.627.005-1.944-1.381-.467-2.834.734-.724 2.222-1.366 3.056-1.964.837-.605 1.015-1.165 1.326-1.303l2.291.219.001-.004 2.354.267c.259.205.217.793.841 1.588.63.801 1.962 1.832 2.472 2.774 1.036 1.928 1.211 3.586-1.709 2.734-.705-.208-1.457-.31-1.963-.059-.397.196-.281.37-.954 1.064-.436.449-.92.766-1.414.946s-.942-.034-1.416-.109-.967-.019-1.35-.338a3.34 3.34 0 0 1-.924-1.286z" class="X"/></g><path d="M234.43 125.58l-.039-.477c1.777-.484 3.156-1.5 4.281-2.988-.633 1.59-2.332 2.902-4.242 3.465m.18.83l.16.453c1.859.035 3.531.648 5.094 1.73-1.141-1.289-3.227-2.106-5.254-2.184" class="I"/><g class="G B"><g class="D"><path d="M242.63 131.465c-.598-.184-1.258-.379-1.863-.84-.922-.711-.652-2.082.137-3.496.254-.453.285-1.215.152-1.961s-.426-1.484-.824-1.863c-1.301-1.242-2.094-2.617-1.437-3.621.445-.676 1.043-1.063 1.594-1.434.121.344.195.809.211 1.406.023.77.156 1.551.574 1.973.324.332.461.16 1.371.605.59.289 1.063.668 1.402 1.102s.27.949.344 1.445.297.973.102 1.453-.523.934-.992 1.332c-.707.609-.887.488-1.086.852-.25.469-.129 1.172.086 1.836.164.504.238.902.23 1.211z" class="Y"/><g class="C"><path d="M230.363 122.2c2.234-.105 4.387 1.832 4.703 4.203s-1.242 4.211-3.383 4.238c-2.141.02-4.125-1.715-4.535-4.004s.984-4.324 3.215-4.437z"/><path d="M230.553 123.36c1.629-.07 3.195 1.332 3.434 3.066s-.879 3.109-2.469 3.133c-1.57.027-3.059-1.285-3.348-2.957-.297-1.707.75-3.172 2.383-3.242z"/></g></g><path d="M230.733 124.55c1.02-.043 1.996.828 2.156 1.918s-.547 1.961-1.547 1.98-1.938-.801-2.117-1.871.488-1.992 1.508-2.027z" class="C L"/><g class="F C"><path d="M312.794 107.74c-1.949 0-3.527 1.578-3.527 3.527s1.578 3.527 3.527 3.527a3.53 3.53 0 0 0 3.531-3.527 3.53 3.53 0 0 0-3.531-3.527z"/><path d="M-342.86-115.13c1.809 0 3.274-1.469 3.274-3.277s-1.465-3.277-3.274-3.277a3.28 3.28 0 0 0-3.277 3.277 3.28 3.28 0 0 0 3.277 3.277zm-3.13 5.99c1.809 0 3.277-1.465 3.277-3.277a3.28 3.28 0 0 0-3.277-3.277 3.28 3.28 0 0 0-3.277 3.277c0 1.813 1.469 3.277 3.277 3.277zm-2.95 6.05a3.28 3.28 0 0 0 3.277-3.277 3.28 3.28 0 0 0-3.277-3.277 3.28 3.28 0 0 0-3.277 3.277 3.28 3.28 0 0 0 3.277 3.277z" transform="scale(-.99997 -1)"/></g><g class="C"><path transform="matrix(-.99925 -.067482 .067529 -1 0 0)" d="M-297.62-94.248c1.896-.003 1.202-3.323.778-4.049-.548-.943-1.002-.94-1.556 0-.42.724-1.114 4.048.778 4.045z" class="D"/><path d="M290.903 116.152c-4.453-.297-3.348 7.617-2.473 9.383 1.148 2.301 2.211 2.375 3.66.246 1.109-1.629 3.262-9.328-1.188-9.629z" class="F"/></g><path transform="matrix(-.99924 -.31799 .3182 -1 0 0)" d="M-331.4-13.715c1.811.002 1.151-3.175.743-3.865-.525-.899-.958-.898-1.486 0-.405.691-1.065 3.862.742 3.866z" class="D V"/><path d="M326.232 120.837c-4.25-1.352-5.066 6.598-4.637 8.52.566 2.512 1.582 2.836 3.496 1.113 1.465-1.316 5.391-8.281 1.141-9.633z" class="F M"/><g transform="scale(-.99997 -1)" class="C"><path d="M-279.99-78.922c-9.551.863-19.317-.109-28.985-3.945-8.149-3.234-7.348-12.68 2.586-25.793-.898-1.66-1.41-3.723-1.488-6.109 1.051.059 1.785.031 2.715.055-.719 1.586.086 3.531.996 4.902.594.898.711.738-.004 1.738-5.914 8.246-9.832 15.469-7.527 19.832 2.801 5.301 13.664 8.063 31.989 7.656l-.102 1.465-.18.199z" class="D E"/><g class="F"><use xlink:href="#J"/><use xlink:href="#F" x="-540.1"/></g></g><g class="D"><g class="C"><path d="M318.76 82.332l-1.02 1.352c5.375 2.949 7.602 6.059 7.078 9.184-.09.539-1.727 6.262-5.375 17.355-2.496 1.723-4.355 3.269-5.582 4.629.141.152-.395.637-.234.77-.371 1.695 1.539 1.352 2.82.93.617-1.625 2.504-3.356 3.586-4.094.223-.148 1.02-.539 1.098-.793l5.602-17.391c1.691-5.402-1.973-9.227-7.973-11.941z"/><path d="M339.973 122.43l.207 1.09c1.562.359 2.902.453 4.016.27-1.863-1.813-3.246-2.199-4.223-1.359z" class="E"/></g><path transform="matrix(0 1 .99966 0 0 0)" d="M119.94 340.26c.219-.981.383-1.075.457-1.5.094-.551.055-1.309-.402-1.829-1.273-2.13 1.023-2.176 2.742-1.348 1.246.602 2.656.293 3.723-.281 1.262-.672 1.836-.528 2.176-.051l.602.93c.676.571.559 1.008-.324 1.09-.875 2.122-2.91 2.825-4.703 3.462-2.621.93-3.242 4.306-4.269-.473z" class="R"/><path d="M339.311 120.03c-1.848.656-2.055-.367-3.301-.316.488 2.828.988 4.293 3.941 2.777 1.625-.84 3.711.387 4.106 1.297.145.332 1.094-.359 1.441-1.117 1.449-3.168-3.707-3.523-6.188-2.641z" class="M"/></g><g class="F C"><g transform="scale(-.99998 -1)"><use xlink:href="#K"/><use xlink:href="#K" x="-6.94"/><path d="M-296.84-72.16c1.871 0 3.387-1.512 3.387-3.387s-1.516-3.387-3.387-3.387a3.39 3.39 0 0 0-3.391 3.387c0 1.875 1.52 3.387 3.391 3.387z"/><path d="M-303.24-73.383c1.871 0 3.391-1.519 3.391-3.391a3.39 3.39 0 0 0-3.391-3.387c-1.871 0-3.387 1.516-3.387 3.387a3.39 3.39 0 0 0 3.387 3.391z"/></g><g transform="scale(-.99997 -1)"><use xlink:href="#J" x="-19.01" y="-9.227"/><path d="M-339.5-87.16c1.883 0 3.406-1.523 3.406-3.402s-1.524-3.402-3.406-3.402c-1.875 0-3.402 1.523-3.402 3.402s1.527 3.402 3.402 3.402zm6.63 3.109a3.4 3.4 0 0 0 3.402-3.398c0-1.883-1.524-3.406-3.402-3.406s-3.402 1.523-3.402 3.406c0 1.875 1.524 3.398 3.402 3.398zm-16.98-12.316c1.883 0 3.406-1.523 3.406-3.402s-1.524-3.402-3.406-3.402a3.402 3.402 0 0 0 0 6.805z"/></g></g><g class="D"><g class="R"><path d="M331.667 133.71c-1.34-.406-3.434 2.555-3.93 2.504-.66-1.695.684-5.742 3.066-8.945 1.613-.527 1.762-1.566 2.094-3.977.102-.719 1.488-.223 1.512 1.004.027 1.313.129 2.043-.164 3.164-.117.445-.055.867.441 1.27-2.52 1-3.141 2.223-3.02 4.981z"/><path transform="matrix(0 1 .99969 0 0 0)" d="M123.33 332.97c.559.234 1.012.305 1.856.359.641.043 1.242-.195 1.773-.606s1.008-1.004 1.391-1.668c.238-.41.895-.883 1.641-1.254s1.578-.645 2.176-.66c1.969-.051 3.688-.438 4.027-1.34.223-.59.188-.824.082-1.282-.355.125-.852.078-1.348.399-.637.41-1.367.77-2.004.801-.5.027-.832.262-1.809.07-.637-.125-.875-.543-1.461-.469-1.137.145-3.312 1.039-3.312 2.356-.004 1.297-.141 1.907-1.856 2.575-.582.231-.863.528-1.156.719z" class="E"/></g><path transform="matrix(-.99836 -.15239 .15263 -1 0 0)" d="M-349.74-74.75c.389.214.835.345 1.252.434.705.158 1.426.091 2.079-.219 2.904-1.376 3.419-6.943-.112-7.721-.67.02-1.188.701-1.578 2.088-.434 1.816-.991 3.116-1.675 3.962-.388.684-.329 1.199.035 1.456z" class="W"/><path transform="matrix(-.99846 -.15241 .15263 -1 0 0)" d="M-348.22-75.338c3.098.688 4.401-5.194 1.507-5.831-1.555-.345-1.415 1.493-1.547 2.548-.173 1.425-2.936 2.627.04 3.283z" class="Q"/></g><path d="M335.87 129.255c-1.457-.566-3.457 2.824-1.633 3.594 1.23.52 2.207-.164 2.598-1.184.398-1.023.059-2.016-.965-2.41z" class="C L"/><g class="F C"><path d="M315.514 101.96a3.53 3.53 0 0 0-3.527 3.531 3.53 3.53 0 0 0 3.527 3.527c1.949 0 3.531-1.582 3.531-3.527s-1.582-3.531-3.531-3.531z"/><path d="M318.094 96.098a3.53 3.53 0 0 0-3.523 3.531c0 1.949 1.578 3.527 3.523 3.527a3.53 3.53 0 0 0 3.531-3.527c0-1.949-1.582-3.531-3.531-3.531zm-8.453-20.649c-1.879 0-3.402 1.523-3.402 3.402s1.523 3.402 3.402 3.402 3.402-1.523 3.402-3.402-1.523-3.402-3.402-3.402z"/><g transform="scale(-.99998 -1)"><path d="M-315.37-78.047c1.953 0 3.531-1.578 3.531-3.527s-1.578-3.527-3.531-3.527a3.53 3.53 0 0 0-3.527 3.527 3.53 3.53 0 0 0 3.527 3.527z"/><path d="M-319.58-83.031a3.53 3.53 0 0 0 3.527-3.531c0-1.949-1.578-3.527-3.527-3.527a3.53 3.53 0 0 0-3.531 3.527c0 1.949 1.582 3.531 3.531 3.531z"/><path d="M-320.26-89.312a3.53 3.53 0 0 0 3.527-3.527 3.53 3.53 0 0 0-3.527-3.531c-1.949 0-3.531 1.582-3.531 3.531s1.582 3.527 3.531 3.527z"/></g></g></g><path d="M337.18 127.59l-.379-.16c.855-1.184 1.039-2.312.715-3.445.727.898.547 2.313-.336 3.606" class="I"/><path d="M309.601 113.1c-.734.926-.645 1.148-1.043 1.414-.523.344-1.23.227-1.887-.023-2.691-1.023-2.695 1.102-1.914 3.535.383 1.18 1.531 2.461 2.043 3.465.5.98.395 1.719.617 1.969l2.199.324h.004l2.164.266c.316-.176.559-.875 1.445-1.644.895-.766 2.441-1.602 3.273-2.543 1.687-1.914 2.586-3.746-.07-3.684-.66.016-1.32-.102-1.617-.574-.23-.367-.055-.535-.281-1.609-.148-.707-.41-1.269-.746-1.676s-.836-.32-1.293-.406-.879-.355-1.391-.098-1.023.68-1.5 1.285z" class="B C D G"/><path d="M309.99 123.84l.441-.02a12.96 12.96 0 0 1 3.492-5.246c-1.559.867-3.082 2.981-3.934 5.266m-.759-.11l-.41-.129a11.01 11.01 0 0 0-.852-5.988c1.086 1.309 1.531 3.746 1.262 6.117" class="I"/><g class="B D G"><path d="M305.421 114.23c.098.781.199 1.625.594 2.375.59 1.129 2.039.695 3.59-.383.492-.34 1.238-.418 1.93-.297s1.32.434 1.594.887c.887 1.453 1.949 2.266 2.941 1.438.66-.551 1.109-1.258 1.527-1.914-.27-.113-.645-.172-1.16-.16-.66.016-1.32-.102-1.617-.574-.23-.367-.055-.531-.285-1.609-.148-.707-.406-1.266-.742-1.676s-.836-.316-1.293-.402-.879-.359-1.391-.105-1.023.684-1.504 1.289c-.734.926-.645 1.148-1.047 1.418-.52.34-1.227.219-1.883-.027-.508-.191-.922-.273-1.254-.258z" class="C"/><path d="M320.12 124.799c-.426-.516-.598-.402-.676-.727-.102-.422.148-1.082.473-1.707 1.293-2.516-.082-2.301-1.945-1.313-.473.25-1.023.699-1.566 1.16l-1.551 1.273c-.926.66-1.492.68-1.762.945l-.891 2.301-.004.004-.855 2.297c.063.285.59.363.988 1.094.391.711.699 2.008 1.176 2.633.703.918 1.34 1.465 1.84 1.375s.852-.812.984-2.41a2.79 2.79 0 0 1 .824-1.668c.32-.305.391-.176 1.188-.617.512-.289.949-.645 1.301-1.031.344-.379.398-.809.559-1.234s.434-.844.391-1.246c-.039-.41-.195-.797-.469-1.129z" class="O"/></g><path d="M311.95 127.52l-.121.52c.801.188 1.465.516 2.016.965s.996 1.027 1.344 1.723c-.121-.77-.508-1.457-1.07-2.008s-1.312-.969-2.168-1.199m.329-.921l.238-.512a8.27 8.27 0 0 0 2.598-.664c.836-.359 1.652-.855 2.465-1.469-.641.715-1.477 1.32-2.394 1.773-.922.461-1.934.766-2.906.871" class="I"/><g class="B D G"><path d="M320.35 120.74c-.551.203-.918.453-1.551.973-.484.395-.746.969-.84 1.621s-.023 1.402.16 2.137c.117.457-.023 1.238-.293 2.004s-.676 1.52-1.086 1.926c-1.355 1.348-2.305 2.773-1.93 3.652.25.578.437.727.824.988.16-.328.547-.625.68-1.18.164-.723.437-1.473.863-1.922.336-.348.406-.742 1.234-1.254.531-.328.984-.187 1.348-.629.703-.859 1.625-2.957.727-3.918-.891-.945-1.211-1.481-.457-3.106.254-.555.246-.957.32-1.293z" class="C E"/><path transform="matrix(.3224 -.9955 -1 -.32386 0 0)" d="M-28.632-305.91c-.342-.817-.179-.945-.456-1.229-.349-.363-1.022-.466-1.69-.463-2.629 0-1.948-1.382-.471-2.835.734-.724 2.225-1.365 3.061-1.966s1.014-1.161 1.325-1.299l2.292.216 2.35.266c.26.201.221.794.842 1.584.633.806 1.966 1.833 2.471 2.777 1.04 1.929 1.215 3.587-1.706 2.735-.705-.208-1.456-.313-1.962-.059-.397.196-.281.37-.953 1.06-.438.453-.921.769-1.416.95s-.946-.035-1.419-.114-.968-.015-1.351-.334c-.376-.316-.694-.751-.919-1.288z" class="X"/></g><path d="M305.64 125.58l.035-.477c-1.777-.484-3.152-1.5-4.277-2.988.633 1.59 2.332 2.902 4.242 3.465m-.18.83l-.16.453c-1.863.035-3.531.648-5.094 1.73 1.141-1.289 3.227-2.106 5.254-2.184" class="I"/><g class="G B"><path d="M297.45 131.465c.602-.184 1.262-.379 1.863-.84.926-.711.656-2.082-.137-3.496-.254-.453-.281-1.215-.152-1.961s.43-1.484.828-1.863c1.301-1.242 2.094-2.617 1.434-3.625-.441-.672-1.043-1.059-1.594-1.43-.117.344-.191.809-.207 1.406-.023.77-.16 1.551-.574 1.973-.324.332-.461.16-1.371.605-.59.289-1.062.668-1.402 1.102s-.27.949-.348 1.445-.297.973-.098 1.453a3.5 3.5 0 0 0 .988 1.332c.711.609.887.488 1.086.852.25.469.133 1.172-.082 1.836-.164.504-.238.902-.234 1.211z" class="D Y"/><g class="C D"><path d="M309.711 122.2c-2.234-.105-4.391 1.832-4.703 4.203s1.242 4.211 3.379 4.238c2.141.02 4.129-1.715 4.539-4.004s-.984-4.324-3.215-4.437z"/><path d="M309.531 123.36c-1.633-.07-3.195 1.332-3.437 3.066s.879 3.109 2.473 3.133c1.57.027 3.059-1.285 3.348-2.957.297-1.707-.75-3.172-2.383-3.242z"/></g><path d="M309.341 124.55c-1.02-.043-1.992.828-2.152 1.918s.547 1.961 1.547 1.98 1.938-.801 2.117-1.871-.488-1.992-1.512-2.027z" class="C L"/><path d="M322.57 164.62c1.109.168 1.695.863 1.656 1.574.039.715-.547 1.41-1.66 1.574a4.59 4.59 0 0 1-.848.148c-33.687 2.879-69.676 2.879-103.367 0a4.71 4.71 0 0 1-.848-.148c-1.109-.164-1.695-.859-1.656-1.574-.039-.711.547-1.406 1.656-1.574.254-.066.535-.117.848-.145 33.687-2.883 69.676-2.883 103.367 0 .316.027.598.078.852.145z" class="C D"/></g></g><path d="M231.26 166.845l12.914-.668 12.926-.395 12.934-.125 12.934.145 12.926.406 12.922.664m-77.556.082l12.914.668m51.719-.031l12.922-.664" class="B G J K R"/><path transform="matrix(0 .99807 1 0 0 0)" d="M168.74 175.52H321.8c27.389 0 52.257 10.613 70.28 27.734s29.193 40.75 29.193 66.777v.004c0 26.027-11.174 49.656-29.193 66.777s-42.891 27.734-70.284 27.734h-153.06z" stroke="#fff" stroke-width="1.334" class="B P"/><g class="G B"><g class="H"><g class="F"><g class="C"><path transform="matrix(0 .99791 1 0 0 0)" d="M413.43 270.9c-.137.816.035 2.207-.787 3.25-1.096 1.394-5.523.844-8.322.719-14.307-.645-38.389-1.231-72.21-1.957-.16-1.187-.078-2.059.047-2.871a9.41 9.41 0 0 1-.047-2.875l72.21-1.953c2.799-.125 7.226-.676 8.322.715.822 1.047.65 2.434.787 3.254z"/><path d="M279.852 412.16c-.828-.059-2.195.242-3.313-.484-1.484-.961-1.609-5.477-1.734-8.273l-4.312-71.867c1.172-.273 2.043-.266 2.863-.219l.391-.09c5.375 33.316 7.402 56.949 11.082 71.203.508 1.969 1.602 6.902-.098 8.504-.969.91-2.363.863-3.172 1.074z"/><path d="M290.371 410.66c-.832.016-2.164.434-3.344-.184-1.566-.824-1.504-5.336-2.203-8.043-3.68-14.258-5.707-37.898-11.082-71.223 1.141-.375 2.008-.449 2.832-.477l.117-.039c8.543 32.395 11.106 55.234 17.738 69.34.613 1.953 2.285 7.144.687 8.953-.883 1-2.277 1.078-3.059 1.359z"/></g><path transform="matrix(.28733 .9979 -1 .28794 0 0)" d="M457.44-169.53c-.13.791.214 2.284-.578 3.291-1.055 1.337-5.585.294-8.227.714-14.89 2.386-36.836-1.365-69.335-2.067-.156-1.142-.075-1.979.045-2.761-.119-.78-.319-.697-.165-1.844 32.499-.697 54.113 2.252 69.509-2.794 2.486-.817 6.945-.653 7.998.689.791 1.005.626 2.336.754 3.127z" class="Z"/><g class="C"><path d="M260.222 412.16c.828-.059 2.191.242 3.309-.484 1.488-.961 1.609-5.477 1.738-8.273l4.312-71.867c-1.172-.273-2.043-.266-2.867-.219l-.387-.09c-5.375 33.316-7.402 56.949-11.082 71.203-.512 1.969-1.602 6.902.098 8.504.969.91 2.363.863 3.168 1.074z"/><path d="M249.703 410.66c.832.016 2.164.434 3.34-.184 1.57-.824 1.508-5.336 2.207-8.043 3.68-14.258 5.707-37.898 11.082-71.223-1.141-.375-2.008-.449-2.832-.477l-.117-.039c-8.547 32.395-11.106 55.234-17.738 69.34-.613 1.953-2.289 7.144-.687 8.953.883 1 2.277 1.078 3.059 1.359z"/></g><path transform="matrix(-.28733 .9979 1 .28794 0 0)" d="M313.54 329.19c-.13.791.21 2.283-.581 3.29-1.055 1.337-5.585.294-8.227.714-14.89 2.386-36.836-1.365-69.336-2.063-.155-1.146-.075-1.979.045-2.76-.118-.784-.318-.701-.165-1.844 32.5-.701 54.115 2.248 69.51-2.797 2.485-.813 6.945-.653 7.998.689.791 1.005.626 2.336.754 3.127z" class="Z"/><path transform="matrix(-.45267 -.99325 1 -.45577 0 0)" d="M-431.77 99.917c.247-.642.296-1.76 1.22-2.53 1.225-1.024 5.246-.231 7.825.089 13.603-.565 35.556 3.24 66.652 7.253-.032.962-.24 1.645-.478 2.284-.007.657-.06 1.356-.391 2.292-31.104-3.24-52.468-8.047-67.242-4.141-2.44.646-6.802-.028-7.606-1.225-.606-.899-.239-1.991-.237-2.654z" class="a"/><path transform="matrix(-.30182 -.99916 1 -.30208 0 0)" d="M-432.56 156.24c.225-.694.217-1.88 1.128-2.722 1.214-1.118 5.408-.379 8.087-.098 13.687 1.424 36.786 3.396 69.233 6.095.02 1.022-.159 1.753-.37 2.439.026.703.009 1.444-.283 2.45-32.615-1.457-55.834-6.524-69.679-2.769-2.521.684-7.03.132-7.923-1.118-.676-.946-.35-2.113-.387-2.82z" class="b"/><path transform="matrix(-.15041 -.99831 1 -.15066 0 0)" d="M-419.09 215.03c.184-.726.097-1.962.976-2.865 1.175-1.198 5.519-.56 8.286-.351 14.123 1.054 37.923 2.387 71.358 4.182.086 1.064-.049 1.829-.224 2.548.074.73.102 1.504-.135 2.554-33.521-.499-57.7-1.495-71.6-.71-2.767.158-7.195.359-8.192-.916-.752-.957-.492-2.183-.577-2.919z" class="T"/><path transform="matrix(.45267 -.99325 -1 -.45577 0 0)" d="M-226.57-347.27c.249-.645.296-1.76 1.22-2.53 1.225-1.024 5.244-.235 7.822.087 13.606-.563 35.556 3.24 66.656 7.251-.029.963-.24 1.645-.476 2.288a6.64 6.64 0 0 1-.393 2.287c-31.107-3.241-52.472-8.046-67.243-4.138-2.438.642-6.801-.032-7.608-1.229-.606-.899-.236-1.989-.237-2.654z" class="a"/><path transform="matrix(.30182 -.99916 -1 -.30208 0 0)" d="M-282.93-338.67c.221-.691.213-1.881 1.124-2.723 1.214-1.118 5.412-.378 8.087-.098 13.69 1.425 36.785 3.399 69.233 6.095.023 1.023-.159 1.753-.371 2.443a7.14 7.14 0 0 1-.282 2.446c-32.615-1.457-55.834-6.524-69.679-2.769-2.521.684-7.031.136-7.923-1.118-.673-.941-.347-2.112-.387-2.82z" class="b"/><path transform="matrix(.15041 -.99831 -1 -.15066 0 0)" d="M-339.39-313.06c.183-.722.096-1.958.976-2.865 1.171-1.199 5.519-.557 8.286-.351 14.119 1.053 37.922 2.391 71.354 4.181.09 1.064-.05 1.832-.221 2.553.074.73.102 1.5-.135 2.554-33.521-.499-57.7-1.495-71.6-.71-2.77.154-7.195.359-8.192-.916-.751-.961-.496-2.184-.577-2.919z" class="T"/><path transform="matrix(0 .99304 1 0 0 0)" d="M388.99 270.81c-.138.738.039 1.988-.791 2.934-1.101 1.258-5.55.758-8.367.648-14.373-.582-38.573-1.109-72.564-1.762-.161-1.078-.079-1.859.047-2.594-.126-.734-.208-1.519-.047-2.594l72.564-1.762c2.817-.113 7.265-.609 8.367.648.83.945.653 2.195.791 2.934z" class="C"/><path transform="matrix(.25239 1 -.993 .25064 0 0)" d="M410.59-187.12c-.097.558.13 1.492-.619 2.219-.992.967-5.271.674-7.969.642-13.681 1.704-36.925.528-69.513.006-.205-.803-.163-1.391-.078-1.947-.151-.55-.274-1.136-.168-1.947 32.406-.123 55.298 1.943 69.343-2.662 2.318-.756 6.922-.593 8.034.331.837.697.729 1.641.895 2.195z" class="c"/><path transform="matrix(.16491 .99501 -1 .16573 0 0)" d="M403.25-216.37c-.109.56.106 1.506-.678 2.232-1.036.966-5.423.645-8.19.595l-71.299-.418c-.198-.814-.143-1.406-.046-1.965-.143-.555-.253-1.147-.128-1.963 33.347-.926 57.778 1.618 71.181-2.25 2.441-.703 7.112-.554 8.235.385.845.702.714 1.653.872 2.21z" class="d"/><path transform="matrix(.082042 .99884 -1 .082142 0 0)" d="M386.89-244.45c-.125.568.07 1.521-.732 2.245-1.069.971-5.483.617-8.273.548l-71.875-.881c-.183-.816-.11-1.415-.002-1.977-.134-.562-.23-1.156-.087-1.98l71.819-1.815c2.763-.211 7.179-.513 8.29.442.837.717.688 1.674.837 2.237z" class="N"/><path transform="matrix(-.25239 1 .993 .25064 0 0)" d="M282.43 324.19c-.093.559.133 1.497-.616 2.223-.995.963-5.273.67-7.972.637-13.682 1.707-36.925.528-69.511.011a4.51 4.51 0 0 1-.078-1.947c-.155-.551-.273-1.139-.167-1.95 32.406-.123 55.298 1.943 69.342-2.658 2.316-.761 6.918-.594 8.031.33.838.693.734 1.638.896 2.191z" class="c"/><path transform="matrix(-.16491 .99501 1 .16573 0 0)" d="M315.69 309.26c-.106.565.106 1.51-.674 2.233-1.04.965-5.423.645-8.19.595l-71.302-.419c-.198-.814-.139-1.406-.042-1.964-.147-.555-.256-1.148-.129-1.963 33.343-.923 57.778 1.618 71.181-2.25 2.441-.703 7.108-.554 8.232.381.844.709.713 1.657.872 2.214z" class="d"/><path transform="matrix(-.082042 .99884 1 .082142 0 0)" d="M342.78 292.01c-.125.564.07 1.521-.732 2.245-1.069.971-5.483.617-8.269.548l-71.882-.882c-.179-.819-.11-1.415.002-1.976-.138-.562-.233-1.16-.087-1.98l71.819-1.815c2.763-.211 7.179-.513 8.29.442.837.717.684 1.669.833 2.236z" class="N"/><path transform="matrix(0 1 .99988 0 0 0)" d="M366.65 270.67c-.137.566.035 1.524-.785 2.25-1.094.961-5.512.578-8.309.492l-72.055-1.352c-.164-.82-.082-1.422.043-1.985-.125-.563-.207-1.16-.043-1.985l72.055-1.348c2.797-.09 7.215-.473 8.309.492.82.723.648 1.68.785 2.25z" class="C"/></g><g class="D"><path transform="matrix(.12042 .99535 1 -.12098 0 0)" d="M352.36 188.11c-.139-1.788.617-4.094 5.396-11.142 5.37-3.475 10.773-6.973 15.253-11.438.714-1.426 1.199-2.535 1.416-3.624.231-1.133-1.014-9.148-1.378-9.303-2.582-2.228-1.423-6.25 1.138-5.262.824-1.103 4.543.664 3.325 2.592-1.123 1.768.804 7.227.35 9.177 1.604-.912 2.087-6.111 1.915-9.684-.254-3.251 3.014-3.425 5.663-2.393 1.155 1.4-.222.304.553.769 2.334 1.188 2.429 4.321.333 4.679-2.168.37-4.093 8.27-5.63 9.604 3.146-1.785 5.852-5.353 8.901-7.33 1.51-1.912 1.729-2.986 5.462-1.201.019 2.478-.618 2.699.996 4.032.039 3.386-.893 4.049-3.616 3.826-2.878-.235-7.668 2.713-9.008 3.667-1.236.875-2.587 1.218-3.33 2.014-1.295 1.387-3.475 7.508-2.502 8.891 1.786 2.551 1.16 4.731-1.448 5.393-.787-.796-4.466.319-4.858-1.548-.315-1.525.05-2.494 1.038-4.051 1.559-2.449 2.39-3.71 2.1-4.421-.695-1.678-2.507 3.497-7.822 8.649-7.366 7.137-11.434 8.057-14.246 8.102z" class="E Q"/><path transform="matrix(.15013 .99966 1 -.15019 0 0)" d="M376.71 136.23c-1.628-2.021-1.769-3.297-.935-4.301.46-.553.095-1.112-.686-.635-3.257 1.993-3.336 4.403-1.391 6.268l1.717 1.313c.471-.43.937-2.297 1.295-2.644z" class="S"/><path transform="matrix(.21494 1 -.99442 .21375 0 0)" d="M383.63-143.53c-1.066-2.65-.91-4.879.221-5.876.62-.545.411-1.266-.511-.865-3.861 1.672-4.629 4.44-3.196 6.965l1.358 1.853c.944-.558 2.174-1.966 2.128-2.078z" stroke-width=".65"/><path transform="matrix(-.9986 .15606 .15628 1 0 0)" d="M-144.65 395.59c1.885 2.62 2.95 4.45 2.562 6.073-.223.949.318 1.704 1.101.785 3.178-3.715 2.621-7.319-.11-9.401-.911-.694-1.829-1.089-2.667-1.568-.815 1.041-.98 3.985-.886 4.111z" class="S"/><path transform="matrix(.42431 .99781 1 -.42524 0 0)" d="M381.15 35.172c-.024-2.224.698-3.296 2.032-3.784.736-.266.803-.853-.145-.763-6.36-.032-6.342 2.793-4.67 6.173 1.018-.202 2.782-1.528 2.783-1.626z" class="e"/></g></g><g class="K"><path d="M-84.106-292.84c-.264 1.228.211 1.747.749 1.855 1.144.227 1.197-.545 1.283-2.006m.047.141c-.264 1.228.211 1.747.749 1.855 1.142.225 1.197-.545 1.283-2.006" transform="matrix(.91227 -1 -.99998 -.91229 0 0)" stroke-width=".493"/><path transform="matrix(0 -1 -.99656 0 0 0)" d="M-347.23-220.91c1.109 1.627 2.344 1.725 3.176 1.297 1.754-.902.91-1.811-.711-3.512" class="O"/><path transform="matrix(0 -1 -.99509 0 0 0)" d="M-344.76-223.55c1.258 1.727 2.648 1.833 3.59 1.378 1.984-.958 1.027-1.927-.805-3.737" class="f"/><path transform="matrix(0 -1 -.99883 0 0 0)" d="M-342.14-225.14c1.332 1.603 2.652 2.104 3.813 1.373 1.816-1.146 1.09-1.92-.855-3.723" class="g"/></g><g class="H"><path transform="matrix(-.99998 -.19529 -.19528 1 0 0)" d="M-275.11 146.01c.918 1.179 4.565 1.907 9.5 3.203 7.997 1.855 13.133.338 15.173-4.607-3.727 3.003-7.676 4.079-11.572 2.268-5.253-2.444-8.223-4.04-9.531-4.045-.905.136-2.443 1.429-3.571 3.182z" stroke-width=".655" class="D E"/><g class="F C"><path d="M265.942 313.66l-.094 7.836-.023.008-5.973 1.238c-.016 2.723 6.719 31.211 10.188 31.211s10.199-28.508 10.188-31.23l-5.973-1.219-.023-.008-.094-7.836c-1.254 1.043-2.641 2.856-4.098 4.496-1.461-1.641-2.844-3.453-4.098-4.496z"/><g transform="matrix(.015468 1 .99997 -.015468 0 0)" class="E"><path d="M329.69 253.93l-3.109-5.304c1.578-2.274 7.547-4.035 12.504-.264 6.178 4.701 10.633 6.574 15.591 7.669-4.41 3.56-9.085 4.836-13.701 2.689-6.224-2.892-9.738-4.787-11.285-4.79z"/><path d="M325.48 258.37l-3.109-5.304c1.578-2.278 7.313-7.07 12.269-3.299 6.174 4.702 10.867 9.61 15.826 10.705-4.41 3.56-9.081 5.121-13.696 2.974-6.221-2.892-9.739-5.072-11.289-5.075z"/></g><path d="M281.051 325.754l5.352-3.027c2.254 1.617 3.918 7.613.07 12.512-4.793 6.105-6.738 10.527-7.91 15.472-3.492-4.465-4.691-9.164-2.473-13.743 2.988-6.18 4.934-9.664 4.961-11.215z" class="E"/><path d="M276.676 321.476l5.355-3.023c2.25 1.613 6.957 7.418 3.109 12.316-4.797 6.105-9.777 10.722-10.954 15.664-3.488-4.465-4.977-9.16-2.758-13.742 2.988-6.18 5.223-9.664 5.246-11.215z" class="E"/><path transform="matrix(.015468 1 .99997 -.015468 0 0)" d="M323.13 246.59l-3.109-5.304c1.582-2.274 7.551-4.035 12.508-.26 6.178 4.697 10.633 6.574 15.591 7.669-4.41 3.557-9.089 4.832-13.701 2.685-6.224-2.896-9.738-4.787-11.289-4.79z" class="E"/><path d="M288.492 319.308l5.355-3.027c2.25 1.617 3.914 7.609.066 12.512-4.797 6.105-6.738 10.527-7.91 15.468-3.488-4.461-4.691-9.16-2.473-13.743 2.988-6.18 4.937-9.664 4.961-11.211z" class="E"/><g transform="matrix(0 .99513 1 0 0 0)"><path d="M264.2 226.8c4.911.102 37.66-.766 42.288-1.039 4.608-.27 7.749-2.305 9.55-4.477-2.744-1.988-6.445-3.176-10.842-3.457-2.238-.148-33.228.266-39.599.438-9.707 3.656-10.076 6.367-1.397 8.535z"/><path d="M256.19 205.58l45.028-1.383c3.996-.437 27.764 4.746 32.455 7.578-3.011 7.016-19.136 8.496-34.849 7.176s-29.287.223-32.109 1.293c-3.556.094-7.266-.5-10.967-.535.271-4.469.173-9.66.444-14.129z"/><path d="M263.55 197.27l45.043.949c4.012-.227 27.466 6.184 31.988 9.258-5.535 7.113-28.18 5.684-35.03 4.594-13.652-2.172-29.468-1.805-32.035-1.055l-11.509-.41 1.543-13.336z"/><path d="M274.22 191.1l-.302 11.797c4.914-1.004 20.176-.203 31.807 1.832 10.909 1.91 39.195 4.574 45.986-6.746-14.924-7.016-29.428-1.672-42.39-5.211-13.774-2.762-25.275-3.305-35.101-1.672zm-18.29 45.1c4.914-.047 37.621-1.902 42.237-2.312 4.597-.414 7.67-2.543 9.397-4.766-2.803-1.906-6.54-2.981-10.94-3.133-2.245-.074-33.208 1.273-39.572 1.637-9.586 3.945-9.868 6.668-1.123 8.574zm-26.68-20.96c10.547-.316 33.444-.496 35.387-.43 4.4.148 9.998 1.879 12.805 3.785-1.727 2.223-4.801 4.348-9.401 4.762-3.776.336-22.339.457-31.642.512-1.535-2.375-3.454-4.832-5.499-6.812l-1.649-1.816z"/><path d="M236.05 223.66c11.368-.211 29.275-.086 30.728-.035 4.4.148 8.141 1.223 10.948 3.129-1.731 2.223-4.914 4.57-9.511 4.981-2.83.254-14.963 1.039-24.278 1.109-.95-2.988-5.868-6.762-7.886-9.184zm-7.75-7.25l-11.615-8.031c5.731-1.621 46.833-3.602 50.201-1.277 4.4.148 8.125 1.731 10.932 3.637-1.731 2.223-4.844 5.543-9.495 4.582s-35.226.117-40.023 1.09z"/><path d="M254.15 199.95c6.359-.363 10.665-.621 12.907-.543 4.4.148 8.141 1.223 10.948 3.129-1.731 2.223-4.797 5.055-9.405 4.762-17.798-1.121-34.563.82-50.68 3.078-1.405-1.906-2.917-5.117-4.322-7.023 21.703-3.809 35.175-5.082 40.553-3.402z"/><path d="M265.8 191.91l8.279 2.18c4.4.148 8.035 2.859 10.842 4.762-1.735 2.223-4.577 4.242-9.154 3.676-26.292-3.258-43.685-2.094-65.11 3.402 8.514-12.43 26.473-18.191 55.143-14.02z" class="E"/><path d="M273.94 192.55l-3.8-11.406c11.442-1.449 25.813.781 44.765 3.856 16.271 2.637 29.15 1.25 37.413-.766-1.672 12.168-17.413 17.312-47.018 11.211-7.749-1.598-17.652-3.203-31.36-2.894z"/></g></g></g><path d="M192.204 327.71c.266-7.543-1-15.777-2.434-22.715-1.973-9.512-2.984-18.629-3.047-28.207" class="C J K"/><g class="H"><g class="F"><g transform="matrix(0 .99513 -1 0 0 0)" class="C"><path d="M206.63-192.1l1.264-7.484c1.609.367 11.493 2.266 13.177 2.613 13.735 2.797 29.919 4.644 47.67 2.527 6.587-.785 11.972-2.176 16.137-4.219-.938 8.211-8.981 13.473-23.01 12.793-16.388 1.43-29.421.801-39.218-1.844-2.873-.773-13.699-3.266-16.019-4.387z" class="E"/><path d="M208.41-187.56l4.208-3.676c.75 1.043 3.976-.727 10.245.227 3.556.613 7.753 2.727 12.294 3.16 15.046 1.449 33.888 1.453 45.935-3.055-.938 8.211-8.404 11.031-22.449 11.297-11.615.219-25.307.258-41.114-2.648-3.694-.59-6.642-2.359-9.119-5.305z"/></g><path transform="matrix(-.5338 .99821 1 .53476 0 0)" d="M83.473 252.63l2.469-6.26c6.153 1.89 10.536 3.167 12.629 4.023 4.107 1.684 7.043 4.771 8.98 7.54-2.477 1.475-5.88.955-10.381-.272-4.522-1.238-9.037-3.351-13.698-5.031z" class="h"/><path transform="matrix(.065139 .99756 1 -.065297 0 0)" d="M248.95 211.52l-.368-6.703c6.146-.631 10.303-1.066 12.482-1.098 4.272-.063 7.948.764 10.765 2.404-1.563 2.145-4.435 4.266-8.868 4.859-4.452.595-9.255.271-14.011.538z" class="N"/><path transform="matrix(.10014 .99756 1 -.10039 0 0)" d="M259.33 209.01l-.364-6.686c6.128-.625 10.274-1.064 12.444-1.094 4.258-.063 7.928.761 10.736 2.398-1.563 2.137-4.42 4.251-8.84 4.846-4.443.593-9.23.268-13.976.536z" class="i"/><g class="C"><path transform="matrix(-.015891 .99757 1 .015934 0 0)" d="M228.04 224.51l-.367-6.713c6.158-.633 10.323-1.07 12.505-1.106 4.281-.061 7.964.767 10.789 2.41-1.569 2.151-4.442 4.273-8.884 4.87-4.462.597-9.277.271-14.043.539z"/><path transform="matrix(-.032588 .99785 1 .032658 0 0)" d="M217.06 221.67l-2.814-7.451c5.015-1.087 21.44-2.25 28.255.987-1.742 2.392-4.947 4.761-9.898 5.424-4.97.666-10.234.741-15.544 1.04z"/></g><path transform="matrix(-.082693 1 .99547 .082318 0 0)" d="M197.43 222.2l2.002-11.649c6.915-2.145 12.993-3.422 18.441-3.836-1.406 5.361-4.388 9.084-9.355 10.096-6.698 1.366-9.85 4.487-11.088 5.389zm0 0" class="E J O"/></g><g class="D"><g class="j"><path d="M216.79 393.643c4.492 3.594 8.602-4.625 4.617-15.492-2.945-8.039-17.352-4.918-9.328 5.898.379.512.918.27.84-.312-.453-2.219.961-3.504 3.144-3.098 5.969 1.117 6.156 12.426-.332 9.852-1.187-.074-.125 2.203 1.059 3.152zm14.74 0c-4.492 3.594-8.602-4.625-4.617-15.492 2.949-8.039 17.352-4.918 9.328 5.898-.383.512-.914.27-.84-.312.457-2.219-.961-3.504-3.144-3.098-5.965 1.117-6.152 12.426.332 9.852 1.184-.074.125 2.203-1.059 3.152z"/><path d="M223.73 358.726l-.004.074c-.586 1.887-2.769 4.242-4.465 6.012-2.633 2.742-2.012 6.894-.187 9.102 1.984 2.406 2.871 5.117 3.269 7.227.301 1.297.832 4.207.445 8.731-.191 2.227-1.539 3.375-2.805 4.371-.641.508.273 1.719 2.394 3.312.234.172.871.609 1.176 1.711.117.266 1.102.266 1.219 0 .305-1.102.941-1.539 1.176-1.711 2.121-1.594 3.035-2.805 2.394-3.312-1.266-.996-2.613-2.145-2.805-4.371-.387-4.523.148-7.434.441-8.731.402-2.109 1.289-4.82 3.277-7.227 1.82-2.207 2.445-6.359-.187-9.102-1.699-1.77-3.883-4.125-4.469-6.012v-.074c-.031-.367-.234-.551-.437-.551s-.406.184-.434.551z"/></g><path transform="matrix(0 .84 1 0 0 0)" d="M458.1 220.92v6.492c0 1.117 1.07 2.031 2.372 2.031s2.372-.914 2.372-2.031v-6.492c0-1.117-1.065-2.031-2.372-2.031s-2.372.914-2.372 2.031z" class="C"/><g class="j"><path d="M308.54 393.643c4.488 3.594 8.598-4.625 4.617-15.492-2.949-8.039-17.355-4.918-9.332 5.898.383.512.918.27.844-.312-.457-2.219.961-3.504 3.141-3.098 5.969 1.117 6.156 12.426-.332 9.852-1.184-.074-.125 2.203 1.063 3.152zm14.74 0c-4.492 3.594-8.602-4.625-4.617-15.492 2.945-8.039 17.352-4.918 9.328 5.898-.379.512-.914.27-.84-.312.457-2.219-.961-3.504-3.144-3.098-5.965 1.117-6.152 12.426.336 9.852 1.184-.074.121 2.203-1.062 3.152z"/><path d="M315.47 358.726l-.004.074c-.586 1.887-2.769 4.242-4.465 6.012-2.633 2.742-2.012 6.894-.187 9.102 1.984 2.406 2.875 5.117 3.269 7.227.301 1.297.832 4.207.445 8.731-.191 2.227-1.539 3.375-2.805 4.371-.641.508.273 1.719 2.394 3.312.234.172.871.609 1.176 1.711.117.266 1.102.266 1.219 0 .305-1.102.945-1.539 1.176-1.711 2.121-1.594 3.035-2.805 2.394-3.312-1.262-.996-2.613-2.145-2.805-4.371-.387-4.523.148-7.434.445-8.731.398-2.109 1.285-4.82 3.273-7.227 1.82-2.207 2.441-6.359-.187-9.102-1.699-1.77-3.883-4.125-4.469-6.012v-.074c-.031-.367-.234-.551-.437-.551s-.406.184-.434.551z"/></g><path transform="matrix(0 .84 1 0 0 0)" d="M458.1 312.67v6.492c0 1.117 1.07 2.027 2.372 2.027s2.372-.91 2.372-2.027v-6.492c0-1.117-1.065-2.031-2.372-2.031s-2.372.914-2.372 2.031z" class="C"/></g><g transform="matrix(0 .99513 -1 0 0 0)" class="C F"><path d="M264.2-313.28c4.911.102 37.66-.762 42.288-1.035 4.608-.273 7.749-2.309 9.55-4.481-2.744-1.988-6.445-3.176-10.842-3.457-2.238-.145-33.228.266-39.599.438-9.707 3.656-10.076 6.367-1.397 8.535z"/><path d="M256.19-334.5l45.028-1.387c3.996-.437 27.764 4.75 32.455 7.582-3.011 7.016-19.136 8.496-34.849 7.176s-29.287.219-32.109 1.289c-3.556.094-7.266-.5-10.967-.535.271-4.469.173-9.66.444-14.125z"/><path d="M263.55-342.81l45.043.953c4.012-.23 27.466 6.184 31.988 9.254-5.535 7.113-28.18 5.684-35.03 4.594-13.652-2.172-29.468-1.805-32.035-1.055l-11.509-.406 1.543-13.34z"/><path d="M274.22-348.98l-.302 11.793c4.914-1.004 20.176-.199 31.807 1.836 10.909 1.906 39.195 4.57 45.986-6.746-14.924-7.019-29.428-1.676-42.39-5.215-13.774-2.758-25.279-3.305-35.101-1.668zm-18.29 45.1c4.914-.043 37.621-1.902 42.237-2.312 4.597-.414 7.67-2.543 9.397-4.766-2.803-1.906-6.54-2.981-10.94-3.129-2.245-.078-33.208 1.269-39.572 1.633-9.586 3.945-9.868 6.668-1.123 8.574zm-26.68-20.96c10.547-.316 33.444-.496 35.387-.43 4.4.152 9.998 1.879 12.805 3.785-1.727 2.223-4.801 4.352-9.401 4.762-3.776.336-22.339.457-31.642.516-1.535-2.379-3.454-4.832-5.499-6.812l-1.649-1.82z"/><path d="M236.05-316.41c11.368-.207 29.275-.086 30.728-.035 4.4.148 8.141 1.223 10.948 3.129-1.731 2.223-4.914 4.57-9.511 4.981-2.83.254-14.963 1.039-24.278 1.113-.95-2.988-5.868-6.766-7.886-9.187zm-7.75-7.25l-11.615-8.027c5.731-1.625 46.833-3.606 50.201-1.281 4.4.148 8.125 1.734 10.932 3.641-1.731 2.223-4.844 5.539-9.495 4.578s-35.226.117-40.023 1.09z"/><path d="M254.15-340.13c6.359-.359 10.665-.621 12.907-.543 4.4.148 8.141 1.223 10.948 3.129-1.731 2.223-4.797 5.055-9.405 4.766-17.798-1.121-34.563.816-50.68 3.074-1.405-1.906-2.917-5.117-4.322-7.023 21.703-3.809 35.175-5.082 40.553-3.402z"/><path d="M265.8-348.16l8.279 2.18c4.4.152 8.035 2.859 10.842 4.762-1.735 2.227-4.577 4.242-9.154 3.676-26.292-3.258-43.685-2.094-65.11 3.406 8.514-12.434 26.473-18.195 55.143-14.023z" class="E"/><path d="M273.94-347.52l-3.8-11.406c11.442-1.453 25.813.781 44.765 3.852 16.271 2.637 29.15 1.25 37.413-.766-1.672 12.168-17.413 17.312-47.018 11.211-7.749-1.594-17.652-3.199-31.36-2.891z"/></g></g><path d="M347.87 327.71c-.266-7.543.996-15.777 2.434-22.715 1.969-9.512 2.984-18.629 3.047-28.207" class="C J K"/><g class="H"><g class="F"><g transform="matrix(0 .99513 1 0 0 0)" class="C"><path d="M206.63 347.98l1.264-7.488c1.609.371 11.493 2.269 13.177 2.613 13.735 2.801 29.919 4.648 47.67 2.531 6.587-.785 11.972-2.18 16.137-4.219-.938 8.211-8.981 13.473-23.01 12.793-16.388 1.426-29.421.801-39.218-1.844-2.873-.773-13.699-3.266-16.019-4.387z" class="E"/><path d="M208.41 352.52l4.208-3.68c.75 1.047 3.976-.723 10.245.227 3.556.617 7.753 2.727 12.294 3.164 15.046 1.449 33.888 1.453 45.935-3.055-.938 8.211-8.404 11.031-22.449 11.297-11.615.219-25.307.258-41.114-2.648-3.694-.59-6.642-2.359-9.119-5.305z"/></g><path transform="matrix(.5338 .99821 -1 .53476 0 0)" d="M308.46-167.35l2.469-6.26c6.153 1.89 10.536 3.167 12.631 4.027 4.104 1.683 7.042 4.767 8.979 7.535-2.477 1.475-5.88.955-10.381-.272-4.524-1.235-9.037-3.351-13.698-5.031z" class="h"/><path transform="matrix(-.065139 .99756 -1 -.065297 0 0)" d="M213.74-326.26l-.368-6.703c6.146-.631 10.303-1.07 12.478-1.102 4.272-.063 7.948.764 10.769 2.404-1.563 2.145-4.435 4.265-8.868 4.859-4.452.595-9.255.271-14.01.542z" class="N"/><path transform="matrix(-.10014 .99756 -1 -.10039 0 0)" d="M205.52-325.68l-.367-6.686c6.128-.625 10.274-1.06 12.448-1.094 4.254-.063 7.924.761 10.732 2.398-1.558 2.14-4.42 4.251-8.84 4.846-4.44.593-9.23.268-13.972.536z" class="i"/><g class="C"><path transform="matrix(.015891 .99757 -1 .015934 0 0)" d="M236.66-315.43l-.37-6.717c6.162-.629 10.327-1.07 12.509-1.102 4.277-.065 7.964.767 10.789 2.41-1.569 2.147-4.442 4.273-8.884 4.867-4.462.601-9.277.274-14.043.542z"/><path transform="matrix(.032588 .99785 -1 .032658 0 0)" d="M234.71-317.83l-2.814-7.451c5.015-1.091 21.44-2.25 28.255.983-1.742 2.396-4.947 4.761-9.898 5.428-4.97.662-10.238.741-15.544 1.04z"/></g><g class="E"><path transform="matrix(.082693 1 -.99547 .082318 0 0)" d="M241.78-316.65l2.005-11.645c6.911-2.149 12.989-3.426 18.437-3.84-1.403 5.365-4.389 9.088-9.351 10.101-6.702 1.366-9.853 4.483-11.092 5.385zm0 0" class="J O"/><path d="M300.621 232.45a21.73 21.73 0 0 0 2.738-.77c-4.305-2.695-7.871-5.957-12.118-12.457-4.344-6.66 1.906-18.555 4.469-24.863 5.359-3.961 10.407-9.785 12.012-17.461.633-4.129-10.77-2.637-18.613 1.063-9.586 4.523-10.891 3.269-14.309 4.031-1.219 5.871 1.328 6.363 3.773 6.078-5.281 8.461-7.484 16.883-8.539 28.996-1.055-12.113-3.258-20.535-8.539-28.996 2.445.285 4.988-.207 3.773-6.078-3.418-.762-4.723.492-14.313-4.031-7.84-3.699-19.246-5.191-18.609-1.062 1.605 7.676 6.652 13.5 12.008 17.461 2.566 6.309 8.816 18.203 4.473 24.863-4.246 6.5-7.816 9.762-12.121 12.457a22.1 22.1 0 0 0 2.738.77c-.648.887-6.23 2.625-6.887 2.164-4.269-3.019-8.434-10.109-12.067-14.227-10.289-11.664-15.426-20.664-13.61-27.926 2.586-7.82 11.805-16.598-.41-15.078s-22.336 18.258-25.586 38.398c-1.207 7.473-1.906 13.727-2.723 18.848 6.668-2.379 9.621-4.746 11.391-7.672-.793 2.781-1.391 5.418-1.793 7.934 5.453-.965 9.41-3.641 10.828-8.523.57-1.977 1.277-3.621 2.008-4.984 1.68.594 3.852.559 6.492-.086 1.004 2.391 8.52 10.754 12.555 16.898 4.559 6.938 11.41 12.238 13.664 12.531 1.133.145 1.48-2.359 1.23-5.812l35.496-.242c11.676.395 23.582.324 35.496.242-.25 3.453.098 5.957 1.227 5.813 2.258-.293 9.109-5.594 13.664-12.531 4.039-6.144 11.555-14.508 12.555-16.898 2.645.645 4.816.68 6.492.086.734 1.363 1.437 3.008 2.012 4.984 1.418 4.883 5.375 7.559 10.828 8.523-.402-2.516-1-5.152-1.797-7.934 1.773 2.926 4.727 5.293 11.391 7.672l-2.719-18.848c-3.25-20.141-13.375-36.883-25.59-38.398s-2.992 7.258-.406 15.078c1.816 7.262-3.32 16.262-13.61 27.926-3.637 4.117-7.797 11.207-12.071 14.227-.652.461-6.234-1.277-6.887-2.164z" class="C"/></g></g><g class="D"><path d="M293.486 199.727c1.148 1.004 4.937 1.02 10.125 1.352 8.359.289 13.199-2.23 14.273-7.574-3.137 3.734-6.875 5.582-11.129 4.531-5.731-1.418-9.012-2.437-10.32-2.184-.879.312-2.164 1.902-2.949 3.875z" class="C E"/><path d="M313.04 177.77c9.371 1.012 8.922 7.137.16 15.789-1.676 1.656-2.254 1.605-2.609-.117-.625-3.008-3.961-4.785-5.711-2.492-1.191 1.559-.926 2.453-4.894 1.898-5.012 4.199-9.094 7.152-2.531 6.91 2.883-.109 5.106 1.57 8.867 1.422-1.113 2.156-1.312 2.406-1.914 2.59-3.644.719-7.484-1.555-11.16-.879-8.059 1.484 12.906-21.75 12.648-22.672-.664-2.336 5.039-6.527 7.144-2.449z" class="U"/></g></g><path d="M312.82 177.566c-.777 2.207-2.258 4.231-4.445 6.078" class="J K U"/></g><path d="M314.82 182.06c-.059-.418-.457-.727-.887-.68a.74.74 0 0 0-.672.848c.059.418.457.727.887.68a.74.74 0 0 0 .672-.848" class="H I"/><g class="G K B"><g class="J"><path transform="matrix(.99998 .25807 .25806 -1 0 0)" d="M263.67-112.07c2.327.733 5.01.324 8.442-.001.966-.095 4.351-.51 5.248-.126" stroke-width=".861"/><path transform="matrix(-.99997 -.32891 -.3289 1 0 0)" d="M-291.93 92.081l5.329.593" stroke-width=".633"/></g><path transform="matrix(.81664 1 .99997 -.81667 0 0)" d="M224.15 53.693c1.679-.312 3.868-.846 5.706-.121 1.383.546 1.408 2.389.549 4.45" stroke-width=".689"/></g><path d="M240.39 185.17l-1.234-1.234c-.602-.762-.254-1.773 1.047-3.039l2.469 1.043c-.504 1.711-1.266 2.789-2.281 3.231" class="H I"/><path d="M303.338 180.3c-1.059 1.934-2.309 4.559-4.535 5.805-1.676.941-3.539-.543-4.898-3.082" stroke-width=".89" class="B G K"/><path d="M299.68 185.17l1.234-1.234c.605-.762.258-1.773-1.043-3.039l-2.469 1.043c.504 1.711 1.266 2.789 2.277 3.231" class="H I"/><g class="G B"><g class="K J"><path d="M305.339 180.116c-2.516-.137-5.094.969-8.437 2.18-.945.34-4.219 1.629-5.219 1.48" stroke-width=".889"/><path d="M278.432 188.101l5.527-1.156" class="M"/><g class="C E"><path d="M236.713 231.68c5.348 1.875 10.184 1.504 13.809-2.066l1.633-1.613"/><path d="M252.802 224.74c-.496 3.606-1.418 6.481-2.691 9.336 3.769-.98 6.75-2.707 8.57-5.309m11.291 7.033c-2.941-3.57-4.75-7.699-4.953-12.328m-7.087.738c.332 3.609 1.363 6.695 3.039 9.086 1.812-1.371 3.57-3.613 4.375-6.824"/></g><g transform="scale(-.99997 -1)" class="C E"><path d="M-303.37-231.68c5.348-1.875 10.18-1.504 13.809 2.066l1.629 1.613"/><path d="M-287.28-224.74c-.496-3.606-1.422-6.481-2.695-9.336 3.774.98 6.75 2.707 8.57 5.309m-.735 4.557c.328-3.609 1.359-6.695 3.035-9.086 1.817 1.371 3.57 3.613 4.375 6.824m4.62-9.328c-2.942 3.57-4.75 7.699-4.953 12.328"/></g><g class="C"><path transform="matrix(0 .99513 -1 0 0 0)" d="M204.25-200.44c3.042 4.238 25.063 12.051 31.525 12.652 14.944 1.391 33.44 1.332 45.322-3.113"/><path transform="matrix(0 .99513 1 0 0 0)" d="M204.25 339.63c3.042 4.242 25.063 12.055 31.525 12.656 14.944 1.387 33.44 1.332 45.322-3.113"/></g></g><g class="U"><path d="M227.04 177.77c-9.375 1.012-8.926 7.137-.164 15.789 1.676 1.656 2.254 1.605 2.609-.117.625-3.008 3.961-4.785 5.711-2.492 1.191 1.559.926 2.453 4.894 1.898 5.016 4.199 9.098 7.152 2.535 6.91-2.887-.109-5.113 1.57-8.871 1.422 1.113 2.156 1.313 2.406 1.914 2.59 3.644.719 7.484-1.555 11.164-.879 8.059 1.484-12.91-21.75-12.652-22.672.664-2.336-5.039-6.527-7.141-2.449z" class="D E H"/><path d="M227.26 177.566c.773 2.207 2.258 4.231 4.441 6.078" class="J K"/></g></g><path d="M225.26 182.06a.82.82 0 0 1 .891-.68.74.74 0 0 1 .672.848c-.059.418-.457.727-.887.68s-.734-.422-.676-.848" class="H I"/><g class="G B"><g class="H"><g class="F"><path transform="matrix(-.99998 .5396 .53958 1 0 0)" d="M-44.94 349.21l-2.734-4.669c1.39-2 6.643-3.55 11.005-.231 5.44 4.139 9.362 5.788 13.725 6.75-3.883 3.134-7.998 4.253-12.059 2.366-5.48-2.547-8.57-4.212-9.936-4.217z" stroke-width=".587" class="E"/><path transform="matrix(-.47247 1 .99997 .47249 0 0)" d="M174.43 320.31l.282-6.516c5.591-.085 9.37-.155 11.333-.001 3.847.306 7.083 1.421 9.47 3.248-1.608 1.94-4.383 3.746-8.426 3.945-4.061.195-8.352-.528-12.657-.676z" stroke-width=".603"/><path transform="matrix(-.19727 1 .99998 .19727 0 0)" d="M268.03 292.69l.305-7.069c6.065-.093 10.17-.17 12.297 0 4.178.328 7.685 1.536 10.275 3.519-1.74 2.11-4.755 4.066-9.142 4.283-4.409.212-9.067-.574-13.734-.733z" stroke-width=".654"/><path d="M240.862 316.077l4.25-.031c2.484 1.23 5.09 6.879 2.078 12.332-3.754 6.797-4.961 11.48-5.324 16.543-4.16-3.848-6.102-8.289-4.648-13.168 1.961-6.578 3.867-14.14 3.645-15.676z" class="C E"/><path transform="matrix(-.40408 1 .99997 .4041 0 0)" d="M184.83 317.46l.289-6.68c5.73-.087 9.607-.157 11.621 0 3.949.31 7.262 1.45 9.707 3.325-1.641 1.993-4.305 4.284-8.452 4.483-4.164.204-8.75-.977-13.165-1.128z" stroke-width=".618"/><path transform="matrix(-.99997 .84188 .84187 1 0 0)" d="M12.565 297.8l-3.679-6.137c.707-1.021 3.72.095 5.958.34.515.059 1.057.063 1.594.213a10.1 10.1 0 0 1 3.334 1.673c4.728 3.598 8.119 4.684 11.911 5.523-3.375 2.724-6.951 3.696-10.481 2.055-4.764-2.216-7.45-3.662-8.637-3.666z" stroke-width=".51" class="E"/></g><g class="D"><path transform="matrix(-.12042 .99535 -1 -.12098 0 0)" d="M287.66-344.17c-.143-1.788.616-4.098 5.396-11.142 5.37-3.475 10.769-6.973 15.25-11.438.714-1.426 1.199-2.535 1.42-3.624.231-1.137-1.018-9.147-1.378-9.303-2.582-2.228-1.423-6.25 1.138-5.266.824-1.103 4.543.664 3.321 2.592-1.119 1.772.804 7.227.351 9.18 1.604-.912 2.087-6.111 1.915-9.684-.254-3.255 3.017-3.43 5.663-2.393 1.155 1.4-.219.3.556.765 2.335 1.192 2.429 4.325.334 4.683-2.168.37-4.093 8.27-5.63 9.604 3.146-1.785 5.848-5.353 8.901-7.33 1.51-1.912 1.729-2.986 5.462-1.201.014 2.475-.618 2.699.992 4.029.039 3.39-.889 4.048-3.612 3.829-2.878-.235-7.668 2.712-9.008 3.667-1.236.875-2.587 1.218-3.334 2.015-1.291 1.386-3.471 7.508-2.498 8.891 1.785 2.547 1.16 4.731-1.448 5.393-.787-.796-4.471.316-4.858-1.548-.315-1.525.05-2.498 1.038-4.051 1.555-2.449 2.39-3.71 2.096-4.42-.691-1.678-2.503 3.497-7.818 8.649-7.366 7.137-11.434 8.053-14.246 8.102z" class="E Q"/><path d="M347.296 356.134c2.262-1.328 3.566-1.273 4.441-.289.484.543 1.098.262.738-.59-1.504-3.555-3.906-3.996-6.059-2.332l-1.57 1.516c.359.535 2.16 1.285 2.449 1.695z" class="M"/><path transform="matrix(-.21494 1 .99442 .21375 0 0)" d="M272.66 375.59c-1.063-2.646-.907-4.875.224-5.871.621-.549.411-1.266-.511-.865-3.86 1.668-4.632 4.439-3.196 6.965l1.355 1.848c.946-.554 2.177-1.961 2.128-2.078z" stroke-width=".65"/><path transform="matrix(.9986 .15606 -.15628 1 0 0)" d="M383.3 313.2c1.884 2.616 2.949 4.446 2.565 6.068-.227.949.314 1.705 1.097.786 3.178-3.715 2.625-7.32-.106-9.401-.914-.693-1.833-1.089-2.667-1.568-.819 1.042-.98 3.985-.889 4.115z" class="S"/><path transform="matrix(-.42431 .99781 -1 -.42524 0 0)" d="M186.22-422.2c-.019-2.222.698-3.296 2.033-3.781.735-.269.802-.856-.146-.766-6.356-.033-6.342 2.793-4.67 6.173 1.019-.198 2.782-1.528 2.783-1.626z" class="e"/></g></g><g class="K"><path d="M323.965 351.254c1.469-.852 1.559-1.801 1.172-2.437-.816-1.352-1.637-.699-3.176.547m.104-.169c1.469-.856 1.559-1.805 1.176-2.441-.82-1.348-1.641-.699-3.18.547" class="C"/><path transform="matrix(0 -1 .99656 0 0 0)" d="M-347.23 321.03c1.109 1.627 2.344 1.725 3.176 1.297 1.754-.902.91-1.811-.711-3.512" class="O"/><path transform="matrix(0 -1 .99509 0 0 0)" d="M-344.76 319.19c1.258 1.727 2.648 1.833 3.59 1.382 1.984-.962 1.027-1.927-.805-3.737" class="f"/><path transform="matrix(0 -1 .99883 0 0 0)" d="M-342.14 315.57c1.332 1.603 2.652 2.104 3.813 1.377 1.816-1.146 1.09-1.92-.855-3.723" class="g"/></g><g class="F H"><g class="C"><path d="M306.714 324.965l-.219-6.145c2.473-1.25 8.562.035 11.133 5.707 3.203 7.074 6.238 10.84 10.082 14.156-5.574 1.039-10.293-.059-13.336-4.141-4.105-5.504-6.301-8.836-7.66-9.578z" class="E"/><path d="M302.181 325.769l6.648-2.797c2.727 5.551 4.582 9.297 5.356 11.332 1.516 3.992 1.93 7.754 1.227 11.004-2.699-.691-5.816-2.613-7.922-6.562-2.117-3.969-3.422-8.605-5.309-12.977z"/><path d="M300.27 325.766l7.129-1.09c1.289 6.047 2.176 10.137 2.426 12.297.496 4.242-.02 7.988-1.492 10.969-2.453-1.324-5.008-3.953-6.086-8.297-1.082-4.367-1.215-9.176-1.976-13.879z"/></g><path transform="matrix(-.14684 1 .99997 .14685 0 0)" d="M266.39 338.33l.58-4.165c1.561-2.251 7.465-3.994 12.37-.262 6.114 4.652 10.525 6.507 15.432 7.591-4.365 3.519-8.995 4.781-13.562 2.657-6.157-2.865-13.286-5.818-14.821-5.821z" class="E T"/><g class="C"><path d="M297.315 313.12l6.797-2.41c2.406 5.691 4.043 9.543 4.699 11.621 1.285 4.074 1.48 7.848.594 11.051-2.656-.84-6.02-2.574-7.898-6.641-1.887-4.086-2.559-9.148-4.191-13.621z"/><path d="M301.941 308.377l1.488-9.238c1.566-.422 3.641 3.227 5.668 5.355.469.492 1.008.953 1.418 1.559.852 1.262 1.543 2.77 1.926 4.48 1.699 7.574 4.176 11.516 7.262 15.547-5.668-.117-10.062-2.156-12.21-6.769-2.898-6.223-4.367-9.934-5.551-10.933z" class="E"/></g></g><use xlink:href="#L" class="P k"/><g class="F"><path d="M307.841 273.96v15.754h-29.93v46.703c-2.543.57-5.176.871-7.875.871h-.004a35.9 35.9 0 0 1-7.871-.871v-46.703h-29.93V273.96h29.93v-37.492h15.75v37.492z" stroke-width=".651"/><g class="H E"><path transform="matrix(0 -1 -.99769 0 0 0)" d="M-245.41-257.65h-22.145c-1.297 4.839-5.981 16.62 4.285 17.235 4.746.282 7.875-5.904 3.684-7.572-1.984-.787-3.387.07-3.844 1.233-.488 1.257.523 2.502 2.035 2.173-2.613 5.008-8.156-4.479-.941-8.758 2.106-1.249 4.293 2.102 5.852 2.106s3.891-3.293 5.852-2.106c7.18 4.334 1.672 13.766-.937 8.758 1.508.329 2.523-.916 2.035-2.173-.457-1.163-1.859-2.02-3.844-1.233-4.191 1.668-1.062 7.854 3.684 7.572 10.262-.615 5.582-12.396 4.285-17.235z" stroke-width=".676"/><g stroke-width=".671"><path transform="matrix(0 -1 .99769 0 0 0)" d="M-245.41 283.68h-22.145c-1.297 4.839-5.981 16.62 4.285 17.235 4.746.286 7.875-5.904 3.684-7.568-1.984-.795-3.387.067-3.844 1.229-.488 1.257.523 2.506 2.035 2.173-2.613 5.008-8.156-4.475-.941-8.759 2.106-1.249 4.293 2.106 5.852 2.11s3.891-3.297 5.852-2.11c7.18 4.334 1.672 13.766-.937 8.759 1.508.333 2.523-.916 2.035-2.173-.457-1.163-1.859-2.024-3.844-1.229-4.191 1.664-1.062 7.854 3.684 7.568 10.262-.615 5.582-12.396 4.285-17.235z"/><path transform="matrix(0 1 -.99769 0 0 0)" d="M318.28-257.65h-22.148c-1.297 4.839-5.977 16.62 4.289 17.235 4.746.282 7.875-5.904 3.684-7.572-1.984-.787-3.391.07-3.844 1.233-.488 1.257.523 2.502 2.035 2.173-2.609 5.008-8.156-4.479-.941-8.758 2.102-1.249 4.293 2.102 5.852 2.106s3.891-3.293 5.852-2.106c7.184 4.334 1.672 13.766-.937 8.758 1.508.329 2.519-.916 2.031-2.173-.453-1.163-1.859-2.02-3.844-1.233-4.191 1.668-1.059 7.854 3.684 7.572 10.27-.615 5.586-12.396 4.289-17.235z"/><path transform="matrix(0 1 .99769 0 0 0)" d="M318.28 283.68h-22.148c-1.297 4.839-5.977 16.62 4.289 17.235 4.746.286 7.875-5.904 3.684-7.568-1.984-.795-3.391.067-3.844 1.229-.488 1.257.523 2.506 2.035 2.173-2.609 5.008-8.156-4.475-.941-8.759 2.102-1.249 4.293 2.106 5.852 2.11s3.891-3.297 5.852-2.11c7.184 4.334 1.672 13.766-.937 8.759 1.508.333 2.519-.916 2.031-2.173-.453-1.163-1.859-2.024-3.844-1.229-4.191 1.664-1.059 7.854 3.684 7.568 10.27-.615 5.586-12.396 4.289-17.235z"/></g></g></g><use xlink:href="#L" class="K k"/></g><defs ><path id="E" d="M270.045 119.56c2.363 0 4.285 1.918 4.285 4.281a4.29 4.29 0 0 1-4.285 4.289 4.29 4.29 0 0 1-4.285-4.289c0-2.363 1.918-4.281 4.285-4.281z"/><path id="F" d="M220.44-79.43c1.879 0 3.402-1.523 3.402-3.402a3.4 3.4 0 0 0-6.805 0c0 1.879 1.524 3.402 3.402 3.402z"/><path id="G" d="M194.754 90.836c1.879 0 3.402 1.523 3.402 3.402s-1.523 3.402-3.402 3.402-3.402-1.523-3.402-3.402 1.523-3.402 3.402-3.402z"/><path id="H" d="M228.4-150.71a1.77 1.77 0 0 0 1.77-1.769 1.77 1.77 0 0 0-1.77-1.769 1.77 1.77 0 0 0-1.77 1.769 1.77 1.77 0 0 0 1.77 1.769z"/><path id="I" d="M270.045 90.938c2.086 0 3.781 1.691 3.781 3.781a3.78 3.78 0 1 1-7.562 0c0-2.09 1.695-3.781 3.781-3.781z"/><path id="J" d="M-326.32-81.609c1.879 0 3.402-1.523 3.402-3.402s-1.524-3.402-3.402-3.402-3.402 1.523-3.402 3.402 1.524 3.402 3.402 3.402z"/><path id="K" d="M-282.96-71.613c1.871 0 3.387-1.516 3.387-3.391s-1.516-3.383-3.387-3.383-3.387 1.512-3.387 3.383 1.516 3.391 3.387 3.391z"/><path id="L" d="M307.846 236.47v61.125c0 10.93-4.246 20.855-11.093 28.047s-16.3 11.648-26.711 11.648h-.004c-10.41 0-19.86-4.461-26.707-11.648s-11.093-17.117-11.093-28.047V236.47z"/></defs></svg>