<?xml version="1.0" encoding="UTF-8"?>
<svg width="1200" height="600" version="1.0" xmlns="http://www.w3.org/2000/svg" xmlns:cc="http://creativecommons.org/ns#" xmlns:dc="http://purl.org/dc/elements/1.1/" xmlns:rdf="http://www.w3.org/1999/02/22-rdf-syntax-ns#">
<metadata>
<rdf:RDF>
<cc:Work rdf:about="">
<dc:format>image/svg+xml</dc:format>
<dc:type rdf:resource="http://purl.org/dc/dcmitype/StillImage"/>
<dc:title/>
</cc:Work>
</rdf:RDF>
</metadata>
<g transform="matrix(4.1664 0 0 4.1669 -666.59 -2414.1)" fill="none" stroke="#000"></g>
<g transform="matrix(4.1664 0 0 4.1669 -666.59 -2414.1)"></g>
<g transform="matrix(4.1664 0 0 4.1669 -666.59 -2414.1)" fill="#00009e" stroke="#000"></g>
<path d="m1200 600v-600h-1200v600z" fill="#00247d"/>
<path d="m7.4344e-5 99.959h126.55l-126.55-63.503v-36.456h72.404l177.02 88.246v-88.246h99.681v88.246l177.02-88.246h73.029v36.456l-127.17 63.503h127.17v100.04h-127.17l127.17 63.503v36.468h-73.029l-177.02-88.258v88.258h-99.681v-88.258l-177.02 88.258h-72.404v-36.468l126.55-63.503h-126.55z" fill="#fff"/>
<path d="m552.06 2.4093e-4 -199.99 100.03h47.872l199.21-100.03z" fill="#cf142b"/>
<path d="m599.16 299.97-199.43-99.976h48.084l151.34 76.141z" fill="#cf142b"/>
<path d="m200.37 100.03-200.37-100.03v23.889l152.08 76.141z" fill="#cf142b"/>
<path d="m199.96 199.99-199.96 99.976h47.847l199.99-99.976z" fill="#cf142b"/>
<path d="m7.4344e-5 120.71h270.66v-120.71h58.576v120.71h269.92v58.578h-269.92v120.68h-58.576v-120.68h-270.66z" fill="#cf142b"/>
<path d="m999.48 257.01c-0.19257 67.849-10.98 140.95-99.473 175.76-88.498-34.818-99.285-107.91-99.477-175.76z" fill="#5f7dbd"/>
<path d="m900 432.77c40.117-15.782 64.266-39.437 78.694-66.902-2.1599 0.08306-6.6848-0.0457-8.6396-0.17867-2.1767-0.14123-84.852-8.3835-94.643-11.948-8.5183-3.0992-41.017 2.6339-56.187 8.0138 14.152 29.214 38.665 54.447 80.775 71.015z" fill="#e8ece9"/>
<path d="m838.16 390.71c1.3521-0.43623 3.9347-0.33236 4.9519-0.14956 1.1972 0.21603 1.4148 0.32403 1.8502-0.97214 0.43533-1.2962 1.4148-0.9721 2.1767-0.32403 0.7618 0.64807 2.7166 0.32403 3.4784-0.7561 0.76183-1.076 0.9795-0.96797 1.7413-0.21603 0.76183 0.7561 1.0883 0.54006 1.8502 0.32406 0.76183-0.2119 2.0678-1.076 2.7208-2.2641 0.653-1.1882 1.6283-1.6202 2.1725-0.97213 0.54413 0.64806 1.0883 0.97213 1.8501 0.8641 0.76183-0.108 0.9795 0.6481 0.87067 1.6161-0.10884 0.9721 0.3265 1.1881 2.1767-0.3199 1.6325 1.6161 2.1725 0.96797 2.1725-0.7561 0-1.7282-0.43113-8.0969-1.0841-8.961s-1.306-3.3484-1.4148-5.2927c-0.2051-3.6683-0.21766-3.8843-4.6798-6.1526 0-1.2962-0.3265-1.8362-3.4785-1.6202 0.10883-0.43204-0.43534-1.7282-1.0883-2.2683s-0.76183-0.7561-0.43533-2.2641c1.306 0.108 2.7208-0.108 3.4826-1.1882 0.75767-1.0801 3.2608-0.8641 4.7845-0.216 1.5237 0.64807 3.4827 0.7561 6.417 0.32403 1.0883-0.8641 2.9385-1.8362 4.8975-2.9164 1.9548-1.0801 2.499-1.5122 2.6078-3.0244 0.28044-3.876-1.0883-8.3129-2.1767-10.361-1.0841-2.0523-1.4106-4.6446-2.9343-7.885-1.6576-3.5271-1.6325-4.4244-3.4826-6.5847-0.5065-0.5941-1.0883-1.0801-1.1972-2.2641-0.10884-1.1882-0.54417-2.8084-1.846-3.9965-3.2901-2.9953-4.571-12.633-5.877-19.758-0.7493-4.0837-0.21766-13.709-1.9548-15.222-2.9385-2.3763-4.3533-1.9442-6.3123-2.7003-1.4148-1.9442-2.0636-5.8286-3.3696-9.285-2.0678 0.32403-3.4827 2.4843-4.8975 3.2404-1.4148 0.7561-1.6325 0.7561-1.6325 2.7003 0 1.9401-1.0883 4.6404-3.0431 7.6648-1.959 3.0202-5.224 2.1603-7.9406 6.6927-5.9858-7.2328-6.0946-9.285-6.53-11.337-0.43533-2.0481-1.4148-2.4802-4.7844-5.3965 0-0.8641-0.43533-4.3164-0.10883-6.2606-2.5032-2.0523-4.3533-1.7282-5.5463-0.21603-1.1972 1.5122-2.0678 3.7763-3.918 4.6404-1.1093 1.4-4.4538 4.9312-7.1913 9.1355 2.4906 37.572 11.034 74.87 36.723 104.7z" fill="#9b7463"/>
<path d="m999.48 257.01c0.07533-25.558-1.3562-50.372-0.70324-72.116-33.068-14.686-76.581-17.706-98.77-17.706-22.194 0-65.706 3.0202-98.774 17.706 0.653 21.744-0.77436 46.558-0.7032 72.116z" fill="#f2d049"/>
<path d="m877.22 183.99c-3.311 0.09556-10.519 0.16203-12.034 1.0054-1.5111 0.8475-2.1767 1.2214 0.473 1.6908 2.6497 0.46943 7.1327 1.7199 9.5898 3.2238 2.4571 1.4997 4.5166 4.1585 3.8385 7.9515-2.0302 11.395 3.9724 22.355 12.671 26.488 0.84137 0.3988 1.0423 0.70209 0.85394 2.2517-0.18837 1.5496-0.75764 4.1336-1.2307 4.79-0.473 0.66056-0.7074 1.7407 0.8037 1.2214-1.0381 1.9276-3.3571 5.7787-4.0645 6.7633-6.9527-0.84334-12.625 0.09556-13.148 7.3242-0.05024 0.70624 0.19256 1.8321 1.2767 0.04984 1.0883-1.7864 2.319-3.4772 5.2951-3.9466-1.7497 2.6754-2.3148 5.0725-2.0301 6.6221 0.28043 1.5496 0.7074 2.4885 1.465 0.51513 0.75767-1.9692 2.1516-3.8137 3.6417-4.9312 0.5651-0.4196 0.946-0.51513 0.51904 0.70623-0.42697 1.2214 0.18836 3.8511 1.0423 4.7443 0.84973 0.88904 1.2767 0.51514 1.0381-0.9389-0.23444-1.4582 0.13393-4.5033 1.938-5.4505 2.5994-1.3585 4.8221-0.65637 5.8644 1.13 1.0381 1.7822 1.9381 0.0914 0.80367-1.9276-1.1344-2.019-2.319-3.4273-4.211-3.5686 1.6576-2.9122 3.5957-6.4351 4.0226-7.1372 0.4228-0.70624 1.0883-1.0344 1.6534-0.6107 0.56926 0.42376 0.946 0.3739 1.5153-0.79764 0.5651-1.1757 1.5571-4.6487 2.9761-6.0571 0.7116-0.1911 1.846-0.46943 2.2688-0.8475 1.846 2.6754 3.4994 5.6375 3.9263 6.2939 0.4228 0.6564 0.89997 0.9389 0.473 2.3015-0.42693 1.3626-1.892 5.6832-2.1264 6.6221-5.157 0.18694-7.5178 0.27834-9.1754 3.1449-0.72417 1.2505 0.42693 1.7365 1.6576 1.0801 1.2265-0.6564 2.9761-1.2214 3.8761-1.0801 0.8958 0.14123 1.3186 0.5982 0.4228 1.0344-3.1645 1.5496-5.1445 3.5187-5.0105 6.244 0.04603 0.9846 0.45626 1.4748 1.2306 0.14127 1.0883-1.8778 3.0724-3.7556 5.4835-4.2749-0.1423 2.3015 0.38093 5.6832 1.7957 6.3894 1.419 0.70206 1.5195-0.01247 0.99207-1.3626-0.84973-2.1603 0.0335-4.333 1.0883-5.4962 2.2227-2.4428 7.2834 0.9389 8.2294 1.7864 0.946 0.84333 1.8083 1.1965 1.2767-0.98874-0.71156-2.9081-4.8723-4.5989-8.4178-5.0683 0.99203-4.7443 3.6417-14.324 5.0607-17.61 2.0804 1.1258 3.7045-1.8445 7.1872-0.565 5.8602 2.1603 14.655 7.6067 16.17 8.828 1.5111 1.2214 2.0804 0.9389 2.838 0.2825 0.75343-0.65637 2.0804 0 3.1185 0.18696 1.0423 0.18694 1.9883 0.46944 0.66137-2.1603-1.3227-2.6297-4.5375-7.2328-9.9289-10.801 3.2148 0.2825 7.5681 0.2825 7.5681-0.56083 0-0.8475-5.0147-2.4428-7.0951-2.6297 1.9883-0.46944 5.0147-1.5994 6.4295-3.1947 0.84137-0.94304-0.16743-1.1632-3.1185-1.2214-9.0792-0.18694-13.617-0.1163-18.347-2.8166-7.5639-4.3206-11.892-8.8696-15.605-10.801-1.9841-1.0344-3.1938-3.4191-3.9598-5.4796-2.4571-6.5764-2.3357-9.5343-8.1039-11.695-5.7681-2.1603-12.403 0.48607-15.429 3.2072z"/>
<path d="m805.9 286.59c1.0883 1.7282 3.0473 4.6986 3.265 6.3146 0.76183-1.5662 1.3604-2.2641 1.5236-3.2362 0.16327-0.97214 1.306-2.8624 0.87067-3.8885-0.43534-1.0261-0.76184-1.8362 0.43533-1.0801 1.193 0.7561 0.96277 2.0647 0.70323 3.9965-0.70323 5.2885-2.9343 6.3687-3.2608 9.9331 3.2106 7.5028 0.81627 10.203 4.2947 17.544 0.54417 0.32403 1.9967-0.25343 2.432-0.1454 1.846-1.2962 3.2273-0.82673 5.8351-0.28667 2.612 0.54007 4.0268 2.3722 4.0268 3.9924s0 2.0523 0.54416 3.0244c0.54417 0.97213 1.6325 2.4843 1.4148 3.5645-0.21767 1.076 0.21766 1.724 0.54416 2.2641 0.3265 0.54006-0.10883 1.7282-0.43533 2.4843s-0.21767 1.7282 1.0883 3.3484c1.306 1.616 4.3491 8.4209 4.3491 12.413 0 3.9965 0.21767 5.8327 1.8502 6.5847 1.6325 0.7561 2.1767 1.4042 1.959 3.1324-0.21767 1.7282 0.76183 10.689 0.97947 12.093 0.21766 1.4042 0.76183 1.0801 1.4148 1.8362 0.64883 0.75193 1.0842 1.6161 3.2608 1.6161 2.1767 0 4.278-0.28667 5.6928-0.07064 1.959 2.7003 3.1561 6.3686 3.5915 8.6369 0.43534 2.2683 0.39767 5.3633 1.1595 5.3633 0.76184 0 1.5237 0.10804 1.306-2.7003-0.21766-2.8083-0.43533-3.2404-1.4148-4.6404-0.9795-1.4042-1.5237-2.0522-0.9795-2.9164 0.54417-0.8641 0.653-2.2683 0.43533-3.3484-0.21766-1.0801-0.54416-2.6962 1.306-0.54007 1.8502 2.1603 2.3943 2.7003 2.9385 3.4564 0.54417 0.7561 0.75767 2.1603 0.653 3.4564-0.10883 1.292 0.10467 1.8321 0.8665 1.184 0.76183-0.64393 1.7413 0.43203 1.306 1.8362-0.43534 1.4042 0.10883 2.2683 1.4148 2.7003 1.306 0.43203 1.8502 0.7561 2.1767 1.7282 0.3265 0.97213 1.4148 1.4 1.4148-0.54007 0-1.9442-0.76183-6.0488-1.306-7.3408-0.54417-1.2962-0.9795-4.1045-1.0883-5.7247-0.10884-1.6202-0.43534-2.0481-1.1972-2.3722-0.76183-0.32404-1.4148-0.8641-1.5237-1.6202-0.10883-0.7561-0.7618-1.0261-1.2516-1.0261-0.48974 0-0.9209-0.37803-1.193-0.9181-0.2721-0.54006-0.54417-0.59406-1.0883-0.6481-0.54417-0.054-1.4148 0.27004-1.6869-0.59406-0.2721-0.8641-0.653-2.1063-1.1972-2.8083-0.54417-0.7021-1.0339-0.91813-1.0883-3.3443-0.0544-2.4303-0.10884-2.7544-0.87067-3.6185s-2.0678-3.1282-2.612-4.1004c-0.54-0.97213-1.0842-1.9442-1.0842 0.108 0 2.0481 0 3.1283 1.3018 3.8843 1.306 0.7561 1.6325 0.7561 1.0883 1.8362-0.54417 1.0801 0 1.8362 0.21763 2.5923 0.21767 0.7561 0.653 1.5122 0 2.2641-0.65297 0.7561-1.306 0.54006-1.1971-0.64394 0.10883-1.1881-0.3265-2.5923-0.8665-3.5644-0.54417-0.97213-0.97947-1.6202-1.6325-1.0801-0.653 0.54006-1.1972-0.10804-0.76183-0.54007 0.43533-0.43207 0.3265-0.7561 0-1.0801-0.3265-0.32407-0.43534-0.6481 0.10883-1.2962 0.54417-0.6481 0.54417-0.97213 0.21767-2.4802-0.3265-1.5122-2.7208-9.069-3.8092-10.797-1.0883-1.7282-0.9795-3.0244 0.43533-1.2962 1.4148 1.7282 2.612 3.2404 2.7208 4.6404 0.10883 1.4042 0.43533 2.2683 0.87066 2.8084 0.43534 0.54006 0.76184 0.32403 0.9795-0.86414 0.21764-1.1881 1.0883-0.7561-0.43533-3.0202-1.5237-2.2683-4.3533-6.0487-5.4417-12.849-1.0883-6.8007-1.5236-11.337-2.612-13.169-1.0841-1.8362-1.4106-2.2683-1.5195-3.9965-0.10883-1.7282 0-3.4564-0.76183-4.7484-0.76184-1.2962-1.306-1.5122-1.4148 0.43203-0.10883 1.9401 0.10884 6.2606 0.653 7.0167 0.54417 0.7561 0.21767 2.6962 0.10884 3.7763-0.10884 1.0801-1.8209 2.1478 1.7413 4.3205 1.4148 0.8641 1.193 2.0523 0.97947 2.8084-0.21767 0.75193-0.43534 0.64393-1.1971-0.54007-0.76183-1.1882-1.5237-2.1603-2.2855-2.8084-0.76183-0.64806-0.87066-1.0801-0.76183-2.5923 0.10883-1.5122 0.43533-2.5923 0-3.1282-0.43533-0.54007-0.653-0.108-0.87067 0.75193-0.21766 0.86413-0.43533 3.2404-0.87066 3.8885-0.43534 0.6481-0.653 0.21603-0.9795-1.1881-0.32647-1.4042 0.10883-3.5603 0.87066-6.0446 0.76184-2.4843 1.1972-5.0766 0.54417-8.3129-0.653-3.2404-0.3265-4.2125-2.8296-6.9087-2.499-2.7003-5.3286-5.2927-6.5258-8.6369-1.1972-3.3484-1.4148-6.2648-2.7208-7.777-1.3018-1.508-3.152-3.4523-4.3491-3.9923v-4.9645c0-1.1881-0.54416-1.9442-1.959-1.7282-1.4148 0.21604-2.2855 1.4042-3.152 3.0202-0.87067 1.6202-1.5236 0.8641-2.7208 3.6725-1.1972 2.8083-2.9385 4.2084-2.9385 7.2327z" fill="#b38c79" stroke-width="4.1701"/>
<path d="m813.74 318.22c0.87067 0.54007 1.7037 0.9015 3.0097 0.25343 1.306-0.6481 2.8673-2.5176 4.6086-0.68133 1.7371 1.8321 2.7166 4.8565 2.7166 7.2328 0 2.3721 0 6.8007 2.7208 9.285 2.7208 2.4802 4.1315 5.0725 4.2403 8.3129 0.10883 3.2362 1.306 8.2049 1.6325 9.501 0.3265 1.292 1.0883 2.8042 1.959 3.6683 0.87066 0.86413 1.5237 3.3484 1.6325 5.9366 0.10883 2.5923-0.3265 4.4286 0 5.7247 0.3265 1.2962 0 2.3763-0.9795 1.7282-0.9795-0.64806-1.1972-0.97213-1.7413-2.0523-0.54416-1.0801-1.1972-0.8641-0.653 0.7561 0.54417 1.6202 2.1767 3.1282 3.5915 3.1282 1.4148 0 1.8501 0.21603 2.7208 1.0802 0.8665 0.8641 0.97534 1.2961 2.499 1.2961 1.5237 0 1.7413 0 3.1562 0.43207 1.4148 0.43206 1.4148 0.21603 2.1767 0 0.7618-0.21604 1.5195 0.43206 2.0636 1.8362 0.54416 1.4042 1.8501 5.2885 1.8501 6.3686 0 1.0801 0 2.1603 0.76183 3.2404 0.76183 1.0801 0.54417 2.1603-0.3265 1.5122-0.87066-0.64806-0.87066-0.43203-1.5236-0.32403-0.653 0.108-1.0883-0.21603-1.9548-0.7561-0.87064-0.54007-0.3265-0.43203-1.1971-1.7282-0.87066-1.2962-1.4148-1.7282-1.4148-0.7561s-0.10883 2.1603-0.76183 1.6202-0.9795-0.54007-1.5237 0-0.76183 0.97213-1.4148-0.108c-0.653-1.0802-1.4148-1.0802-2.0678-1.2962-0.653-0.21603-0.653-0.21603-0.97534-1.1882-0.3265-0.9721-1.306-1.1881-2.1766-1.1881s-1.306-0.43206-1.4148-1.0801c-0.10884-0.64393-0.653-1.076-1.0883-1.4-0.43533-0.32404-0.21766-1.0801-0.3265-1.8362-0.10883-0.7561-0.76183-0.43206-1.1972-0.64806-0.43534-0.21604-0.7618-0.10804-0.7618-1.1882s-0.43534-1.4042-0.76184-2.1603c-0.32233-0.7561 0-1.5122 0.21767-2.3721 0.21767-0.86413 0.10883-1.4042-0.54-2.1603-0.653-0.75607-0.10883-1.5122-1.8501-3.0244-1.7413-1.5122-2.612-0.21603-3.1562-3.7763-0.54417-3.5644-1.6325-10.905-2.612-12.093-0.97947-1.1881-1.6283-2.0522-2.6078-2.3763-0.97947-0.32407-1.6325-0.10804-1.7413-2.1603-0.10883-2.0481-0.76183-4.6404-2.0678-5.9366-1.306-1.2962-1.8502-1.7282-2.5032-2.2683s-0.87063-1.5122 0-3.3443c0.87067-1.8362 0.54417-4.3205 0.43533-5.5087-0.10883-1.184-0.43533-2.6962-0.21766-3.9923 0.21766-1.2962 0.10883-2.9164-0.21767-3.7805-0.3265-0.86413-0.76183-1.0801-0.21767-1.7282z" fill="#b38c79" stroke-width="4.1701"/>
<path d="m839.95 287.53c-1.4734 1.8819-3.0431 3.4564-5.0733 4.8939-2.0301 1.4416-4.6421 2.5923-3.1938 5.0392 1.4525 2.4469 2.612 2.7377 2.9008 4.6072 0.293 1.8695 0.72833 3.4564 2.1767 3.8885 1.4525 0.4279 2.0301 0.14123 2.0301 3.1656 0 3.0244 0 4.1752 1.306 5.3259 1.306 1.1508 1.1595 2.3015 1.7413 5.0393 0.57764 2.7336 0.57764 8.6369 2.319 12.667s5.6593 11.661 5.224 13.244c-0.43534 1.5828-1.0172 2.7336 0.72416 4.603 1.7413 1.8736 2.9008 4.6072 3.0473 6.19 0.14233 1.587 0.43533 2.1603 2.1725 1.587 1.7413-0.57743 2.612-1.1549 3.1938-1.8736 0.57767-0.7187 1.7371-0.5733 3.3361 0.28664 1.5948 0.8641 4.0603 1.7282 5.5086 0.8641 1.4525-0.8641 2.1766-2.1561 3.4826-2.1561 2.0302-1.4416 2.7543-4.4659 3.1896-5.3259 0.43534-0.8641 0.1465-0.8641-0.72413-1.7282-0.87067-0.8641-0.43533-2.3057-0.58187-3.7431-0.1423-1.4416-0.72413-3.5977-2.4655-6.7675-1.7371-3.1656-2.7543-7.0541-3.9138-8.0595-1.1595-1.0095-1.7413-3.4564-1.8878-4.6072-0.1423-1.1508-1.4483-2.1603-2.319-3.0244-0.87067-0.85993-1.7413-2.1561-2.7543-7.1954-1.0172-5.0392-1.7413-8.6369-1.7413-9.501s-0.1465-1.0095-1.0172-1.2962c-0.87067-0.28663-1.306-1.7282-1.013-2.4469 0.2888-0.71873-0.29303-1.4374-0.58183-2.3015-0.28884-0.8641 0-2.4469 0.58183-3.311 0.57763-0.8641 0.43533-3.311-0.14653-5.3259-0.58184-2.0149-1.1595-3.7431-3.4826-4.0339-2.319-0.28663-2.7543-0.85993-3.625-2.7336-0.87067-1.8695-1.7413-5.1805-2.0302-5.9034-0.2888-0.7187-0.72413-0.8641-2.4655 0.57747-1.7413 1.4374-2.319 1.9152-2.319 4.6072 0 1.7282 0.28883 2.3015 0.86647 3.311 0.58183 1.0054 0.72833 1.2962 1.1637 4.0297 0.43534 2.7336 2.9008 7.0541-0.293 9.501-3.1896 2.4469-2.7543 3.0244-2.6078 4.7485 0.14234 1.7282-0.87066 2.879-1.4525 0.43204-0.57766-2.4469 0-3.8843 1.7413-5.0351 1.7413-1.1549 3.3361-2.5923 2.1766-4.1751-1.1637-1.5828-1.5948-5.3259-1.7413-7.0541-0.14653-1.7282-0.43533-2.3057-1.4525-1.0095z" fill="#b38c79" stroke-width="4.1701"/>
<path d="m814.11 324.23c-0.07954 1.1715 0.1842 2.4594 0.27626 3.4938 0.10884 1.1882 0.43534 3.6725-0.43533 5.5087-0.87063 1.8321-0.653 2.8042 0 3.3443 0.0377 0.02907 0.07117 0.05817 0.10467 0.08723 1.7748-0.5899 2.005-2.5549 1.5278-3.5063-0.5065-1.0054-0.35997-2.2309 0.21767-3.2363 0.58183-1.0095 0.58183-1.5828 0.07533-2.3057-0.51067-0.7187-0.51067-0.7187 0.07117-2.7336 0.5107-1.7739-0.77857-1.7615-1.8376-0.65224z" fill="#dabcb0" stroke-width="4.1701"/>
<path d="m832.66 352.13c-0.3265-1.2962-1.5236-6.2648-1.6325-9.501-0.10883-3.2404-1.5195-5.8327-4.2403-8.3129-2.1222-1.9401-2.5869-5.0559-2.6873-7.4612-1.5948-0.96796-2.2687-0.5276-2.1348 1.2712 0.14233 1.9401 2.1013 2.879 1.8125 5.6832-0.2888 2.8084-0.2888 2.0897 1.0883 3.4564 1.3772 1.3668 1.8837 2.663 1.1595 3.2404-0.72417 0.5733-0.7995 1.5828 0.21766 1.9401 1.013 0.36143 1.0883 1.4416 0.94184 2.4469-0.14654 1.0095 0.7995 1.2255 1.3771 1.9442 0.58183 0.7187 0.653 2.4469 0.07537 3.4564-0.58187 1.0054-0.653 2.5882 0.35996 1.7282 1.0172-0.86413 1.4525-0.0748 2.2478 1.292 0.69066 1.1798 1.2683 0.8101 2.0176 0.45283-0.2595-0.54423-0.4688-1.1092-0.60276-1.6368z" fill="#dabcb0" stroke-width="4.1701"/>
<path d="m846.81 377.28c-0.653 1.2962-1.4148 0.8641-2.0678 0.21603-0.653-0.6481-1.4148-0.6481-1.0883-1.8362 0.3265-1.1882 0.21767-1.4042-0.653-2.0523-0.10047-0.07476-0.2009-0.14123-0.30137-0.2077-0.2721-0.00833-0.59023-0.00833-1.0046-0.00833-1.5236 0-1.6325-0.43203-2.499-1.2961-0.19673-0.19114-0.36833-0.34897-0.53576-0.48194-0.01677 0.20774-0.0084 0.48194-0.0084 0.80597 0 1.1881 0 0.9721-1.1971 1.2962-1.1972 0.32403-0.9795-1.1882-1.1972-2.1603-0.0586-0.24924-0.12557-0.43204-0.18837-0.5816-1.3102-0.24927-2.6915-1.6202-3.1855-3.0867-0.54416-1.6202 0.10884-1.8362 0.653-0.7561 0.54417 1.0801 0.76184 1.4042 1.7413 2.0523 0.9795 0.6481 1.306-0.43203 0.9795-1.7282-0.10467-0.41543-0.12977-0.89736-0.1172-1.4333-0.23444-0.4196-0.55254-0.76027-0.97114-0.94304-1.7413-0.7561-1.1972-0.97213-1.0883-2.3763 0.10883-1.4-0.21767-1.4-1.306-0.6481-1.0883 0.7561-1.1971-0.108-1.1971-2.2641 0-2.1603-1.4148-2.1603-1.7372-0.64807-0.3265 1.5122-0.87067 0.54007-1.5236-1.6202-0.653-2.1603-1.5237-2.7003-1.6325-0.6481-0.0921 1.7365-0.57767 2.152-1.7162 1.1882 0.2009 1.2546 0.3767 2.4261 0.51903 3.3484 0.54417 3.5603 1.4148 2.2641 3.1562 3.7763 1.7413 1.5122 1.1971 2.2683 1.8501 3.0244 0.64883 0.7561 0.75767 1.2962 0.54 2.1603-0.21767 0.85993-0.54 1.616-0.21767 2.3721 0.3265 0.7561 0.76184 1.0801 0.76184 2.1603s0.32646 0.97213 0.7618 1.1882c0.2721 0.13293 0.6237 0.05813 0.87903 0.16616 0.28047-0.3656 0.5358-0.81426 0.8623-1.1383 1.306-1.2962 3.265 0.108 3.918 1.7282 0.65297 1.6202 1.4106 2.0523 2.3901 0.7561 0.97947-1.2962 0.65297-1.0801 1.7413 0.10804 1.0883 1.1881 1.5237 0.9721 1.5237 0.9721s1.0883-0.43204 1.8502 0.21603c0.76183 0.6481 1.1972 0.54007 2.6078-1.5122 1.4148-2.0522-0.64884-1.4042-1.3018-0.108z" fill="#dabcb0" stroke-width="4.1701"/>
<path d="m850.69 318.05c0.43114-3.1656 0.1423-6.3313 1.4483-7.4862 1.306-1.1508 2.9008-3.4523 2.7543 1.4416-0.1423 4.8938-0.2888 4.6072-1.3018 5.7579-1.0172 1.1508-1.8878 1.4374-0.87066 3.311 1.013 1.8695 1.1595 2.0149 1.013 4.8939-0.14234 2.879-0.14234 4.0297 1.0172 5.4713 1.1595 1.4374 1.4483 1.5828 1.7413 3.1656 0.2888 1.5828 1.3018 3.7431 2.6078 4.8938 1.306 1.1508 2.7585 4.4618 2.9008 6.7675 0.1465 2.3015 2.1767 2.879 4.0603 4.4618 1.8878 1.5828-0.43114 2.7336-1.8836 2.0149-1.4483-0.7187-0.87066 0-1.7413 1.0054-0.87067 1.0095-1.1595 1.1549-1.8836-0.57334-0.72417-1.7282-3.1938-2.879-4.3533-3.311-1.1595-0.43206-2.1725-2.3057-3.1896-4.1752-0.87067-1.6077-2.5952-2.7834-4.1691-2.9039 0.43533 1.2131 0.66973 2.1644 0.54417 2.6173-0.43534 1.5828-1.0172 2.7336 0.72416 4.603 1.7413 1.8736 2.9008 4.6072 3.0473 6.19 0.14233 1.587 0.43533 2.1603 2.1725 1.587 1.7413-0.57743 2.612-1.1549 3.1938-1.8736 0.57767-0.7187 1.7371-0.5733 3.3361 0.28664 1.5948 0.8641 4.0603 1.7282 5.5086 0.8641 1.4525-0.8641 2.1766-2.1561 3.4826-2.1561 2.0302-1.4416 2.7543-4.4659 3.1896-5.3259 0.43534-0.8641 0.1465-0.8641-0.72413-1.7282-0.87067-0.8641-0.43533-2.3057-0.58187-3.7431-0.1423-1.4416-0.72413-3.5977-2.4655-6.7675-1.7371-3.1656-2.7543-7.0541-3.9138-8.0595-1.1595-1.0095-1.7413-3.4564-1.8878-4.6072-0.1423-1.1508-1.4483-2.1603-2.319-3.0244-0.87067-0.85993-1.7413-2.1561-2.7543-7.1954-0.79534-3.9383-1.4106-6.9918-1.6409-8.5538-1.0423 1.6493-1.7539 2.0523-2.1306 0.92226-0.43533-1.292-1.0172-2.0149-1.5948-1.1508-0.58184 0.86413-0.72834-0.7187-0.72834-1.4374 0-0.72287-0.14233-0.8641-0.87066-0.8641-0.72417 0-0.14234-1.1508-0.43534-3.311-0.28883-2.1603-0.72416-2.4469-1.013 0.1454-0.28884 2.5882-1.7413 4.171-1.1595 4.7484 0.57763 0.57746 0.28883 1.7282-0.293 3.4564-0.57767 1.7241-0.28883 2.7336 0.1465 3.8843s-0.28883 3.311-0.58183 5.1847c-0.28884 1.8695 1.1637 3.7389 1.599 0.5733z" fill="#dabcb0" stroke-width="4.1701"/>
<path d="m824.18 292.17c-1.0758 0.07893-1.8125 1.0137-1.1972 4.2831 0.3851 2.0232-1.1595 1.5828-1.7371 0.5733-0.58183-1.0053-1.0172-3.1656-2.1766-5.0392-1.1637-1.8695-0.58187 1.2962-0.72417 3.0244-0.1465 1.7282 1.013 1.7282 2.0301 3.1656 1.013 1.4416 0.14234 2.019-1.0172 2.019-1.1595 0-0.57764 2.3015-0.2888 3.8843 0.2888 1.5828-0.28884 1.8736-1.1637 0.57746-0.86647-1.2962-0.2888-3.311-0.1423-5.758 0.1423-2.4469 0.28883-1.8736-1.306-2.4469-1.5948-0.57743-1.306-0.8641-0.72417-2.3057 0.57767-1.4374 1.1595-2.1603 0.43533-2.879-0.72833-0.7187-0.58183-1.1508 0.57767-1.2962 1.1595-0.14126 0.72833-1.0054 1.7413-1.2962 1.0172-0.28667 1.4525 0.1454 1.5948-1.7241 0.1214-1.562 0.6488-2.5217 1.8292-2.0481 0.7116 2.4054 1.6367 6.1485 2.2687 7.266z" fill="#dabcb0" stroke-width="4.1701"/>
<path d="m838.79 309.12c0 3.0244 0 4.1752 1.306 5.3259 1.306 1.1508 1.1595 2.3015 1.7413 5.0393 0.57764 2.7336 0.57764 8.6369 2.319 12.667 0.51903 1.2006 1.2348 2.7253 1.9674 4.3122 0.96273-0.75193 1.7999-2.0439 2.0971-2.7294 0.43116-1.0095-0.87064-3.0244-1.8878-4.7484-1.013-1.7282 0.14654-2.3057 1.1595-4.4659 1.0172-2.1561-0.1423-2.3015-1.7371-2.879-1.599-0.5733-1.599-2.0149-2.4697-4.3164-0.87066-2.3015-0.72416-3.311-0.14233-4.6072 0.57767-1.2962 0.14233-2.3015-1.0172-2.5923-1.1595-0.28663-0.87066-1.1508-0.43533-2.5882 0.43533-1.4416 0.72417-1.7282-1.013-1.2962-1.3186 0.32404-1.6367 0.56917-2.0302 1.0428 0.0963 0.41543 0.14233 0.99287 0.14233 1.8362z" fill="#dabcb0" stroke-width="4.1701"/>
<path d="m855.47 315.17c-0.15904 1.7282-0.1465 2.5923-0.58184 3.1656-0.43113 0.57747-0.1423 1.4416 0.29304 2.3057 0.43533 0.8641 0.72413 2.0149 0.2888 3.5977-0.4353 1.5828 0.28883 2.879 1.1595 3.311 0.87066 0.43207 1.306 0 1.0172 2.0149-0.293 2.0149 0.87067 4.1751 1.8836 5.0393 1.0172 0.8641 1.7413 2.3015 1.5948 3.1656-0.14233 0.8641 0.72833 1.7282 1.7413 2.1603 1.0172 0.43204 0.87067 0.57744 0.87067 1.1507 0 0.57746 0.43533 0.57746 1.5948 0.86413 1.1595 0.28663 2.0302 1.0095 3.3362 2.5923 1.306 1.5828 3.1896 2.4469 2.9008 0.7187-0.28884-1.7282 0-2.879-1.7413-3.7431-1.7371-0.8641-3.0431-5.0392-3.7715-7.9182-0.72417-2.879-3.0431-6.7633-4.3491-7.482-0.1465-2.019 0.1465-3.0244-1.1595-4.0339-1.306-1.0054-1.7413-2.3015-1.7413-3.311 0-1.0054-0.72416-2.3015-1.306-2.5882-0.57766-0.2908-0.87066-1.0095-0.87066-1.8736 0-0.8641-1.013-0.7187-1.1595 0.86413z" fill="#b38c79" stroke-width="4.1701"/>
<path d="m847.79 392.4c2.6078-0.21604 9.6819-2.2683 10.44-2.9164 1.7413 1.1881 4.7886 2.8083 6.0946 2.8083-2.5032 0.54007-4.1357 0.21604-4.7887-0.216 0.3265 0.75607 1.1972 1.9442 1.7413 2.0522-2.3943-0.108-5.1109-0.64807-5.9816-1.5122-2.0678 0.8641-5.5505 1.0801-7.5053-0.21603z" fill="#9cb8c5" stroke-width="4.1701"/>
<path d="m852.46 395.64c0.9251 0.27003 5.5463 1.0261 6.1449 1.0261-1.5237 1.292-0.21767 2.5342 2.3399 2.3181-1.2516 0.16204-2.6162 0.63147-1.6869 0.8101 2.2311 0.43207 8.2671-1.1881 9.4643-1.8362-2.0678 2.6463-12.126 5.0766-16.262-2.3181z" fill="#9cb8c5" stroke-width="4.1701"/>
<path d="m856.6 402.22c1.2474-0.64806 4.3491-0.43203 5.8184 0.27004-1.6325 0.5941-4.8389 0.5941-5.8184-0.27004z" fill="#9cb8c5" stroke-width="4.1701"/>
<path d="m861.27 402.11c2.2311-0.37806 8.5392 1.1341 10.77-0.21603-0.76184 1.9983-4.7342 2.2683-6.0946 1.8362-1.3562-0.43206-2.6622-0.97213-3.5873-0.9181 0.48974-0.27006-0.3265-0.32406-1.0883-0.7021z" fill="#9cb8c5" stroke-width="4.1701"/>
<path d="m863.56 405.19c1.6869 0.2659 7.7229-0.48603 9.5731-1.1881 1.9548 0.64806 5.8184 1.6701 6.689 1.562-1.8502 1.1342-5.3872 0.48607-6.5258 0-3.265 1.0801-5.9314 1.4042-9.7363-0.3739z" fill="#9cb8c5" stroke-width="4.1701"/>
<path d="m866.44 406.2c2.4152 0.54007 4.4747 0.1537 6.8523-0.63563 0.7409 0.31573 2.4864 0.7021 4.1273 0.62317 1.0925 0.619 2.5617 1.4831 3.9766 1.5911-1.4692 0.59407-6.8565 0-7.9406-0.5941-2.7208 0.05403-7.4006 0.6481-8.5392 1.5662-0.0544-0.7561 0.43953-1.8071 1.5237-2.5508z" fill="#9cb8c5" stroke-width="4.1701"/>
<path d="m863.56 394.02c1.8836 0.62316 8.7024 0.32403 12.181-1.2962 1.373-0.63977 2.2227 0.43207 0.653 0.97213-5.6551 1.9442-10.117 2.7003-13.378 0.9721-1.2893-0.6813-1.4148-1.2962 0.54417-0.64806z" fill="#9cb8c5" stroke-width="4.1701"/>
<path d="m896.95 384.84c-8.3759 3.8843-13.926 5.0725-25.563 1.5122-1.0841-0.33237-1.8502 0-0.653 0.7561 1.1972 0.75193 7.6141 2.4801 9.1378 2.5882 1.5237 0.108 0.9795 0.8101 0.05444 1.0801-0.9251 0.27003-1.1972 0.9181 0.0544 0.43203 1.2516-0.48603 8.242-0.66883 11.097 0.8101 1.2474 0.6481 1.5739 0.54007 1.4651 0.05403-0.10883-0.48606 0.54417-0.81009 1.4692-0.91813 0.92507-0.108 1.4692-0.43203 0.76184-0.7021-0.70744-0.27003-0.81627-0.43203-0.2721-0.70206 0.54416-0.27004 0.5986-0.54007-0.21767-0.7021-0.81623-0.162-1.3604-0.37804-0.59857-0.7561 0.76184-0.37387 1.9046-0.64807 2.7752-0.75194 0.21766-0.59406-0.16324-2.1603 0.48973-2.7003z" fill="#9cb8c5" stroke-width="4.1701"/>
<path d="m883.03 385.81c4.7886 0.3365 13.6-1.8362 18.28-6.3687 1.6283 0.96796 3.9138 2.0481 5.1109 2.2641 1.1972 0.21603 2.2855 1.2962 0.43533 1.2962-1.8501 0-4.4621-0.7561-5.6551-1.2962-6.2035 3.7805-13.462 5.0226-18.062 4.6446-1.3018-0.10803-1.6283-0.6481-0.10883-0.54007z" fill="#9cb8c5" stroke-width="4.1701"/>
<path d="m868.89 359.9c1.6325 1.1341 4.5166 3.0202 8.2671 2.7502 1.8501 1.4582 4.7342 2.7003 6.0402 2.9704-2.5031 1.0261-5.224 1.8902-5.9314 2.7003-1.1428-1.0801-2.6078-0.91813-2.9887-1.4582-1.0883 0.86414-0.92506 1.4042-0.21766 1.8362 0.70743 0.43206 6.1993 1.3502 7.5597 0.97213s1.7246 0.73947 0.59856 1.13c-2.9385 1.0261-8.648 0.054-10.607-3.0742-1.959-3.1324-3.6459-4.3206-8.9745-1.4582-0.5986-1.5122-0.5986-1.8902-1.6325-1.8902-1.0339 0-2.9385-1.3502-1.4693-1.2962 1.4693 0.054 5.8226-0.59407 9.3554-3.1822z" fill="#9cb8c5" stroke-width="4.1701"/>
<path d="m870.19 366.86c-0.90833 0.22434-3.4826 1.6202-4.4035 1.7282-0.92507 0.108-2.5576 1.4042-0.87067 1.4582 1.6827 0.05404 3.8594-1.7822 5.0565-1.9442 1.1972-0.16203 1.306-1.5122 0.21767-1.2422z" fill="#9cb8c5" stroke-width="4.1701"/>
<path d="m875.47 372.31c-0.6446 0.11216-3.424 0.7561-4.1859 0.7021-0.76183-0.054-1.5237 0.16203-1.4692 0.7021 0.0544 0.54006 0.27207 0.8641-0.87067 0.75606-1.1427-0.108-2.1222 0.32407-2.3943 0.6481-0.27207 0.32404-0.48973 0.64807 0.653 0.7561 1.1428 0.108 1.7413 0.21604 3.0473-0.37806 1.306-0.59407 2.5576-1.5122 3.9724-1.5662 1.4106-0.054 2.8255-1.8902 1.2474-1.6202z" fill="#9cb8c5" stroke-width="4.1701"/>
<path d="m871.55 375.66c1.1888 0.7644 7.0699 2.7543 9.1922 2.5923 2.1222-0.16203 1.7246 0.84334 0.10883 1.1881-3.3194 0.69793-7.3713-0.7353-10.117-2.9164-1.3604-1.0801-0.10884-1.4582 0.81626-0.8641z" fill="#9cb8c5" stroke-width="4.1701"/>
<path d="m899.4 378.52c-4.4998 1.4249-9.0834 0.9181-10.934 0.43203-1.8501-0.48603-3.5371-0.59407-2.2855 0.5941 1.2516 1.184 5.2784 1.9941 7.5597 1.4-8.1038 1.8362-10.226 1.6742-12.235 1.3502-2.0134-0.32404-5.7933-0.2534-7.3964-0.108-1.1972 0.108-2.8297-0.054-3.5371-0.48607-0.70743-0.43203-0.9251-1.2422 1.1972-1.0261 2.118 0.21603 2.3943-0.21604 0.54413-0.48607-1.8501-0.27003-4.4077 0.48607-1.9046 2.0523 2.5032 1.5662 7.995-0.108 11.478 0.8641 3.4785 0.97213 10.875 1.6742 17.895-3.9425 0.36-0.28667 0.9795-1.076-0.3809-0.64393z" fill="#9cb8c5" stroke-width="4.1701"/>
<path d="m877.32 371.94c0.16326 0.54007 0.16326 1.1341 0 1.5122-0.16324 0.37804-0.16324 0.8641 0.54416 0.32404 0.7074-0.54007 1.1427-1.1882 1.8502-0.8101 0.7074 0.37803 2.5031 0.32403 3.3152 0.21603 0.82043-0.10803 1.0883-0.27003-0.10463-0.7561-1.1972-0.48607-2.3943-0.6481-3.0473-0.5941-0.653 0.05403-1.4692-0.108-2.0134-0.32403-0.54416-0.21604-0.7074-0.108-0.54416 0.43206z" fill="#9cb8c5" stroke-width="4.1701"/>
<path d="m888.91 374.04c-0.92507 0.054-2.5576-0.54007-3.4282-0.91813-0.87066-0.37804-2.118-0.43204-1.193 0.8101 0.9209 1.2422 4.9477 1.9443 6.3625 1.3502 1.4148-0.5941 0.81623-1.2422 2.2269-0.37807 1.4148 0.8641 2.8841 1.4582 3.918 1.4582s1.4148 0 0.27206-0.6481c-1.1427-0.64807-1.6869-0.8101-1.7957-1.3502-0.10883-0.54006-0.27207-0.8641 0.76183-0.54006 1.0339 0.32403 2.2311 0.9181 3.0473 0.48606 0.81623-0.43206 2.3357-1.4042 3.6961-1.4042l0.3265-0.8101c-1.959-0.16204-3.2064 0.43203-3.7505 0.64806-0.54416 0.21604-1.5237 0.32404-2.5576 0.16204-1.0339-0.16204-2.3943-0.27004-2.7208-0.54007s-0.3265-0.48607 0.54417-0.6481 1.1428-0.7561-0.0544-0.54007c-1.1972 0.21604-4.4035 0.108-6.0905-0.43206-1.6869-0.5359-2.3943-0.5899-3.1017-0.32404-0.7074 0.27004-0.59857 1.0261 0.43533 1.0801 1.0339 0.054 3.3738 0.27003 4.1901 1.0261s0.7074 0.8101-0.21767 0.43207c-0.92506-0.37807-2.612-0.16204-0.87066 1.0801z" fill="#9cb8c5" stroke-width="4.1701"/>
<path d="m903.1 372.1-0.3265 0.8101c2.0134-0.05404 6.9109 0.43203 8.4848 1.4042 1.5236-1.1882 1.2516-1.5662 2.3399-1.3502 1.0883 0.21603 2.4487 0.59406 3.0473 0.27003 0.5986-0.32403 1.0339-0.27003 1.6869-0.16203 0.64883 0.10803 2.0637-0.162 2.8799-0.64807 0.81623-0.48607 2.5032-1.1342 3.4826-1.1342 0.9795 0 2.1725-0.216 0.38093-0.48603-1.7957-0.27003-4.5166 0.27003-5.4416 0.59407-0.9209 0.32403-3.6961 0.54006-5.3286 0.54006s-3.8594 0.8101-5.7095 0.32404c-1.8502-0.48607-4.4077-0.162-5.4961-0.162z" fill="#9cb8c5" stroke-width="4.1701"/>
<path d="m928.28 371.13c-3.2608 2.3763-7.1788 2.9164-11.854 3.2404-1.3604 0.09557-0.9418 0.47777 0.21767 0.59407 4.8933 0.48607 10.553-1.2962 12.399-3.2404 0.5358-0.56083 0.4772-1.4914-0.76183-0.59407z" fill="#9cb8c5" stroke-width="4.1701"/>
<path d="m906.04 376.63c1.4148 0.054 6.3081 1.2962 7.8862 1.8362 1.1971-0.10804 1.5236-0.37807 1.306-0.81014-0.21766-0.43203-0.3809-0.9181 1.7958-0.8101 2.1725 0.10804 7.1788 0.05404 8.1038 0.05404 0.76184-0.32407 2.4446-1.6202 3.2064-1.6742-1.9548 0.10804-10.113 0.54007-11.147 0.43207-1.0339-0.108-1.5781 0-2.2311 0.37803-0.653 0.37807-1.0339 0.54007-1.8502 0.21604-0.81623-0.32404-2.2855-0.7561-3.0975-0.27004-0.81627 0.48607-2.5032 0.054-3.9724 0.6481z" fill="#9cb8c5" stroke-width="4.1701"/>
<path d="m925.13 376.9c0.76184-0.32407 2.4446-1.6202 3.2064-1.6742 1.4148-0.108 3.0473 0.48607 3.8091 0.5941 0.76183 0.108 1.5781-0.05403 1.0339-0.6481-0.54417-0.59406-0.05443-1.6202 2.1766-1.3502 2.2269 0.27003 3.3696 0.64806 5.5463 0.43206 2.1766-0.21603 3.1561 1.4042 7.2876-0.21603-0.3265 1.6202 0.43533 1.7282 1.1972 1.4042 0.76183-0.32404 1.6325-0.21604 2.9385 0.7561 1.306 0.97213 9.2466 1.0801 11.097 0.7561 1.846-0.32404 2.8255 0.64806 1.4106 1.0801-1.4106 0.43207-1.7413 1.0801-1.4106 1.5122 0.32233 0.4279 0.6488 0.96797-1.0883 0.75193-1.7413-0.21603-2.0678 0.32404-2.9385 0.97214-0.87067 0.64806-1.0883 0.8641-3.4827 0.43203-2.3901-0.43203-2.8255-0.108-4.1314 0.10803-1.306 0.216-1.6325 0.216-2.9385-0.21603-1.306-0.43207-4.1315-0.86413-5.8728-0.32403-1.7413 0.54006-3.0473 1.0801-4.571 0.64806-1.5237-0.43206-1.6325-0.21603-0.653-1.1882 0.9795-0.9721 1.1972-0.8641 3.0473-1.0801 1.8502-0.21186 3.265-0.75193 1.959-1.508-1.306-0.7561-1.7413-0.64807-3.4827 0.21603s-2.612 1.4-4.5668 0.32404c-1.959-1.0801-2.9385-0.8641-4.2445-0.54007-1.306 0.32407-3.4785-0.43203-5.3286-1.2421z" fill="#9cb8c5" stroke-width="4.1701"/>
<path d="m931.66 380.14c-2.4906 0.35313-3.1603-1.238-5.764-0.91397-0.87067 0.10804-2.3399 1.184-0.3265 1.022 2.0092-0.16203 4.1859 0.9181 6.1449 0.75607 1.959-0.162 1.0883-1.0261-0.0544-0.8641z" fill="#9cb8c5" stroke-width="4.1701"/>
<path d="m928.77 382.03c1.3102-0.4736 4.0268 0.43207 5.1695 0.21604 1.1428-0.21604 2.2311 0.48606 1.0339 0.8641-1.1972 0.37806-4.0812-0.70207-5.3872-0.32404-1.306 0.37807-2.6078-0.108-0.81623-0.7561z" fill="#9cb8c5" stroke-width="4.1701"/>
<path d="m902.77 388.99c1.7958 0.05816 8.2671-0.21604 10.825-5.6126 0.19673-0.41543 0.3809-0.59407 1.1972-0.054 0.81624 0.54007 3.8091 2.3223 9.4098 2.8084 1.5697 0.1371 3.265 0.9181 0.10883 0.70206-3.1562-0.216-8.1583-1.0801-9.8452-2.1062-2.8297 4.4244-7.9113 4.9478-11.695 4.8564-2.2813-0.054-1.7371-0.64806 0-0.59406z" fill="#9cb8c5" stroke-width="4.1701"/>
<path d="m916.75 381.65c-0.87067 1.1881-3.8636 3.2404-5.224 3.3484-1.3562 0.108-5.4375-0.27003-6.4714-0.6481-1.0339-0.37803-2.2855-0.27003-0.81624 0.7561 1.4692 1.0261 5.1151 1.7282 6.5802 1.4042 1.4692-0.32403 3.1561-0.8101 4.2989-0.108 1.1428 0.7021 3.265 2.0481 4.5124 1.7781 1.2516-0.26587 3.8091-0.26587 4.6254 0.108 0.81626 0.37806 2.2311 1.5122 0.10883 0.86413-2.1222-0.6481-3.8635-0.10803-4.843-0.54007 1.0883 1.5122 3.558 3.9425 5.6593 3.9425 0.48973 0 0.81623 0.86413-0.21767 1.3502 1.0339 0.48603 3.424 0.8641 4.6756-0.27004-0.3265 0.43204-0.16326 0.70207 0.3809 0.9721 0.54417 0.27004 1.1972 0.6481 0.21767 0.7561s-3.2064 0.37804-3.8594 0.108c2.118 1.346 7.6141 3.5063 13.215 2.4262 1.0674-0.20357 1.6325-0.64393-0.10883-0.59407-3.5915 0.108-3.805 0.054-4.458-0.3199-0.653-0.3822-0.54417-0.7021 0.48977-1.0261 1.0297-0.32403 3.6417-0.70207 4.73-0.70207s2.1767-0.43206-0.05443-0.43206c-2.2311 0-4.9477 0-6.036-0.37804-1.0883-0.37806-1.9046-0.86413-0.76179-1.6202 1.1427-0.75607 2.3399-0.54007 2.8841-1.2421-3.5915-0.054-7.9992-1.9443-5.5505-3.6683 0.5693-0.403 0.38094-0.43207-0.54413-0.54007-0.9251-0.10803-3.6417-0.86413-4.7845-1.5122-1.1428-0.6481-0.38093-1.1882 0.54417-1.3502-2.1222 0.37803-6.3667-0.7561-9.1922-2.8624z" fill="#9cb8c5" stroke-width="4.1701"/>
<path d="m948.68 381.55c-1.959 1.4582-5.6551 2.0522-7.2332 2.0522-1.5781 0-1.7958 0.54007-0.54417 0.7021 1.2516 0.16204 2.612 0.32404 3.1561 0.16204 0.54417-0.16204 0.87067-0.21604 1.6827 0.162 0.81623 0.37806 2.5576 0.59406 4.0812 0.10803 1.5237-0.48607 4.0226-0.7021 5.0565-0.6481s2.1767 0.10803 0.10884-0.48607c-2.0636-0.59406-5.4375-0.162-6.2537 0.054-0.81624 0.21604-3.0473 0.05404-1.8502-0.32403 1.1972-0.37803 2.2311-0.9721 2.8297-1.4582-0.43534-0.10803-0.70744-0.21603-1.0339-0.32403z" fill="#9cb8c5" stroke-width="4.1701"/>
<path d="m947.65 385.76c-1.6869 1.2422-4.1315 2.4262-6.6346 2.5342 2.2855 0.8101 4.1901 3.1324 5.6551 3.0244-0.7074 0.43203-1.5739 1.0801-2.499 1.1881 1.4148 0.37806 3.805-0.054 5.764-1.1341 3.265 0.91809 7.5053 0.32403 8.9201-0.8641-2.1222 0-4.6756-0.7561-5.8184-1.7282 1.0339 0 2.0092-0.64806 2.499-1.238-2.4446 0.4279-6.6346-0.7561-7.8862-1.7822z" fill="#9cb8c5" stroke-width="4.1701"/>
<path d="m944.17 392.5c0.9251-0.108 1.7916-0.7561 2.499-1.1881-1.7915 0.59406-9.6275-0.6481-11.963-2.7003-2.3399-2.0481-2.3399-0.48606-0.7074 0.9721 1.6325 1.4582 4.5124 3.6725 10.172 2.9164z" fill="#9cb8c5" stroke-width="4.1701"/>
<path d="m949.93 397.47c-0.9795 0.54007-5.6551 0.86414-7.1788 0.54007-1.5237-0.32403-2.1767-0.162-1.7958 0.43207 0.38093 0.59406 0.54417 1.1341-0.7074 0.97213-1.2516-0.16203-3.4827 0.108-4.4035 0.43203-0.9251 0.32407-2.0678 1.1342-0.10884 0.8101 1.9548-0.32403 3.7505-0.70206 5.2198-0.32403 1.4693 0.37807 6.689 0.48607 7.723 0.054 1.0339-0.43203 0.32646-0.43203-0.16327-0.43203s-0.7074-0.32407 0-0.6481c0.7074-0.32404 1.2516-1.2421 1.4148-1.8362z" fill="#9cb8c5" stroke-width="4.1701"/>
<path d="m904.68 391.21c-1.959 0.86413-8.4848 2.5923-10.226 2.7004-2.1767 0.9721-3.9138 1.5122-5.0021 1.5122 0.76184 0.6481 3.6961 1.292 4.8933 0.97214-0.653 0.64393-2.1725 1.4-2.7166 1.7241 1.7371-0.21603 3.805 0.21604 4.6756 0.32404-2.2855 1.2962-5.4375 1.7282-7.07 1.5122 0.54416 0.7561 1.306 1.5122 2.2855 1.5122-2.0678 0.54007-4.571 0.54007-5.877 0.10804 0.54417 1.0801 1.0883 1.7282 1.8501 1.8362-1.7413 0.21603-3.918 0.54007-5.7639-0.54007 1.4106 1.8362 4.5668 2.4801 9.2466 1.9442 4.6756-0.54007 8.5936-2.5923 9.6819-3.4564-1.959 0.21604-4.571 0.32404-5.877 0.108 2.612-0.64806 8.2671-3.0244 9.2466-3.9965-1.0883 0-2.1725-0.32403-2.9385-0.8641 1.5237 0.21604 6.8565-0.4279 8.489-1.076-1.959-0.43207-3.1562-1.6202-3.7003-2.3763 6.8523 2.1603 14.479 1.454 18.167 0.54006 0.87064-0.21603 0.9753-1.3128-0.76183-1.1882-3.0473 0.21603-8.9201-0.64807-10.444-1.4042 1.4148 1.0801 3.1561 1.7282 4.3533 1.9442-2.8296 0.7561-6.7434 1.2962-12.512-1.8362z" fill="#9cb8c5" stroke-width="4.1701"/>
<path d="m891.63 398.12c0.54417-0.32403 2.0636-1.0801 2.7166-1.7241-1.1972 0.31986-4.1315-0.32404-4.8933-0.97214 1.0883 0 2.8255-0.54006 5.0021-1.5122-3.9138-0.10804-6.6346-0.10804-8.0494-0.86414-1.4148-0.7561-4.0226-0.54006-5.0021-0.32403s-0.653 1.8362 3.4785 1.4042c-1.7413 1.1882-6.417 1.6202-8.1583 1.1882 0.43533 1.4 0.76183 2.8042 0.3265 3.5603 2.2855 1.2962 8.2671 2.9164 11.206 2.7003-2.612-0.97214-4.0268-2.0523-1.8501-2.2683 2.1766-0.21604 3.3738-0.64807 5.224-1.1881z" fill="#9cb8c5" stroke-width="4.1701"/>
<path d="m884.88 405.14c5.2072-0.43203 12.181-0.52343 17.731-5.1846 1.4148-1.1882 2.365-0.78934 0.9795 0.43203-2.9343 2.5923-10.226 6.1526-17.187 6.2606-2.8339 0.0457-4.1315-1.2962-1.5237-1.508z" fill="#9cb8c5" stroke-width="4.1701"/>
<path d="m923.88 396.6c-1.306 0.48607-4.9519 1.0801-6.036 0.91814-1.0883-0.16204-2.6664-0.21604-3.5371 0.32403-0.87067 0.54007-0.92507 0.8641 0.2721 0.9721 1.1971 0.10803 2.7208 0.21603 3.4826 0.16203-0.9795 0.54007-1.6325 1.2962-1.8502 1.6202 1.7413-0.43203 4.9477 0.32404 5.8728 0.8641-0.70743 0.21604-1.5237-0.054-2.1222-0.37803 2.9385 3.0784 11.641 3.0784 13.056 2.5383-0.653 0.48604-1.2516 0.9721-1.9046 1.1341 2.4487 0.43203 5.2742 0.37803 8.0494-1.2422-0.92507 0.16203-3.6961-0.108-4.4035-0.162 0.54417-0.54007 1.3562-1.0261 2.118-1.2422-1.0841-0.21603-4.5124-0.10803-5.3286 0.32404 0.3265-0.64807 0.92507-1.4582 1.5781-1.7282-4.2989 0-9.5187-0.05404-11.423-1.0802 3.0473 0.32407 6.4211-1.4582 7.8318-1.4582-2.3901-0.054-5.0021-0.59406-5.6551-1.5662z" fill="#9cb8c5" stroke-width="4.1701"/>
<path d="m912.94 398.98c-2.1222 0.43207-5.3286 1.2962-6.1993 1.7822-0.87067 0.48606-1.7957 0.7561 0.10883 0.7561 1.9046 0 7.07 0.216 8.2127 0.37803-2.8841-0.43207-6.7979-0.54007-7.5597-0.54007s-1.6325-0.054-0.21767-0.48606c1.4148-0.43204 3.265-1.4042 5.6551-1.8902z" fill="#9cb8c5" stroke-width="4.1701"/>
<path d="m908.65 404c0.75763 0 4.077 0 5.383-1.1341 1.3604 1.0261 3.9724 2.4801 5.6551 2.4801 1.6869 0 1.5237 0.43206 0.05443 0.5941-1.4651 0.162-4.3491-0.69794-5.8184-1.7781-1.959 0.70207-3.5873 0.108-5.2742-0.16203z" fill="#9cb8c5" stroke-width="4.1701"/>
<path d="m883.47 418.52c3.3696 1.2961 7.8318 2.2683 11.093 1.1881 1.8502 1.6202 5.6593 1.7282 7.7229 1.2962 2.0678-0.43207 3.918-0.6481 6.2035 0.108 2.2813 0.7561 6.9611 0.8101 8.2671 1.8861-1.1972 0.05817-3.7547 0-4.3533 0.16617-0.5986 0.15786-0.2721 0.5359 0.81623 1.13-3.6961-0.21604-10.063 1.3502-12.018 3.0244 0.70323-1.6742 2.8799-3.9425 6.3081-3.9425-1.959-0.69793-8.2127-0.75193-10.226 0.48607-0.59857-0.64807-1.306-1.7241-1.3604-2.1561-3.3152 1.8861-9.8452-0.81013-12.453-3.1864z" fill="#9cb8c5" stroke-width="4.1701"/>
<path d="m874.82 412.48c4.0143-0.56914 6.7476-1.8362 7.9448-3.0244 0.70743 0.64807 3.6417 1.2962 6.8523 0.32403-0.653 0.48607-0.70743 1.4042-0.43533 1.8902-2.1222 0.054-6.1491 1.0801-7.5053 1.7822-1.3604 0.69793-5.3328 1.184-6.6346 0.4819-1.306-0.69793-1.3604-1.292-0.22187-1.454z" fill="#9cb8c5" stroke-width="4.1701"/>
<path d="m889.18 411.67c-2.1222 0.054-6.1491 1.0801-7.5053 1.7822 0.2721 0.54007 0.43533 1.4 0.48976 1.9941 3.9138-1.4042 12.888-2.2641 16.317-1.7241-1.6325 0.108-4.7342 1.7781-6.4714 1.9941 4.2403-0.32403 8.3759 0.54007 9.4601 0.8101 1.0883 0.27004 1.306 1.0801 0.48973 1.8362-0.81623 0.7561-1.193 0.8641 0.54417 0.9181 1.7413 0.05403 5.3328-0.162 6.9653-1.7282-0.653-0.7021-2.3399-0.43207-2.8297-0.91814 1.1428-0.37803 2.4487-1.1881 2.9385-1.7822-2.9385-0.05403-4.0268-0.10803-5.0063-0.32406-0.9795-0.21187-1.6869-0.48604-0.48976-1.13 1.1972-0.6481 1.7413-1.1882 2.1222-1.6202-2.1222 0.59407-5.4374 1.0801-8.2127-1.0801 1.0339 0.27003 3.4785 0.108 4.3491-0.27004-0.9251-0.48606-1.6827-0.86413-2.4446-0.86413 2.2269-1.0801 6.6346-2.0522 12.072 0.10803 2.7208-0.21603 5.6593-0.10803 7.7229 0.43204 0.87067-0.8641 2.7208-2.9164 3.7003-3.4564-6.417 0.54007-17.949-0.64806-17.731-3.9923-2.0678 2.6962-6.8523 4.2084-8.9201 3.7763-0.21766 0.9721 0.653 2.1603 1.4148 2.8083-2.1766 0.43206-5.877 0.7561-7.6141 0.43206 0.9795 0.9721 2.8255 1.8362 3.9138 1.7282-2.2813 0-3.4785 0.43207-5.2742 0.27004z" fill="#9cb8c5" stroke-width="4.1701"/>
<path d="m902.5 419.28c1.7413 0.05403 5.3328-0.162 6.9653-1.7282-0.653-0.7021-2.3399-0.43207-2.8297-0.91814 1.1428-0.37803 2.4487-1.1881 2.9385-1.7822 4.5668-0.3739 8.648-0.15786 10.603-0.75196 1.959-0.59407 6.9653-0.27004 7.9448-0.54007-4.3533 0.69793-5.224 1.076-5.4416 1.7781-0.21767 0.7021 1.4148 1.2962 2.4487 1.2962-1.959-0.108-4.4077 1.9443-4.6254 2.7544-2.6078-1.5122-3.8594 0.27003-4.1315 0.8641-1.0883-0.43207-4.6798-0.32403-6.53 1.2422-2.3901-0.7021-3.9682-1.0801-6.3625-0.7021 1.4692-0.32404 1.1972-1.2962-0.9795-1.5122z" fill="#9cb8c5" stroke-width="4.1701"/>
<path d="m923.39 406.65c1.4692-0.054 4.6756 0.10804 5.8184-0.054-0.76183 0.37807-1.7371 1.0801-1.9548 1.4042 3.6961-0.43203 8.7527-0.70207 10.222-0.48603-1.7916-0.27004-3.6417 0.8641-4.5668 1.4582-0.92507 0.59407-0.3809 0.97214 0.87067 1.1341 1.2516 0.16203 2.9385 1.1342 0.65299 0.8101-2.2855-0.32404-6.7979-0.32404-7.8862-0.162-1.0883 0.162-1.6869-0.37807-0.10884-0.59407 1.5781-0.21603 2.6622-0.7561 3.4241-1.1882-1.306 0.32404-3.805 0.32404-4.5668 0.108-0.76183-0.216-1.2516-0.64806-0.38093-0.8641 0.87066-0.21603 0.2721-0.54006-0.653-0.43203-0.92507 0.108-3.265 1.0801-4.571 2.3223 1.4148-1.4582 2.6664-2.7543 3.7003-3.4564z" fill="#9cb8c5" stroke-width="4.1701"/>
<path d="m906.8 409.08c1.7957 1.9983 3.9138 3.1324 7.2876 3.2404 0.70743 0.02076 2.026 0.9638 0.3265 1.0261-4.571 0.162-6.8523-0.91813-8.8657-3.8345-0.41443-0.59823 0.3516-1.4333 1.2516-0.43207z" fill="#9cb8c5" stroke-width="4.1701"/>
<path d="m934.05 371.34c2.4027 1.1258 7.2332 2.1063 10.988 1.9442 0.653-0.02907 1.9674 0.6647 0.32234 0.8101-4.2403 0.37803-8.0495-0.21187-11.582-2.1603-0.9795-0.54006-0.653-1.0261 0.27206-0.59406z" fill="#9cb8c5" stroke-width="4.1701"/>
<path d="m936.5 371.29c3.6961-0.108 6.4713-0.054 7.6141 1.0261 2.118-0.64807 5.9272-1.0261 6.7979-0.8641 0.87067 0.16203 1.8501-0.21604-0.16326-0.7021-2.0134-0.4819-6.689-0.6439-8.1583-0.37387-1.4692 0.26587-6.0402 0.4279-7.5597 0.26587 0.653 0.108 1.0842 0.21603 1.4693 0.64806z" fill="#9cb8c5" stroke-width="4.1701"/>
<path d="m950.86 372.75c1.7413-0.91813 6.7435-0.054 8.2671-0.7021-1.0883 1.2962 3.4827 1.4042 7.4509 0.37807-1.5237 0.9721-4.7845 1.1341-6.1993 1.7282-1.4148 0.59407-2.1767 0.16203-3.265-0.32403-1.0883-0.48607-3.8594-1.4582-6.2537-1.0801z" fill="#9cb8c5" stroke-width="4.1701"/>
<path d="m966.57 372.42c-3.9682 1.0261-8.5392 0.9181-7.4509-0.37807-1.5236 0.6481-6.5258-0.21603-8.2671 0.7021 1.7957-1.0801 3.1562-0.21603 4.458-2.4303 0.81623 0.16617 2.7208 0.27417 3.3738-0.58993 1.1428 0.27003 3.1562 0.7561 3.7547 1.346 0.5986 0.59407 1.5195-0.16203 0.75767-1.076 1.7957-0.64806 0.65716 0.76857 4.843-0.27003 0.87067-0.21603 2.9929-0.59407 3.7003-0.64807-1.4148 1.1341-3.1017 2.3721-5.1696 3.3443z" fill="#9cb8c5" stroke-width="4.1701"/>
<path d="m889.34 354.31c-0.07116-8.1675-0.8665-76.532-0.8665-92.335 0-3.7805-1.959-3.0244-1.959 0v91.903c0.89996 0.16204 2.1139 0.32407 2.8255 0.43207z" fill="#f2d049" stroke="#000" stroke-width=".52126"/>
<path d="m919.6 257.01 3.3989 97.466-0.5944 0.781-1.9716 0.0291-2.1473-98.276z" fill="#f2d049" stroke="#000" stroke-width=".52126"/>
<path d="m948.25 339.31c-0.27627-9.9248-1.532-55.868-2.0176-78.518-0.06277-3.0202-1.8753-2.4926-1.846 0.108 0.19674 18.242 1.2893 69.262 1.4902 78.464 0.7116 0 1.9381-0.07063 2.3734-0.054z" fill="#f2d049" stroke="#000" stroke-width=".52126"/>
<path d="m902.94 273.21-28.937-0.43207c-1.6283 5.8286 5.6593 5.7206 8.3801 4.2084 3.152 2.3763 5.5463 2.1603 7.2876 0.216 2.5032 2.0523 5.6551 1.5122 6.9611 0.21604 3.4827 2.5923 7.07 0 6.3081-4.2084z" fill="#f2d049" stroke="#000" stroke-width=".52126"/>
<path d="m905.11 287.67-29.59-0.108c-5.111 4.8565 1.5237 7.2328 7.183 3.8843 0.76183 1.6202 4.2403 2.5923 6.9611 1.2962 2.5032 1.9442 5.6551 0.54007 7.2876-1.0801 3.0473 1.4042 6.6346 1.8362 8.1583-3.9924z" fill="#f2d049" stroke="#000" stroke-width=".52126"/>
<path d="m904.24 306.03-28.502-0.21603c-0.54417 5.0725 5.224 4.4244 7.5053 3.1324 2.1767 3.3443 6.9653 2.5882 8.8155 0.64394 2.7166 1.8362 5.2198 1.4042 6.6346-0.32404 3.1562 2.7003 5.764-0.75193 5.5463-3.2363z" fill="#f2d049" stroke="#000" stroke-width=".52126"/>
<path d="m905.66 324.38-31.871-0.54007c-1.7413 5.3965 3.152 6.3687 5.4374 5.0725 0.76184 3.1324 5.0021 2.0522 6.0905-0.21603 1.6325 1.6202 3.7003 0.7561 4.6798-0.32404 0.43533 2.9164 4.1315 3.0244 6.9611 0.54007 5.764 3.9965 11.206-0.6481 8.7025-4.5324z" fill="#f2d049" stroke="#000" stroke-width=".52126"/>
<path d="m933.94 316.82-26.543-0.216c1.1972 5.3965 3.805 6.8007 8.0494 3.6683 3.1562 3.2404 8.376 2.0523 9.6819 0.43203 5.764 4.6446 8.9201-0.75607 8.8113-3.8843z" fill="#f2d049" stroke="#000" stroke-width=".52126"/>
<path d="m931.22 298.79-25.672-0.7561c0.4353 6.4767 6.6346 6.2606 9.7907 3.4523 2.3943 3.0244 6.6346 2.1603 8.1583 0 3.265 3.2404 8.5936 1.2962 7.7229-2.6962z" fill="#f2d049" stroke="#000" stroke-width=".52126"/>
<path d="m934.59 278.5h-27.631c0.3265 4.5324 6.417 7.1248 11.097 2.8084 1.3018 5.1805 6.3081 3.5603 8.4848 1.508 3.152 3.9965 10.44-0.5359 8.0494-4.3164z" fill="#f2d049" stroke="#000" stroke-width=".52126"/>
<path d="m932.96 264.68-24.692 0.32406c-0.43533 3.9923 5.4375 5.7206 7.6141 2.4801 1.1972 2.0523 5.3286 1.8362 6.5258-0.108 1.959 3.0244 4.3533 0.97213 5.1109 0 2.8297 2.0523 5.877 1.0801 5.4417-2.6962z" fill="#f2d049" stroke="#000" stroke-width=".52126"/>
<path d="m961.9 273.64-30.243-0.32407c-0.10883 3.1283 3.1561 4.4244 5.1109 3.1283 0 3.0244 4.2445 3.9965 6.9653 1.6202 1.8502 2.5923 7.2876 3.3484 9.4643-0.21604 4.458 3.6725 9.2466 1.0801 8.7024-4.2084z" fill="#f2d049" stroke="#000" stroke-width=".52126"/>
<path d="m961.46 298.25-29.59-0.10803c0.21767 4.1004 5.0021 5.5045 7.7229 3.3443 0.653 3.4564 4.3533 3.6725 6.5258 1.9443 2.612 2.9164 6.9653 3.1324 9.3554-0.10803 3.5915 1.2962 6.3123-1.7282 5.9858-5.0725z" fill="#f2d049" stroke="#000" stroke-width=".52126"/>
<path d="m959.94 320.38-23.391-0.32404c0 4.1045 4.8975 4.6446 7.0741 2.4843 2.2813 2.7004 5.764 2.7004 7.723 0.54007 3.152 2.7004 7.9406 1.9443 8.5936-2.7003z" fill="#f2d049" stroke="#000" stroke-width=".52126"/>
<path d="m922.41 355.26c-12.616 0.21604-25.454 0.21604-34.157-1.0801-8.7024-1.2962-11.444-2.5092-17.405-6.0446-8.9201-5.2885-11.097-6.5847-23.713-13.925-1.9339-1.1258-4.031 0.27003-1.306 2.0481 12.725 8.3129 17.547 11.395 23.604 15.334 6.3081 4.1004 10.377 7.7437 14.249 12.089 5.0063 5.6167 8.7024 5.7247 10.988 4.8606 2.2855-0.86414 5.877-2.0523 9.4643-1.1882 3.5915 0.8641 8.3759 0.97213 10.879 0.54007 2.2855 2.0523 7.5053 1.6202 10.444 0.97213 2.9343-0.6481 5.111-0.97213 7.1788-0.54007 2.0678 0.43207 5.2198 0.108 7.2876-0.21603s7.5053-0.8641 11.314-0.32403c3.8049 0.54006 7.7229 0.21603 10.226-0.54007 2.499-0.7561 7.07-0.54007 8.5936-0.10803 2.1725-1.6202 3.2608-3.6724 3.8049-5.8286 2.5576-0.32403 3.4073-0.63977 3.9724-2.1063 1.0339-2.7003 2.0092-5.3467 2.3399-6.5307h1.0297l0.3265-2.4303-2.118-2.4303 0.7618-4.6404 2.2813-0.54006c0.10883-1.4042-0.54417-3.5645-0.9795-4.4286-13.705 0.54007-27.141 0.97213-36.765 1.1882-1.0883 0.8641-2.2855 3.1324-2.5031 4.5366-5.8728 0.96797-9.3554 1.4-10.879 1.7241-1.5237 0.32403-2.3734 0.4445-3.5873 2.0522-1.959 2.5923-3.8091 5.6126-5.3328 7.5568z" fill="#7e7b80" stroke="#000" stroke-width=".52126"/>
<path d="m966.45 338.76c0.66556-2.2891 2.4446-8.4541 5.6677-20.107 0.53996-1.9443-1.3604-2.7128-2.0636-0.21604-3.8343 13.606-5.2826 18.707-5.7682 20.406 0.73673-0.01247 1.7916-0.0914 2.1641-0.0831z" fill="#5c5568" stroke="#000" stroke-width=".52126"/>
<path d="m987.68 315.96c-4.6254 2.3721-6.8565 3.2903-8.9745 2.4802-1.9506-0.74363-4.8179-1.1632-6.4965-0.34483-0.0042 0.1745-0.0293 0.36143-0.0879 0.56087-1.9841 7.1746-3.4199 12.264-4.3868 15.654 3.424 1.2006 9.3219 1.3626 10.699-0.10383 1.4106-1.5122 5.2742-1.1882 7.2332-1.0801 1.2516-1.6202 1.7413-3.6185 1.4148-4.5906-0.3265-0.9721-0.21767-2.6962 0.2721-4.0463 0.48973-1.3502 1.1427-5.7247 0.3265-8.5289z" fill="#fff" stroke="#000" stroke-width=".52126"/>
<path d="m882.38 276.98c-5.1151 14.682-22.847 47.613-33.546 58.219" fill="none" stroke="#000" stroke-width=".52126"/>
<path d="m857.05 339.99c12.143-9.3224 42.847-39.583 48.066-52.32" fill="none" stroke="#000" stroke-width=".52126"/>
<path d="m875.74 305.81c-1.4106 11.121-4.6463 30.958-6.3877 41.432" fill="none" stroke="#000" stroke-width=".52126"/>
<path d="m880.5 330.6c-4.1315 3.9965-9.9917 10.972-14.345 14.752" fill="none" stroke="#000" stroke-width=".52126"/>
<path d="m919.42 308.4c-3.4785 3.3443-7.4509 7.2452-10.929 8.2173" fill="none" stroke="#000" stroke-width=".52126"/>
<path d="m921.42 308.94c3.0599 3.2363 7.409 6.8921 11 7.8642" fill="none" stroke="#000" stroke-width=".52126"/>
<path d="m919.04 291.02c-3.152 2.6962-7.8318 5.8701-12.072 7.0583" fill="none" stroke="#000" stroke-width=".52126"/>
<path d="m920.82 291.67c2.7208 2.2683 5.6174 5.5752 9.0959 7.0873" fill="none" stroke="#000" stroke-width=".52126"/>
<path d="m907.62 278.5c3.3696-0.9721 8.3885-3.5644 11-6.2606" fill="none" stroke="#000" stroke-width=".52126"/>
<path d="m920.11 271.7c2.9511 3.3443 8.6062 6.0446 11.436 6.8007" fill="none" stroke="#000" stroke-width=".52126"/>
<path d="m908.27 265c3.4785-0.7561 7.7899-2.5923 10.075-5.8327" fill="none" stroke="#000" stroke-width=".52126"/>
<path d="m919.65 258.31c2.9343 2.4843 8.0913 6.0737 11.461 6.3977" fill="none" stroke="#000" stroke-width=".52126"/>
<path d="m944.48 267.97c-1.8878 1.9443-6.5132 5.4381-9.4475 5.3841" fill="none" stroke="#000" stroke-width=".52126"/>
<path d="m946.39 267.81c1.3604 2.1603 4.7886 5.4671 6.7476 5.7372" fill="none" stroke="#000" stroke-width=".52126"/>
<path d="m933.07 298.15c3.8049-1.2962 9.1378-4.387 11.804-7.5734" fill="none" stroke="#000" stroke-width=".52126"/>
<path d="m946.97 290.81c1.1134 1.9941 5.3579 6.5016 7.7522 7.4197" fill="none" stroke="#000" stroke-width=".52126"/>
<path d="m937.58 320.07c1.7413-0.3739 6.4755-2.7087 7.7774-5.463" fill="none" stroke="#000" stroke-width=".52126"/>
<path d="m947.54 313.1c1.7957 2.2143 6.1993 6.2606 8.9201 7.2328" fill="none" stroke="#000" stroke-width=".52126"/>
<path d="m877.7 323.91c5.3286-1.6742 16.099-8.1633 21.432-14.32" fill="none" stroke="#000" stroke-width=".52126"/>
<path d="m888.95 317.36c4.458 3.1283 9.6401 6.2606 13.608 6.9627" fill="none" stroke="#000" stroke-width=".52126"/>
<path d="m876.72 305.82c2.9385-1.2421 6.7979-3.3609 9.7908-6.4351" fill="none" stroke="#000" stroke-width=".52126"/>
<path d="m888.75 298.96c1.1972 1.6701 9.9959 7.0043 13.746 7.0583" fill="none" stroke="#000" stroke-width=".52126"/>
<path d="m886.51 281.74c-2.2855 1.8321-7.7774 5.1265-10.444 5.8286" fill="none" stroke="#000" stroke-width=".52126"/>
<path d="m888.59 281.84c3.0473 2.1021 9.0708 5.8161 13.202 5.8161" fill="none" stroke="#000" stroke-width=".52126"/>
<path d="m886.51 264.84c-2.4488 2.7502-6.5802 7.0001-10.008 7.9722" fill="none" stroke="#000" stroke-width=".52126"/>
<path d="m888.48 265.48c1.9046 3.0244 7.003 7.1123 10.322 7.6523" fill="none" stroke="#000" stroke-width=".52126"/>
<path d="m932.51 283.65c7.6267 13.955 21.771 31.012 36.074 39.973" fill="none" stroke="#000" stroke-width=".52126"/>
<path d="m909.63 268.18c11.582 16.518 34.32 52.74 55.953 66.113" fill="none" stroke="#000" stroke-width=".52126"/>
<path d="m969.57 320.17c-3.4826 4.8066-9.7363 12.309-20.071 19.139" fill="none" stroke="#000" stroke-width=".52126"/>
<path d="m968.27 324.73c-7.2876-11.549-11.055-26.152-16.505-45.382" fill="none" stroke="#000" stroke-width=".52126"/>
<path d="m892.66 330.7 8.9745 24.507" fill="none" stroke="#000" stroke-width=".52126"/>
<path d="m890.99 330.12 7.9364 24.997" fill="none" stroke="#000" stroke-width=".52126"/>
<path d="m889.28 328.97 7.3671 26.015" fill="none" stroke="#000" stroke-width=".52126"/>
<path d="m888.54 329.37 5.6886 25.458" fill="none" stroke="#000" stroke-width=".52126"/>
<path d="m894.02 353.91h7.1118" fill="none" stroke="#000" stroke-width=".52126"/>
<path d="m900.18 351.25h-6.7058" fill="none" stroke="#000" stroke-width=".52126"/>
<path d="m899.44 349.2h-6.4714" fill="none" stroke="#000" stroke-width=".52126"/>
<path d="m898.68 347.12h-6.1742" fill="none" stroke="#000" stroke-width=".52126"/>
<path d="m897.87 344.85h-5.877" fill="none" stroke="#000" stroke-width=".52126"/>
<path d="m891.55 342.9h5.5756" fill="none" stroke="#000" stroke-width=".52126"/>
<path d="m891.15 341.06h5.291" fill="none" stroke="#000" stroke-width=".52126"/>
<path d="m890.7 339.06h5.0314" fill="none" stroke="#000" stroke-width=".52126"/>
<path d="m890.3 337.28h4.7468" fill="none" stroke="#000" stroke-width=".52126"/>
<path d="m889.88 335.43h4.5124" fill="none" stroke="#000" stroke-width=".52126"/>
<path d="m889.52 333.73h4.2696" fill="none" stroke="#000" stroke-width=".52126"/>
<path d="m889.09 332.15h4.1482" fill="none" stroke="#000" stroke-width=".52126"/>
<path d="m888.86 330.82h3.8636" fill="none" stroke="#000" stroke-width=".52126"/>
<path d="m881.86 330.85-5.0565 20.489" fill="none" stroke="#000" stroke-width=".52126"/>
<path d="m883.34 330.51-4.3407 21.644" fill="none" stroke="#000" stroke-width=".52126"/>
<path d="m884.51 329.72-3.512 23.053" fill="none" stroke="#000" stroke-width=".52126"/>
<path d="m885.98 329.24-2.5492 24.108" fill="none" stroke="#000" stroke-width=".52126"/>
<path d="m886.51 351.97h-8.0495" fill="none" stroke="#000" stroke-width=".52126"/>
<path d="m886.51 349.75h-9.3136" fill="none" stroke="#000" stroke-width=".52126"/>
<path d="m886.51 347.48h-8.7694" fill="none" stroke="#000" stroke-width=".52126"/>
<path d="m886.51 345.32h-8.2253" fill="none" stroke="#000" stroke-width=".52126"/>
<path d="m886.51 343.11h-7.6937" fill="none" stroke="#000" stroke-width=".52126"/>
<path d="m886.51 340.68h-7.0825" fill="none" stroke="#000" stroke-width=".52126"/>
<path d="m886.51 338.58h-6.5677" fill="none" stroke="#000" stroke-width=".52126"/>
<path d="m886.51 336.42h-6.0109" fill="none" stroke="#000" stroke-width=".52126"/>
<path d="m886.51 334.31h-5.5086" fill="none" stroke="#000" stroke-width=".52126"/>
<path d="m886.51 332.48h-5.0733" fill="none" stroke="#000" stroke-width=".52126"/>
<path d="m886.51 331.02h-4.6924" fill="none" stroke="#000" stroke-width=".52126"/>
<path d="m886.51 353.88v-24.428" fill="none" stroke="#000" stroke-width=".52126"/>
<path d="m913.58 321.41-16.865 33.567" fill="none" stroke="#000" stroke-width=".52126"/>
<path d="m914.64 320.84-14.358 34.29" fill="none" stroke="#000" stroke-width=".52126"/>
<path d="m915.67 320.5-11.39 34.826" fill="none" stroke="#000" stroke-width=".52126"/>
<path d="m916.41 321.09-8.8573 34.224" fill="none" stroke="#000" stroke-width=".52126"/>
<path d="m907.94 353.74h-10.607" fill="none" stroke="#000" stroke-width=".52126"/>
<path d="m908.76 350.67h-9.8745" fill="none" stroke="#000" stroke-width=".52126"/>
<path d="m909.25 348.19h-9.0834" fill="none" stroke="#000" stroke-width=".52126"/>
<path d="m910.1 345.49h-8.5936" fill="none" stroke="#000" stroke-width=".52126"/>
<path d="m910.54 343.33h-7.9406" fill="none" stroke="#000" stroke-width=".52126"/>
<path d="m911.3 340.84h-7.4801" fill="none" stroke="#000" stroke-width=".52126"/>
<path d="m912.05 337.95h-6.7727" fill="none" stroke="#000" stroke-width=".52126"/>
<path d="m912.62 335.73h-6.2286" fill="none" stroke="#000" stroke-width=".52126"/>
<path d="m913.27 333.2h-5.6426" fill="none" stroke="#000" stroke-width=".52126"/>
<path d="m913.72 331.48h-5.2198" fill="none" stroke="#000" stroke-width=".52126"/>
<path d="m914.14 329.86h-4.7845" fill="none" stroke="#000" stroke-width=".52126"/>
<path d="m914.56 328.21h-4.4077" fill="none" stroke="#000" stroke-width=".52126"/>
<path d="m914.95 326.76h-4.0519" fill="none" stroke="#000" stroke-width=".52126"/>
<path d="m915.33 325.3h-3.7129" fill="none" stroke="#000" stroke-width=".52126"/>
<path d="m915.71 323.8h-3.3487" fill="none" stroke="#000" stroke-width=".52126"/>
<path d="m916.06 322.45h-3.018" fill="none" stroke="#000" stroke-width=".52126"/>
<path d="m927.03 321.95 7.3797 23.181" fill="none" stroke="#000" stroke-width=".52126"/>
<path d="m928.43 322.43 8.9536 22.247" fill="none" stroke="#000" stroke-width=".52126"/>
<path d="m929.71 322.49 10.486 21.756" fill="none" stroke="#000" stroke-width=".52126"/>
<path d="m942.71 342.36-11.566-20.307" fill="none" stroke="#000" stroke-width=".52126"/>
<path d="m942.71 342.34h-9.1754" fill="none" stroke="#000" stroke-width=".52126"/>
<path d="m941.14 339.59h-8.4513" fill="none" stroke="#000" stroke-width=".52126"/>
<path d="m939.57 336.84h-7.7481" fill="none" stroke="#000" stroke-width=".52126"/>
<path d="m938 334.09h-7.0658" fill="none" stroke="#000" stroke-width=".52126"/>
<path d="m936.43 331.33h-6.4002" fill="none" stroke="#000" stroke-width=".52126"/>
<path d="m934.86 328.58h-5.6928" fill="none" stroke="#000" stroke-width=".52126"/>
<path d="m933.29 325.83h-4.998" fill="none" stroke="#000" stroke-width=".52126"/>
<path d="m931.72 323.07h-4.3198" fill="none" stroke="#000" stroke-width=".52126"/>
<path d="m941.2 323.73-7.2206 21.491" fill="none" stroke="#000" stroke-width=".52126"/>
<path d="m943.36 322.76-6.6974 22.031" fill="none" stroke="#000" stroke-width=".52126"/>
<path d="m939.76 344.3 4.9142-20.739" fill="none" stroke="#000" stroke-width=".52126"/>
<path d="m945.94 324.27-4.1357 19.733" fill="none" stroke="#000" stroke-width=".52126"/>
<path d="m934.81 342.74h7.2458" fill="none" stroke="#000" stroke-width=".52126"/>
<path d="m935.71 340.06h6.9067" fill="none" stroke="#000" stroke-width=".52126"/>
<path d="m936.61 337.39h6.5802" fill="none" stroke="#000" stroke-width=".52126"/>
<path d="m937.51 334.72h6.2411" fill="none" stroke="#000" stroke-width=".52126"/>
<path d="m938.41 332.05h5.9021" fill="none" stroke="#000" stroke-width=".52126"/>
<path d="m939.31 329.37h5.563" fill="none" stroke="#000" stroke-width=".52126"/>
<path d="m940.21 326.7h5.224" fill="none" stroke="#000" stroke-width=".52126"/>
<path d="m941.11 324.03h4.2989" fill="none" stroke="#000" stroke-width=".52126"/>
<path d="m949.24 324.46 3.5413 14.736" fill="none" stroke="#000" stroke-width=".52126"/>
<path d="m950.55 323.79 4.8933 15.359" fill="none" stroke="#000" stroke-width=".52126"/>
<path d="m952.21 323.71 5.337 15.379" fill="none" stroke="#000" stroke-width=".52126"/>
<path d="m954.41 324.57 5.3454 14.445" fill="none" stroke="#000" stroke-width=".52126"/>
<path d="m959.27 337.74h-6.8565" fill="none" stroke="#000" stroke-width=".52126"/>
<path d="m958.47 335.58h-6.5132" fill="none" stroke="#000" stroke-width=".52126"/>
<path d="m957.66 333.42h-6.2412" fill="none" stroke="#000" stroke-width=".52126"/>
<path d="m956.85 331.26h-5.9858" fill="none" stroke="#000" stroke-width=".52126"/>
<path d="m956.05 329.1h-5.6844" fill="none" stroke="#000" stroke-width=".52126"/>
<path d="m955.24 326.94h-5.3747" fill="none" stroke="#000" stroke-width=".52126"/>
<path d="m954.44 324.78h-5.0984" fill="none" stroke="#000" stroke-width=".52126"/>
<path d="m885.2 362.92c3.3738-2.1561 9.1378-1.7241 12.076 0.43203 3.4827-1.9401 9.7908-1.4042 12.729 1.1882 4.458-3.0202 8.2671-3.4523 12.616-0.54007 3.3738-2.3722 8.5936-2.5882 12.62 0.216 3.9138-1.8362 8.2671-3.3443 12.072 0.6481-2.2813-1.6202-7.1788-3.0244-12.072 0.7561-3.8091-3.7805-10.444-2.3763-12.62 0.21603-2.8297-3.3484-8.8113-3.8885-12.403 0.216-3.9138-3.2404-9.7866-3.3484-12.943-0.8641-2.5031-1.9442-6.1993-3.5603-12.076-2.2683z" fill="#5c5568" stroke-width="4.1701"/>
<path d="m944.66 358.28c-17.296 2.9662-54.99 0.8641-63.257-1.1882-2.8422-0.70624-2.0678-1.7282 0.3265-1.1881 9.5271 2.1478 29.858 2.1603 41.063 1.6202 2.1767-2.8624 5.6007-7.7188 6.6346-9.069 1.0339-1.3502 1.4902-1.4748 3.6459-1.8362 3.8594-0.64807 6.0653-0.99703 9.4098-1.5662 0.05443 0.43207 0.05443 0.97213 0.05443 1.2962-0.2721 0.21603-0.54417 0.5941-0.76183 0.7021 0 2.2143 0.43533 7.6108 0.87066 9.555 0.4353-0.054 0.97947-0.216 1.2516-0.27003 0.76183-0.21604 1.5195 1.7282 0.76183 1.9443z" fill="#5c5568" stroke-width="4.1701"/>
<path d="m972.99 359.1c0.62367-0.01663 1.9255-0.0457 2.2855-0.05403 0.70743-0.0166 1.6995-0.4985 2.1348-1.5786 0.43533-1.0801 1.7832-5.0725 2.2729-6.7467l-1.7413-2.6048c0.38093-2.1478 0.87067-5.06 0.9251-5.6541 0.87067-0.32403 1.7915-0.64806 2.2269-0.8101 0.10883-0.48606-0.10464-1.8071-0.54417-2.2392-7.4508 0.2825-29.749 1.0511-33.83 1.1051-0.9795 0-1.419-0.04153-1.7916 1.3502-2.0678 7.6648 0.79113 18.42 8.5936 24.615 0.54417 0.43207 1.2307 0.07063 0.32233-0.7561-1.3018-1.1881-3.3152-3.6185-4.6756-6.0197 1.5237-0.02493 4.6128-0.0748 5.5379-0.11216 0.4437 1.8154 1.8334 5.6458 2.1055 6.2939 0.2721 0.64807 0.94183 0.73947 0.6237-0.2285-0.74927-2.2683-1.1427-4.8523-1.4692-6.0945 1.4148-0.03324 4.0812-0.0083 5.7137-0.0997 0.07953 2.0523 0.2972 4.8025 0.35163 5.5585 0.0544 0.7561 0.7074 0.81013 0.71997-0.054 0.01673-0.8641 0.0335-4.5158 0.02093-5.5918 1.8418-0.04986 4.1942-0.1288 5.0649-0.1288-0.1214 1.1674-0.34743 4.9437-0.43113 5.5419-0.12557 0.88073 0.33903 1.2962 0.5567 0.054 0.21766-1.2421 0.653-4.146 0.7744-5.6167 0.7367-0.02077 2.6748-0.0997 3.491-0.12047-0.07953 1.1508-1.1679 4.6487-1.4944 5.5668-0.3265 0.91814 0.20094 0.9472 0.56927 0.07894 0.3851-0.88904 1.5781-4.3995 1.6869-5.6541z" fill="#5c5568" stroke-width="4.1701"/>
<path d="m948.3 358.23c-0.59856-1.1881-2.4487-5.4131-2.612-8.4874 1.5781-0.02906 5.5254-0.10386 7.4299-0.1454 0.28046 2.3181 1.0004 7.3117 1.3814 8.4957-2.2269 0.054-4.9477 0.12464-6.1993 0.13707z" fill="#7e7b80" stroke-width="4.1701"/>
<path d="m954.42 349.57c0.2051 1.7698 1.1386 7.8476 1.2893 8.5497 1.6157-0.09553 5.3579-0.108 6.0067-0.16203-0.067-1.6202-0.3307-7.698-0.36-8.5621-1.6911 0.0457-6.0863 0.1537-6.936 0.17447z" fill="#7e7b80" stroke-width="4.1701"/>
<path d="m945.99 342.05c-0.3014 1.5537-0.3558 4.8731-0.27206 6.2897 1.9046 0.0374 6.5927-0.07477 7.2415-0.1288-0.15903-1.6119-0.4144-4.5282-0.57763-6.3479-1.553 0.06647-5.3579 0.15787-6.3918 0.18697z" fill="#7e7b80" stroke-width="4.1701"/>
<path d="m953.77 341.84c0.0544 1.5122 0.39347 5.2096 0.5023 6.3396 1.645-0.0457 5.6719-0.1288 7.0323-0.1745-0.07117-1.3834-0.293-5.841-0.31814-6.3811-2.185 0.05817-5.8309 0.19527-7.2164 0.21603z" fill="#7e7b80" stroke-width="4.1701"/>
<path d="m962.41 341.58c0.06697 1.4042 0.24697 5.3674 0.19257 6.3936 1.7455-0.0457 5.0816-0.07893 6.1156-0.16203 0.07953-1.4083 0.30973-5.4339 0.2009-6.46-1.959 0.07476-5.0816 0.17863-6.509 0.2285z" fill="#7e7b80" stroke-width="4.1701"/>
<path d="m970.11 341.31c0 1.1881-0.1507 5.3633-0.2051 6.4974 1.7288-0.06647 5.6551-0.20357 6.6765-0.2285 0.27207-1.3917 0.81623-5.006 0.9795-6.5307-1.6325 0.054-6.2579 0.2285-7.4509 0.26173z" fill="#7e7b80" stroke-width="4.1701"/>
<path d="m976.85 348.97c-2.2311 0.07064-5.8184 0.16617-7.0323 0.21187-0.18837 2.7336-0.5316 7.4571-0.69483 8.5372 1.9632-0.04153 5.9314-0.16616 6.802-0.1911 0.653-1.2962 2.0678-5.3425 2.3943-6.5847-0.48976-0.7561-0.87066-1.1882-1.4693-1.9733z" fill="#7e7b80" stroke-width="4.1701"/>
<path d="m962.64 349.37c0 0.97214 0.1716 7.9307 0.21346 8.5248 1.2767-0.04153 4.5919-0.08723 5.0817-0.14123 0.24697-2.7087 0.6195-7.8975 0.68647-8.5455-2.2604 0.0623-4.4789 0.12877-5.9816 0.162z" fill="#7e7b80" stroke-width="4.1701"/>
<path d="m933.78 347.7-2.8339 0.49854c-1.306 2.0938-6.1449 8.5705-6.7434 9.3266 3.3696-0.09556 8.6396-0.19526 9.908-0.31573-0.0921-1.7365-0.3265-8.6494-0.33066-9.5094z" fill="#7e7b80" stroke-width="4.1701"/>
<path d="m935.03 347.47c0.06697 2.2143 0.28043 8.1135 0.33487 9.6797 1.6702-0.09554 4.7468-0.29494 5.9984-0.40297-0.28883-2.7834-0.81626-9.4304-0.9251-10.24-1.4023 0.2534-4.1566 0.7353-5.4081 0.9638z" fill="#7e7b80" stroke-width="4.1701"/>
<path d="m905.82 324.13c0.3809 0.00413 0.43113 0.3282-0.0042 0.32403l-32.139-0.39467c-0.43534-0.00416-0.37674-0.3282 0.00416-0.32403z" stroke="#000" stroke-width=".52126"/>
<path d="m931.08 298.61c0.38093 0.01247 0.42696 0.3365-0.00837 0.32403l-25.463-0.69376c-0.43533-0.01247-0.37256-0.3365 0.00837-0.32404z" stroke="#000" stroke-width=".52126"/>
<path d="m904.22 305.88c0.38093 0.00417 0.43117 0.3282-0.00417 0.32403l-28.497-0.2077c-0.43534 0-0.3767-0.32403 0-0.32403z" stroke="#000" stroke-width=".52126"/>
<path d="m905.06 287.53c0.38093 0 0.43533 0.32403 0 0.32403l-29.808-0.1537c-0.43533 0-0.3767-0.32403 0.0042-0.31986z" stroke="#000" stroke-width=".52126"/>
<path d="m902.99 273.05c0.3809 0.00416 0.42697 0.33236-0.0042 0.32406l-28.962-0.43206c-0.43534-0.0083-0.37674-0.33234 0.0042-0.32404z" stroke="#000" stroke-width=".52126"/>
<path d="m932.99 264.55c0.3809-0.00417 0.43954 0.31986 0.0042 0.32403l-24.856 0.2368c-0.43533 0.00413-0.3851-0.3199-0.0042-0.32407z" fill="#fff" stroke="#000" stroke-width=".52126"/>
<path d="m934.51 278.36c0.3809 0 0.43533 0.32404 0 0.32404h-27.468c-0.43534 0-0.3809-0.32404 0-0.32404z" stroke="#000" stroke-width=".52126"/>
<path d="m961.48 298.01c0.38094 0 0.43534 0.32404 0 0.32404h-29.602c-0.43534 0-0.38094-0.32404 0-0.32404z" stroke="#000" stroke-width=".52126"/>
<path d="m961.9 273.45c0.38094 0.00413 0.43117 0.32816-0.00416 0.32403l-30.243-0.29497c-0.43533-0.00416-0.37673-0.3282 0.0042-0.32403z" stroke="#000" stroke-width=".52126"/>
<path d="m933.94 316.62c0.38093 0.00416 0.43116 0.3282-0.00417 0.32403l-26.605-0.17447c-0.43533-0.00416-0.37673-0.3282 0.0042-0.32403z" stroke="#000" stroke-width=".52126"/>
<path d="m959.94 320.21c0.3809 0.00417 0.43113 0.3282-0.0042 0.32404l-23.386-0.3074c-0.4353-0.00417-0.37254-0.3282 0.0084-0.32407z" stroke="#000" stroke-width=".52126"/>
<path d="m981.04 324.65c0.65716-1.4499 0.74926-4.7817 0.37253-6.0446-1.013 0.20357-1.8711 0.15787-2.7083-0.16617-0.4395-0.16616-0.9209-0.31573-1.4274-0.44036-0.0921 1.6701-0.70324 5.9241-1.4567 7.5693-1.3144 0.36974-3.964-0.06233-5.4709-0.53176-0.39766 1.4166-0.76183 2.717-1.0967 3.9134 1.8711 0.4279 4.2194 0.39053 6.0779-0.03737-0.1465 2.4968-0.4772 4.7692-1.8376 6.3396 2.2227 0.04983 4.211-0.2742 4.9393-1.0469 0.06696-0.0748 0.1423-0.1371 0.22183-0.19944 1.0255-1.7033 1.0548-3.9217 1.3018-5.4173 0.75767 0.054 1.7372-0.16204 2.1725-0.5941 0.43533-0.43204 1.1427-0.64807 1.8501-0.59407 0.64464 0.04987 1.6492-0.0831 2.9259-0.59407 0.0335-0.7644 0.18416-1.5953 0.4479-2.3181 0.1423-0.39467 0.2972-1.0511 0.42696-1.8446-1.6199 0.76857-5.2324 2.0523-6.7393 2.0066z" fill="#ef072d" stroke="#000" stroke-width=".52126"/>
<path d="m877.59 185.49c-1.4693-0.054-4.3533-0.3988-6.7435-0.162-0.54417 0.054-1.1972 0.32404 0.10883 0.48607 1.306 0.162 4.8389 1.022 6.0905 1.454 1.2516 0.43207 0.7074 1.0802-0.38093 0.81013-1.0883-0.27003-1.4902 0.12877-0.59857 0.75607 4.6254 3.2404 5.1151 4.4826 3.918 15.6 0.87066 0.59406 1.5781 1.0261 2.3399 1.4042 0.76183 0.37807 0.54416 0.91814-0.27207 0.7021-0.81627-0.21603-1.5781 0.27004-0.2721 0.54007 1.306 0.27003 1.9004 0.8641 0.653 0.8101-1.2516-0.054-2.7208 1.0261-0.27207 0.7561 2.4445-0.27003 3.424 0.8641 0.54417 0.9181-2.8841 0.05403-1.7957 0.97213-0.2721 0.97213 2.7166 0 1.9004 0.7561 1.1972 0.7561-0.7074 0-1.0339 0.9181 0.76183 0.7561 1.7916-0.16203 2.499-0.21603 3.152-0.10803 0.653 0.10803 0.92506 0.64393-0.05444 0.7021-0.97946 0.04983-0.92506 0.75193 0.54417 0.75193 1.4693 0 2.0804 0.44037 0.76183 0.7021-0.54416 0.108-1.2976 0.37804 0.2721 0.59407 2.7208 0.37803 2.8296 1.0261 1.959 1.1341-0.87063 0.10804-0.97947 0.5941 0.2721 0.7021 1.2474 0.108 2.3357 0.48607 1.306 0.7561-1.0339 0.27004-1.5781 0.8641-0.27627 0.9721 1.306 0.10804 2.3943 0.5941 1.4148 0.91814-0.97946 0.32403-1.1971 0.9181 0.05444 0.8641 1.2516-0.054 1.7413 0.6481 0.87066 1.13-0.87066 0.48606-1.4692 0.8101-2.0134-0.04987-0.54-0.8641-0.8665-1.1341-1.0297-0.48607-0.16327 0.64394-0.54417 0.21604-0.9795-0.75606-0.43533-0.97214-1.1972-1.2422-0.9795-0.48607s-0.76183 0.8641-1.6869 0.48607c3.4282 3.4523 8.4848 6.5847 16.534 3.3443 0.6865-0.2742 0.81627 0 1.3604 1.1341 0.54417 1.1341 2.0678 3.6185 2.612 4.5366s0.9753 0.0914 1.2474-0.8101c1.0883-3.5645 1.9046-6.2108 2.2311-7.1788 0.3265-0.9721 1.8502-1.9442 1.3604 1.454 1.1972-0.8101 6.5007-1.5745 10.607-0.054 4.5124 1.6742 9.0498 4.2707 11.369 5.9948 0.43533 0.32404 0.9795 0.70207 2.0636 0.59407 1.0883-0.108 1.3604-0.27003-0.70743-2.1603-2.0636-1.8902-1.193-2.8084 0.10883-1.8902 1.306 0.9181 2.0134 0.37803 1.0339-0.7561s-3.3152-3.3443-4.0771-3.8843c-0.7618-0.54007-0.87063-0.7561-2.612-0.8641-1.7413-0.10803-5.4375-0.10803-6.5258-0.10803-1.0883 0-1.4148 0.10803 0.9795 0.97213 2.3901 0.85993 7.2876 3.9923 8.3759 4.7484 1.0883 0.7561 1.8502 2.4843-0.54413 0.97213-2.3943-1.5122-9.8996-6.1526-14.902-7.8808-11.423 0.7561-20.452 2.2683-27.196-5.0725-3.2315-3.5146-3.3738-11.553 2.0636-14.902-1.0883-0.91813-0.92506-1.4582-0.48973-1.6742 0.4353-0.21603 0.59857-0.43203 0.16323-0.9721-0.43113-0.54007-0.3809-1.022 0-1.238-1.193-0.6481-1.7371-1.4042-1.6827-2.2143-1.4692-0.32403-2.1222-2.0523-4.0812-1.5122-1.959 0.5401-2.9385 0.10803-3.5329-0.37803-0.60277-0.48607-1.0883-0.7021-2.1767-0.59407-1.0883 0.108-1.959-0.32403-2.0134-0.8641-0.0544-0.54007 0.9209-0.8018 2.3943-0.16203 3.0975 1.3502 5.6007 1.9982 7.5053-0.54007 1.9046-2.5342-0.54416-4.9105-4.1901-5.6126-3.6417-0.70206-6.3081 1.9443-7.6685 3.1864z" fill="#fff" stroke="#000" stroke-width=".52126"/>
<path d="m895.87 184.57c-1.0967-1.1798-3.0473-2.2683-4.0226-2.5923-0.9795-0.32403-1.0883 0.6481-0.54417 1.1341-0.43533 0.6481-0.5986 2.2143 0.16323 2.6463 0.76184 0.43206 0.7702 1.0469 0.05444 1.4-1.0883 0.54007-0.71997 3.4066 0.9209 2.5923 0.54416-0.27003 0.97946-0.16203 0.87063 0.27004-0.1088 0.43203 0.10883 0.97213 0.5986 1.0801 0.48973 0.108 0.43533 0.8101 0.3265 1.0801-0.10883 0.27004 0.0544 0.37804 0.59857 0.43207 0.54416 0.054 0.5986 1.3502-0.3809 1.7822 1.1972 0 1.5237-0.216 1.8502 0.7561 0.32647 0.96797 1.6325 1.184 1.6325 2.3722 0 1.1881-0.21767 1.4042-1.6325 1.1881-1.4148-0.21603-1.959 0.21603-2.3943 0.7561s-0.54417 1.0801 0.54417 1.1341c1.0883 0.054 1.306 0.54007 0.21766 1.0261-1.0883 0.48606-2.8799 0.16203-3.152 1.1881-0.2721 1.022 0 1.5081 0.81206 1.13 0.81624-0.3739 2.5031-1.076 3.1561-1.454 0.653-0.37804 1.2516-0.43204 1.7957 0.43206s0.10883 1.8321-0.81623 1.0801c-0.92507-0.7561-1.3604-0.05817-1.9046 0.3739-0.54417 0.43203-1.3604 0.70206-2.2311 0.70206-0.8665 0-1.4651 0.11217-1.3562 2.0523 0.3265 5.8327 4.8933 10.149 13.269 10.041 8.3759-0.108 12.512-0.216 13.763-0.054-2.7753-1.5122-4.5166-2.3223-5.4961-2.2143-0.9795 0.108-1.7957 0.27004-1.3604-0.48606 0.43534-0.7561-0.05443-0.7561-0.48976-1.0801-0.43534-0.32403-0.9753-0.7561-1.846 0.16204-0.87067 0.9181-2.9385 1.9442-3.9724 2.1603-1.0339 0.21604-2.2855 0.162-1.306-0.8101 0.9795-0.97213 3.1562-1.2962 3.8092-1.7282s0.653-0.69793 0.653-1.022c0-0.32403-0.16327-1.2422 1.0883-0.54006 2.499 1.4042 6.417 3.5063 7.4509 3.4523 1.0339-0.054 1.7413-0.48606 0.81627-1.0801-0.9251-0.59407-1.1972-1.454-0.9251-1.7781 0.2721-0.32403 0.43533-0.64806 2.0678 0.27004 1.6283 0.91396 4.2947 2.1021 5.2742 2.5342 0.9795 0.43207 2.2855 0.27004 0.2721-1.1881-2.0134-1.454-8.2671-5.5586-10.008-6.8547-1.7413-1.2962-0.9795 0.27003-0.81627 0.7561 0.16327 0.48606-1.1972 1.0801-1.9046 0.48606-0.7074-0.59406-1.1972-1.2422-0.21767-1.7822s1.1972-0.59407-0.27207-1.8902c-1.4651-1.292-1.9004-1.184-1.5739-0.108 0.3265 1.0801 0.43534 2.2683-1.0883 1.6742-1.5237-0.59407-2.2855-1.2962-1.306-1.8902 0.9795-0.58993 2.2311-0.91396 0.5986-2.2641-1.6325-1.3502-1.1428 0-1.5237 0.7561s-1.6325 0.7561-2.3399 0.162c-0.70743-0.59407-1.0339-1.1881-0.54416-1.6742 0.48973-0.48607 0.43533-0.7561 1.1427-0.37803 0.70743 0.37803 1.7957 0.162 0.48977-0.97214-1.306-1.1341-1.7958-0.64806-1.5237 0 0.27207 0.6481-0.76183 1.7822-2.3901 0.27004-0.7744-0.71454-0.76184-1.6742 0.0544-1.8362 0.81206-0.162 0.8916-0.5816 0.32233-1.4042-3.3152-4.8025-1.9548-8.6909-5.2742-12.251z" fill="#fff" stroke="#000" stroke-width=".52126"/>
<path d="m896.42 185.22c-0.28466 0.42377-0.3893 0.40713-0.91673 0.7561-0.6488 0.4279-0.7953 1.6534 0.29303 1.508 0.75347-0.0997 1.193-0.5442 1.4902-0.90563-0.2386-0.457-0.52323-0.9098-0.86647-1.3585z" fill="#a89078" stroke-width="4.1701"/>
<path d="m893.02 182.5c-0.83717 0.80593-0.98367 1.1674-0.5567 1.1674 0.50647 0 0.2888 0.07064-0.07537 0.64807-0.35996 0.57747 0.72834 0.86413 1.1637 0.43207 0.43533-0.43207 0.5065-0.57747 0.72417 0 0.1758 0.46943 0.8916 0.02493 1.3437-0.4279-0.7409-0.7104-1.7371-1.3668-2.5994-1.8196z" fill="#a89078" stroke-width="4.1701"/>
<path d="m891.52 187.16c-1.0883 0.54007-0.71997 3.4066 0.9209 2.5923 0.54416-0.27003 0.97946-0.16203 0.87063 0.27004-0.0586 0.2285-0.0209 0.4902 0.10047 0.69793 0.64883-0.27003 1.2976-0.7187 1.8041-1.292 1.0172-1.1508 0.07113-1.0801-1.4483-1.0801-1.5236 0-1.959-0.28667-0.51067-1.1508 1.2976-0.77273 0.45207-1.3086-1.3437-1.0594 0.25954 0.36557 0.12977 0.7644-0.39346 1.022z" fill="#a89078" stroke-width="4.1701"/>
<path d="m897.75 193.53c-0.7995-0.8641-0.293-1.2962 0.57767-1.7282 0.21346-0.10387 0.36-0.2368 0.46463-0.39467-0.24697-0.95136-0.4437-1.8653-0.70323-2.7544-0.45627 0.1288-0.98787 1.1383-1.1386 1.6368-0.21767 0.7187-0.43533 1.1508-1.1595 0.93473-0.64463-0.1911-1.2893 0.5276-1.4232 1.2962 0.10047 0.04153 0.25534 0.0706 0.46044 0.0914 0.3014 0.02907 0.45206 0.4362 0.36 0.86827 1.9632-0.06234 2.298 1.2837 2.6329 2.206 0.36416 1.0095 0.7995 0.8641 1.0883 0.2908 0.28883-0.57746-0.36417-1.5828-1.1595-2.4469z" fill="#a89078" stroke-width="4.1701"/>
<path d="m898.33 204.83c-0.3558 0.79763-0.36417 0.7187-1.5237 0.7893-1.1595 0.0748-2.6203 0.27003-3.2608 0.9389-0.3474 0.35727-2.3525 0.45283-2.3566 1.3294-0.00837 0.88073 0 1.6202 0.87066 1.6742 0.86647 0.05403 0.9753 0.16203 0.653 0.8101-0.3307 0.6481-0.54416 1.7282 0.9753 1.8362 1.5237 0.10804 2.612-0.37803 2.9929 0.4819 0.3809 0.86414-0.0293 2.2434 0.27207 2.7544 0.3014 0.511 1.3311 0.83917 2.9259 1.3294 1.0632 0.3282 5.0775 0.51513 6.3123 0.3739 1.2307-0.1454 0.7702-0.8766-0.46463-0.9846-1.2306-0.108-2.139-0.28663-2.4278-1.184-0.28883-0.9015-0.54417-1.3709 0.1465-2.1229 0.6865-0.7561 1.3772-1.3336 0.9795-2.5923-0.40183-1.2588-1.0548-2.7377-2.5032-3.1324-1.4525-0.39467-0.99203-2.3638-2.432-2.5549-0.54417-0.07064-1.013-0.07064-1.1595 0.25343z" fill="#f2d049" stroke-width="4.1701"/>
<path d="m891.3 216.53c1.2474 0.108 2.3357 0.48607 1.306 0.7561-1.0339 0.27004-1.5781 0.8641-0.27627 0.9721 1.306 0.10804 2.3943 0.5941 1.4148 0.91814-0.97946 0.32403-1.1971 0.9181 0.05444 0.8641 1.2516-0.054 1.7413 0.6481 0.87066 1.13-0.87066 0.48606-1.4692 0.8101-2.0134-0.04987-0.54-0.8641-0.8665-1.1341-1.0297-0.48607-0.16327 0.64394-0.54417 0.21604-0.9795-0.75606-0.43533-0.97214-1.1972-1.2422-0.9795-0.48607s-0.76183 0.8641-1.6869 0.48607c0.91253 0.9181 1.9381 1.8113 3.1059 2.5674 1.3353-0.45284 2.8087-0.0831 3.311-0.03324 0.54417 0.054 2.2311 0.43204 3.1562 0.9181 0.92507 0.48607 1.5237-0.37803 1.1427-1.3502-0.3809-0.96797-0.43533-0.64394-0.92506-0.10804-0.48977 0.5401-0.5986-0.216-0.54417-1.346 0.04603-0.9555-0.5986-0.7021-0.81623-0.108-0.21767 0.59407-0.70744-0.37806-0.43534-0.97213 0.27207-0.59407-0.05443-0.8101-0.54416-0.64807-0.48977 0.162-0.54417 0-0.5986-1.0802-0.0544-1.0801-0.54417-0.9181-0.7074-0.48604-0.16327 0.43204-0.5986-0.16203-1.2516-1.0261-0.5693-0.7561-1.2265-0.3116-2.365 0.1371 0.14233 0.08307 0.40183 0.1537 0.79113 0.18693z" fill="#a89078" stroke-width="4.1701"/>
<path d="m904.51 223.22c-5.9439 2.3929-10.23 1.3294-13.458-0.7935 1.3353-0.45283 2.838-0.06646 3.3403-0.0166 0.54417 0.054 2.2311 0.43204 3.1562 0.9181 0.92507 0.48607 1.5237-0.37803 1.1427-1.3502 0.81627 1.0261 1.4148 1.7282 2.3901 1.6742 0.9795-0.054 2.612-0.21604 3.4282-0.43204z" fill="#f2d049" stroke-width="4.1701"/>
<path d="m891.81 196.05c-0.3642-1.2214-0.72417-1.5122-1.3772-1.4374-0.653 0.07064-0.94183-0.07476-1.6702-0.36143-0.72417-0.28663-1.666 0.07063-1.8125 1.3668-0.14653 1.2962-0.94183 1.9442-2.0302 2.7336-1.0883 0.7935-1.7413 1.4416-1.7413 2.7377s-0.2888 1.6534-1.013 2.5923c-0.32233 0.41544-0.77856 0.88904-1.2055 1.3876 0.4688 0.2908 0.90833 0.5442 1.3688 0.76853 0.76183 0.37807 0.54416 0.91814-0.27207 0.7021-0.81627-0.21603-1.5781 0.27004-0.2721 0.54007 1.306 0.27003 1.9004 0.8641 0.653 0.8101-1.2516-0.054-2.7208 1.0261-0.27207 0.7561 2.4445-0.27003 3.424 0.8641 0.54417 0.9181-2.8841 0.05403-1.7957 0.97213-0.2721 0.97213 2.7166 0 1.9004 0.7561 1.1972 0.7561-0.7074 0-1.0339 0.9181 0.76183 0.7561 0.0251-0.00416 0.04603-0.00833 0.07533-0.00833 0.25954-0.26587 0.4521-0.5982 0.5944-1.0178 0.28884-0.8641 0.57767-3.3858 1.5948-4.1045 1.013-0.7187 1.5237-1.7282 1.5237-2.4469 0-0.71874 1.5195-3.8843 2.5366-4.6778 1.0172-0.79346 1.4525-2.5175 1.0883-3.7431z" fill="#f2d049" stroke-width="4.1701"/>
<path d="m889.7 196.12c-1.0297-0.6813-2.0302-0.28664-2.0302 1.0095 0 1.2961-0.653 1.6534-1.5237 2.0855-0.86647 0.43206-1.666 1.5122-1.8125 2.5217-0.14233 1.0054 0.1465 1.6535-0.57767 2.4469-0.72833 0.78933-0.7995 1.4374-0.2888 1.8695 0.50647 0.43206 0.50647 0.50683 0.72414 1.1508 0.21766 0.64807 1.4483-0.07063 1.4483-0.78933s0.293-0.7187 1.0883-1.1508c0.7995-0.43203 2.1055-2.5217 1.8125-3.095-0.28883-0.57746-1.013-1.0801-0.07117-1.8736 0.94184-0.7893 1.959-0.8641 1.959-1.6534 0-0.79347 0.28884-1.0801 0.57767-1.3668 0.293-0.29083-0.653-0.72287-1.306-1.1549z" fill="#a89078" stroke-width="4.1701"/>
<path d="m889.7 195.04c-0.67813-0.26173-1.0842 1.1508-0.14233 1.3668 0.94183 0.21603 1.0883-1.0095 0.14233-1.3668z" stroke-width="4.1701"/>
<path d="m889.5 196.88c-0.71997 0.08723-1.5237 1.0261-0.3265 0.8641 1.1972-0.162 1.6869-1.0261 0.3265-0.8641z" stroke-width="4.1701"/>
<path d="m888.09 198.66c-0.7409 0.36973-0.5986 1.3502 0.48974 0.64807 1.0883-0.70207 1.3604-1.5662-0.48974-0.64807z" stroke-width="4.1701"/>
<path d="m886.93 200.15c-0.74506 0.3656-0.59856 1.346 0.48977 0.64806 1.0883-0.70206 1.3604-1.5662-0.48977-0.64806z" stroke-width="4.1701"/>
<path d="m885.41 200.83c-0.7409 0.36976-0.27207 1.3502 0.81626 0.6481 1.0883-0.7021 1.0339-1.5662-0.81626-0.6481z" stroke-width="4.1701"/>
<path d="m886.35 201.74c-0.7409 0.36976-0.27207 1.3502 0.81627 0.6481 1.0883-0.7021 1.0339-1.5662-0.81627-0.6481z" stroke-width="4.1701"/>
<path d="m885.04 202.13c-0.7409 0.36977-0.27207 1.3502 0.81627 0.6481 1.0883-0.7021 1.0339-1.5662-0.81627-0.6481z" stroke-width="4.1701"/>
<path d="m885.88 203.17c-0.7451 0.36973-0.2721 1.3502 0.81203 0.64807 1.0883-0.70207 1.0339-1.5662-0.81203-0.64807z" stroke-width="4.1701"/>
<path d="m884.61 203.79c-0.7409 0.3656-0.27207 1.346 0.81626 0.64394 1.0883-0.7021 1.0339-1.562-0.81626-0.64394z" stroke-width="4.1701"/>
<path d="m884.72 204.76c-0.7409 0.36973-0.27207 1.3502 0.81627 0.6481 1.0883-0.7021 1.0339-1.5662-0.81627-0.6481z" stroke-width="4.1701"/>
<path d="m884.12 213.83c-0.74926 0.09553-1.2306 1.1549-0.28883 1.3709 0.94183 0.21604 1.1595 0.28667 1.1595 1.0054s0.293 1.7282 1.306 1.7988c1.0172 0.07477 1.8878-1.0801 1.0172-1.4374-0.87067-0.36143-1.6702-0.6481-1.7413-1.4416-0.07116-0.78934-0.87066-1.3668-1.4525-1.2962z" fill="#a89078" stroke-width="4.1701"/>
<path d="m910.82 207.65c0.13397 0.1662 0.3014 0.34897 0.49394 0.511 0.7074 0.59407 2.0678 0 1.9046-0.48606-0.16323-0.48607-0.92506-2.0523 0.81627-0.7561 1.7413 1.2962 7.995 5.4007 10.008 6.8547 2.0134 1.4582 0.7074 1.6202-0.2721 1.1881-0.9795-0.43206-3.6459-1.6202-5.2742-2.5342-1.6325-0.9181-1.7957-0.59407-2.0678-0.27004-0.2302 0.27004-0.04603 0.92227 0.55253 1.4748-0.9711 0.14127-2.5492-0.07063-3.0013-1.0967-0.54417-1.2422-1.8502-2.7544-2.7752-3.9425-0.34323-0.44037-0.4437-0.71457-0.3851-0.94307z" fill="#f2d049" stroke-width="4.1701"/>
<path d="m964.78 384.52c-1.3562 0.9181-3.152 2.5383-1.959 4.8024 0.14234-0.07477 0.27627-0.162 0.4144-0.24093 5.3203-6.3894 9.8745-13.107 13.776-20.086 0.04603-0.24094 0.0879-0.46944 0.1172-0.66884-1.5237 1.2962-3.918 2.5882-4.8975 2.9122 0.653 1.7282-2.3901 3.9965-4.0226 4.6446 0.653 1.0801 0.43533 2.7003-0.9795 3.0244 0.3265 0.96797-0.76184 0.96797-2.0678 1.508-1.306 0.54007-1.959 0.97214-2.3901 1.6202 0.70323-0.37803 1.6827-0.70206 2.2269-0.54006 0.54417 0.16203 0.653 0.97213-0.3265 1.1882-0.9795 0.21604-1.6283 0.7561-1.959 1.1881 1.4148-0.54007 3.4282-0.27004 2.0678 0.6481z" fill="#9cb8c5" stroke-width="4.1701"/>
<path d="m900.27 205.67c-1.6074-1.3917-2.0134-0.54006-1.3604 0.32404s0.16327 1.2962-1.2516 1.5122c-1.4148 0.216-3.5371 0.48603-4.4077 0.48603s-1.9004 1.1882 0.16323 1.0801c2.0678-0.108 5.5505-0.8101 6.4756-1.1881s1.6827-1.0801 0.3809-2.2143z" stroke="#000" stroke-width=".52126"/>
<path d="m903.43 208.1c-1.3269-1.184-1.7957-0.8641-1.4692 0s-0.27206 1.0261-1.1386 1.2962c-0.87067 0.27003-4.2989 1.4042-5.7681 1.5662-1.4692 0.162-1.7957 1.1881 0.38094 1.1341 2.1766-0.054 6.3625-1.7822 6.8523-2.1063 0.48974-0.32404 0.653-0.97214 1.1972-0.64807 0.54417 0.32403 1.0339-0.27007-0.05443-1.2422z" stroke="#000" stroke-width=".52126"/>
<path d="m904.41 211.56c-0.96274 0.56913-3.3696 1.616-4.3491 1.8861-0.97946 0.27004-1.7957 1.3502 0.2721 1.1882 2.0636-0.16203 4.5124-2.0523 5.1654-2.4262 0.653-0.37803 0.9795-0.64806 1.5237-0.59406 0.54416 0.054 1.5237-0.7021-0.2721-1.6742-1.7957-0.97214-2.8841-0.48607-2.0134 0.27003 0.87066 0.7561 0.21766 1.0261-0.3265 1.3502z" stroke="#000" stroke-width=".52126"/>
<path d="m887.45 184.39c-2.658-1.7324-5.6928 1.8986-2.7543 3.8885 2.5743 1.7448 5.2951-2.2309 2.7543-3.8885z" stroke-width="4.1701"/>
<path d="m884.15 185.97 0.78694 0.054c-0.16324 0.80597 0.653 2.0232 1.9046 1.7241-1.0046 0.7561-2.9636-0.108-2.6915-1.7781z" fill="#fff" stroke-width="4.1701"/>
<path d="m894.46 225.29c0.8037 0.23267 3.5957 0.51517 4.5417 0.56087-0.473 0.98873-0.89996 1.6451-1.1846 2.3514-0.28466 0.70207-0.4228 0.75194-0.47303-0.3282-0.04603-1.0843-0.66137-1.7864-1.2264-0.66053-0.5693 1.13-0.85394 1.5496-1.1344 2.019-0.28464 0.46947-0.7116 0.66057-0.56927-0.51513 0.14233-1.1757 0.09627-2.3971 0.04603-3.4274z" fill="#fff" stroke-width="4.1701"/>
<path d="m999.48 257.01c-0.19257 67.849-10.98 140.95-99.473 175.76-88.498-34.818-99.285-107.91-99.477-175.76z" fill="none" stroke="#000" stroke-width="1.0425"/>
<path d="m999.48 257.01c0.07533-25.558-1.3562-50.372-0.70324-72.116-33.068-14.686-76.581-17.706-98.77-17.706-22.194 0-65.706 3.0202-98.774 17.706 0.653 21.744-0.77436 46.558-0.7032 72.116z" fill="none" stroke="#000" stroke-width="1.0425"/>
</svg>
