<svg xmlns="http://www.w3.org/2000/svg" version="1.0" height="600" width="1200"><path d="M1200 600V0H0v600Z" style="fill:#00247d;fill-opacity:1;stroke:none;stroke-width:4.1666379"/><path d="M0 99.96h126.546L0 36.455V0h72.404l177.022 88.246V0h99.681v88.246L526.13 0h73.028v36.456L471.988 99.96h127.17v100.038h-127.17l127.17 63.504v36.468H526.13l-177.023-88.258v88.258h-99.68v-88.258L72.403 299.969H0v-36.468l126.546-63.504H0Z" style="fill:#fff;stroke:none;stroke-width:4.1666379"/><path d="M552.061 0 352.074 100.03h47.872L599.158 0ZM599.158 299.969l-199.425-99.976h48.085l151.34 76.142ZM200.37 100.03 0 0V23.89l152.078 76.141ZM199.958 199.993 0 299.97h47.847l199.988-99.976Z" style="fill:#cf142b;fill-opacity:1;stroke:none;stroke-width:4.1666379"/><path d="M0 120.714h270.658V0h58.576v120.714h269.924v58.578H329.234V299.97h-58.576V179.292H0Z" style="fill:#cf142b;fill-opacity:1;stroke:none;stroke-width:4.1666379"/><path d="M999.475 257.01c-.192 67.849-10.98 140.945-99.473 175.763-88.498-34.818-99.285-107.914-99.477-175.763Z" style="fill:#5f7dbd;fill-opacity:1;stroke:none;stroke-width:4.20774555;stroke-miterlimit:4;stroke-dasharray:none;stroke-opacity:1"/><path d="M900.002 432.773c40.117-15.783 64.266-39.438 78.694-66.902-2.16.083-6.684-.046-8.64-.179-2.176-.141-84.851-8.383-94.642-11.948-8.518-3.099-41.017 2.634-56.187 8.014 14.153 29.213 38.665 54.447 80.775 71.015Z" style="fill:#e8ece9;fill-opacity:1;stroke:none;stroke-width:4.17009211;stroke-opacity:1"/><path d="M838.156 390.71c1.352-.436 3.934-.333 4.952-.15 1.197.216 1.414.324 1.85-.972.435-1.296 1.415-.972 2.176-.324.762.648 2.717.324 3.479-.756.762-1.076.98-.968 1.741-.216.762.756 1.089.54 1.85.324.762-.212 2.068-1.076 2.721-2.264.653-1.188 1.628-1.62 2.173-.972.544.648 1.088.972 1.85.864.762-.108.98.648.87 1.616-.108.972.327 1.188 2.177-.32 1.633 1.616 2.173.968 2.173-.756 0-1.728-.432-8.097-1.085-8.961-.653-.864-1.306-3.349-1.414-5.293-.205-3.668-.218-3.884-4.68-6.152 0-1.297-.327-1.837-3.479-1.62.11-.433-.435-1.729-1.088-2.269s-.762-.756-.435-2.264c1.306.108 2.72-.108 3.482-1.188.758-1.08 3.261-.864 4.785-.216 1.523.648 3.482.756 6.417.324 1.088-.864 2.938-1.836 4.897-2.916 1.955-1.08 2.5-1.513 2.608-3.025.28-3.876-1.088-8.313-2.177-10.36-1.084-2.053-1.41-4.645-2.934-7.886-1.658-3.527-1.632-4.424-3.483-6.585-.506-.594-1.088-1.08-1.197-2.264-.109-1.188-.544-2.808-1.846-3.996-3.29-2.995-4.57-12.634-5.877-19.758-.749-4.084-.217-13.71-1.955-15.222-2.938-2.376-4.353-1.944-6.312-2.7-1.415-1.945-2.063-5.829-3.37-9.285-2.067.324-3.482 2.484-4.897 3.24-1.415.756-1.632.756-1.632 2.7 0 1.94-1.089 4.64-3.044 7.665-1.959 3.02-5.224 2.16-7.94 6.693-5.986-7.233-6.095-9.285-6.53-11.337-.435-2.048-1.415-2.48-4.785-5.397 0-.864-.435-4.316-.108-6.26-2.504-2.053-4.354-1.729-5.547-.217-1.197 1.513-2.068 3.777-3.918 4.64-1.109 1.4-4.453 4.932-7.191 9.136 2.49 37.572 11.034 74.87 36.723 104.699Z" style="fill:#9b7463;fill-opacity:1;stroke:none;stroke-width:.52126151;stroke-opacity:1"/><path d="M999.475 257.01c.076-25.558-1.356-50.372-.703-72.116-33.068-14.686-76.58-17.706-98.77-17.706-22.193 0-65.706 3.02-98.774 17.706.653 21.744-.774 46.558-.703 72.116Z" style="fill:#f2d049;fill-opacity:1;stroke:none;stroke-width:4.08669043;stroke-miterlimit:4;stroke-dasharray:none;stroke-opacity:1"/><path d="M877.222 183.993c-3.31.095-10.519.162-12.034 1.005-1.511.847-2.177 1.221.473 1.69 2.65.47 7.133 1.72 9.59 3.225 2.457 1.5 4.516 4.158 3.838 7.951-2.03 11.395 3.973 22.355 12.671 26.488.841.399 1.042.702.854 2.252-.188 1.55-.758 4.133-1.23 4.79-.474.66-.708 1.74.803 1.221-1.038 1.928-3.357 5.779-4.065 6.764-6.952-.844-12.624.095-13.147 7.324-.05.706.192 1.832 1.276.05 1.089-1.787 2.32-3.478 5.295-3.947-1.75 2.675-2.314 5.072-2.03 6.622.28 1.55.708 2.488 1.465.515.758-1.969 2.152-3.814 3.642-4.931.565-.42.946-.515.52.706-.428 1.222.188 3.851 1.041 4.744.85.89 1.277.516 1.039-.938-.235-1.459.133-4.504 1.938-5.451 2.599-1.358 4.822-.656 5.864 1.13 1.038 1.782 1.938.091.804-1.928-1.135-2.019-2.32-3.427-4.211-3.568 1.657-2.912 3.595-6.435 4.022-7.137.423-.707 1.089-1.035 1.654-.611.569.424.946.374 1.515-.798.565-1.175 1.557-4.649 2.976-6.057.712-.19 1.846-.47 2.269-.847 1.846 2.675 3.5 5.637 3.926 6.294.423.656.9.938.473 2.301-.427 1.363-1.892 5.683-2.126 6.622-5.157.187-7.518.278-9.176 3.145-.724 1.25.427 1.737 1.658 1.08 1.227-.656 2.976-1.221 3.876-1.08.896.141 1.319.598.423 1.034-3.165 1.55-5.145 3.52-5.01 6.244.045.985.456 1.475 1.23.142 1.088-1.878 3.073-3.756 5.484-4.275-.143 2.301.38 5.683 1.795 6.39 1.42.701 1.52-.013.992-1.363-.85-2.16.034-4.333 1.089-5.497 2.222-2.442 7.283.94 8.23 1.787.945.843 1.807 1.196 1.276-.989-.712-2.908-4.873-4.599-8.418-5.068.992-4.745 3.642-14.325 5.06-17.61 2.081 1.125 3.705-1.845 7.188-.566 5.86 2.16 14.655 7.607 16.17 8.828 1.511 1.222 2.08.94 2.838.283.753-.656 2.08 0 3.118.187 1.043.187 1.989.47.662-2.16-1.323-2.63-4.538-7.233-9.93-10.802 3.216.283 7.569.283 7.569-.56 0-.848-5.015-2.443-7.095-2.63 1.988-.47 5.015-1.6 6.43-3.195.84-.943-.168-1.163-3.12-1.221-9.078-.187-13.616-.117-18.346-2.817-7.564-4.32-11.892-8.87-15.605-10.801-1.984-1.035-3.194-3.42-3.96-5.48-2.457-6.576-2.335-9.534-8.103-11.695-5.769-2.16-12.403.486-15.43 3.208Z" style="fill:#000;stroke:none;stroke-width:.52126151;stroke-opacity:1"/><path d="M805.904 286.593c1.088 1.728 3.047 4.699 3.265 6.315.761-1.567 1.36-2.264 1.523-3.237.163-.972 1.306-2.862.87-3.888-.435-1.026-.761-1.836.436-1.08 1.193.756.963 2.064.703 3.996-.703 5.289-2.934 6.369-3.26 9.933 3.21 7.503.816 10.203 4.294 17.544.544.324 1.997-.253 2.432-.145 1.846-1.296 3.228-.827 5.835-.287 2.612.54 4.027 2.372 4.027 3.993 0 1.62 0 2.052.544 3.024.545.972 1.633 2.484 1.415 3.564-.217 1.076.218 1.724.544 2.264.327.54-.108 1.729-.435 2.485-.326.756-.218 1.728 1.088 3.348 1.306 1.616 4.35 8.421 4.35 12.413 0 3.997.217 5.833 1.85 6.585 1.632.756 2.176 1.404 1.959 3.133-.218 1.728.761 10.689.98 12.093.217 1.404.761 1.08 1.414 1.836.649.752 1.084 1.616 3.26 1.616 2.177 0 4.279-.286 5.694-.07 1.959 2.7 3.156 6.368 3.591 8.636.435 2.269.398 5.364 1.16 5.364.761 0 1.523.108 1.306-2.7-.218-2.809-.436-3.241-1.415-4.641-.98-1.404-1.524-2.052-.98-2.916.544-.864.653-2.269.436-3.349-.218-1.08-.545-2.696 1.306-.54 1.85 2.16 2.394 2.7 2.938 3.457.544.756.758 2.16.653 3.456-.109 1.292.105 1.832.866 1.184.762-.644 1.742.432 1.306 1.836-.435 1.404.11 2.269 1.415 2.7 1.306.433 1.85.757 2.177 1.729.326.972 1.415 1.4 1.415-.54 0-1.945-.762-6.049-1.306-7.341-.544-1.296-.98-4.105-1.089-5.725-.108-1.62-.435-2.048-1.197-2.372-.762-.324-1.415-.864-1.523-1.62-.11-.756-.762-1.026-1.252-1.026s-.92-.378-1.193-.918c-.272-.54-.544-.594-1.088-.648-.544-.054-1.415.27-1.687-.594-.272-.865-.653-2.107-1.197-2.809s-1.034-.918-1.089-3.344c-.054-2.43-.108-2.754-.87-3.619-.762-.864-2.068-3.128-2.612-4.1-.54-.972-1.084-1.944-1.084.108 0 2.048 0 3.128 1.301 3.884 1.306.757 1.633.757 1.089 1.837s0 1.836.217 2.592c.218.756.653 1.512 0 2.264-.653.756-1.306.54-1.197-.644.109-1.188-.326-2.592-.866-3.564-.544-.972-.98-1.62-1.633-1.08s-1.197-.108-.762-.54c.436-.433.327-.757 0-1.08-.326-.325-.435-.649.11-1.297.543-.648.543-.972.217-2.48-.327-1.512-2.72-9.069-3.81-10.797-1.088-1.728-.979-3.024.436-1.296s2.612 3.24 2.72 4.64c.11 1.404.436 2.268.872 2.808.435.54.761.325.98-.864.217-1.188 1.087-.756-.436-3.02-1.524-2.268-4.354-6.049-5.442-12.85-1.088-6.8-1.524-11.337-2.612-13.169-1.084-1.836-1.41-2.268-1.52-3.996-.108-1.728 0-3.457-.761-4.749-.762-1.296-1.306-1.512-1.415.432-.109 1.94.109 6.261.653 7.017.544.756.218 2.696.109 3.776-.109 1.08-1.821 2.148 1.741 4.321 1.415.864 1.193 2.052.98 2.808-.218.752-.436.644-1.198-.54-.761-1.188-1.523-2.16-2.285-2.808-.762-.648-.87-1.08-.762-2.592.109-1.513.435-2.593 0-3.129-.435-.54-.653-.108-.87.752-.218.864-.436 3.24-.871 3.889-.436.648-.653.216-.98-1.188-.326-1.405.11-3.56.871-6.045.762-2.484 1.197-5.077.544-8.313-.653-3.24-.326-4.212-2.83-6.909-2.498-2.7-5.328-5.292-6.525-8.636-1.197-3.349-1.415-6.265-2.721-7.777-1.302-1.508-3.152-3.453-4.35-3.993v-4.964c0-1.188-.543-1.945-1.958-1.728-1.415.216-2.286 1.404-3.152 3.02-.87 1.62-1.524.864-2.721 3.672-1.197 2.809-2.938 4.209-2.938 7.233Z" style="fill:#b38c79;stroke-width:4.17009211;fill-opacity:1"/><path d="M813.735 318.224c.87.54 1.704.902 3.01.254 1.306-.648 2.867-2.518 4.609-.682 1.737 1.832 2.716 4.857 2.716 7.233 0 2.372 0 6.8 2.721 9.285 2.72 2.48 4.132 5.073 4.24 8.313.11 3.236 1.306 8.205 1.633 9.501.326 1.292 1.088 2.804 1.959 3.668.87.865 1.523 3.349 1.632 5.937.11 2.592-.326 4.429 0 5.725.327 1.296 0 2.376-.98 1.728-.979-.648-1.196-.972-1.74-2.052-.545-1.08-1.198-.864-.654.756.545 1.62 2.177 3.128 3.592 3.128s1.85.216 2.72 1.08c.867.864.976 1.296 2.5 1.296 1.523 0 1.741 0 3.156.432s1.415.216 2.177 0c.761-.216 1.519.432 2.063 1.837.544 1.404 1.85 5.288 1.85 6.368s0 2.16.762 3.24.544 2.161-.326 1.513c-.871-.648-.871-.432-1.524-.324-.653.108-1.088-.216-1.955-.756-.87-.54-.326-.432-1.197-1.728-.87-1.297-1.415-1.729-1.415-.757 0 .973-.109 2.16-.762 1.62s-.98-.54-1.523 0c-.544.54-.762.973-1.415-.107s-1.415-1.08-2.068-1.297c-.653-.216-.653-.216-.975-1.188-.327-.972-1.306-1.188-2.177-1.188-.87 0-1.306-.432-1.415-1.08-.109-.644-.653-1.076-1.088-1.4-.435-.324-.218-1.08-.327-1.836-.108-.756-.761-.432-1.197-.648-.435-.216-.761-.108-.761-1.188 0-1.08-.436-1.405-.762-2.16-.323-.757 0-1.513.217-2.373.218-.864.11-1.404-.54-2.16-.653-.756-.108-1.512-1.85-3.025-1.741-1.512-2.612-.216-3.156-3.776-.544-3.564-1.632-10.905-2.612-12.093-.98-1.188-1.628-2.052-2.608-2.377-.98-.324-1.632-.108-1.741-2.16-.109-2.048-.762-4.64-2.068-5.936-1.306-1.297-1.85-1.729-2.503-2.269s-.87-1.512 0-3.344c.87-1.836.544-4.32.435-5.509-.109-1.184-.435-2.696-.217-3.992.217-1.296.108-2.916-.218-3.78-.327-.865-.762-1.08-.218-1.729ZM839.951 287.528c-1.473 1.882-3.043 3.456-5.073 4.894-2.03 1.441-4.642 2.592-3.194 5.039 1.453 2.447 2.612 2.738 2.901 4.607.293 1.87.728 3.456 2.177 3.889 1.452.427 2.03.14 2.03 3.165 0 3.024 0 4.175 1.306 5.326 1.306 1.15 1.16 2.302 1.741 5.04.578 2.733.578 8.636 2.32 12.666 1.74 4.03 5.659 11.661 5.223 13.244-.435 1.583-1.017 2.734.724 4.603 1.742 1.874 2.901 4.607 3.048 6.19.142 1.587.435 2.16 2.172 1.587 1.741-.577 2.612-1.155 3.194-1.874.578-.718 1.737-.573 3.336.287 1.595.864 4.06 1.728 5.509.864 1.452-.864 2.176-2.156 3.482-2.156 2.03-1.441 2.755-4.466 3.19-5.326.435-.864.147-.864-.724-1.728-.87-.864-.435-2.306-.582-3.743-.142-1.442-.724-3.598-2.465-6.768-1.738-3.165-2.755-7.054-3.914-8.059-1.16-1.01-1.742-3.456-1.888-4.607-.142-1.151-1.448-2.16-2.32-3.025-.87-.86-1.74-2.156-2.753-7.195-1.018-5.04-1.742-8.637-1.742-9.501 0-.864-.146-1.01-1.017-1.296-.87-.287-1.306-1.728-1.013-2.447.289-.719-.293-1.438-.582-2.302-.288-.864 0-2.447.582-3.31.578-.865.436-3.312-.146-5.327-.582-2.014-1.16-3.743-3.483-4.033-2.319-.287-2.754-.86-3.625-2.734-.87-1.87-1.741-5.18-2.03-5.903-.289-.72-.724-.865-2.466.577-1.74 1.437-2.319 1.915-2.319 4.607 0 1.728.29 2.302.867 3.311.582 1.006.728 1.296 1.164 4.03.435 2.734 2.9 7.054-.293 9.501-3.19 2.447-2.755 3.024-2.608 4.749.142 1.728-.87 2.878-1.453.432-.577-2.447 0-3.885 1.742-5.036 1.74-1.154 3.336-2.592 2.176-4.175-1.163-1.582-1.595-5.326-1.741-7.054-.147-1.728-.435-2.305-1.453-1.01Z" style="fill:#b38c79;stroke-width:4.17009211;fill-opacity:1"/><path d="M814.112 324.232c-.08 1.171.184 2.459.276 3.493.11 1.189.436 3.673-.435 5.51-.87 1.831-.653 2.803 0 3.343.038.03.071.059.105.088 1.774-.59 2.005-2.555 1.527-3.507-.506-1.005-.36-2.23.218-3.236.582-1.01.582-1.583.075-2.306-.51-.718-.51-.718.072-2.733.51-1.774-.779-1.762-1.838-.652ZM832.664 352.128c-.327-1.296-1.524-6.265-1.633-9.5-.108-3.241-1.52-5.834-4.24-8.314-2.122-1.94-2.587-5.056-2.687-7.461-1.595-.968-2.269-.528-2.135 1.271.142 1.94 2.101 2.88 1.812 5.683-.288 2.809-.288 2.09 1.089 3.457s1.883 2.663 1.16 3.24c-.725.573-.8 1.583.217 1.94 1.013.362 1.088 1.442.942 2.447-.147 1.01.8 1.226 1.377 1.944.582.72.653 2.447.075 3.457-.582 1.005-.653 2.588.36 1.728 1.017-.864 1.453-.075 2.248 1.292.69 1.18 1.268.81 2.018.453a9.066 9.066 0 0 1-.603-1.637ZM846.808 377.283c-.653 1.296-1.415.864-2.068.216s-1.415-.648-1.088-1.836c.326-1.189.217-1.405-.653-2.053-.1-.074-.201-.14-.302-.207-.272-.009-.59-.009-1.004-.009-1.524 0-1.633-.432-2.5-1.296a7.294 7.294 0 0 0-.535-.482c-.017.208-.008.482-.008.806 0 1.188 0 .972-1.198 1.296-1.197.324-.979-1.188-1.197-2.16a3.549 3.549 0 0 0-.188-.582c-1.31-.249-2.692-1.62-3.186-3.086-.544-1.62.11-1.836.653-.756.545 1.08.762 1.404 1.742 2.052.98.648 1.306-.432.98-1.728-.105-.416-.13-.898-.118-1.434-.234-.42-.552-.76-.971-.943-1.741-.756-1.197-.972-1.088-2.376.108-1.4-.218-1.4-1.306-.648-1.089.756-1.197-.108-1.197-2.264 0-2.16-1.415-2.16-1.738-.648-.326 1.512-.87.54-1.523-1.62-.653-2.16-1.524-2.7-1.633-.648-.092 1.736-.577 2.152-1.716 1.188.2 1.254.377 2.426.519 3.348.544 3.56 1.415 2.264 3.156 3.776 1.742 1.513 1.197 2.269 1.85 3.025.65.756.758 1.296.54 2.16-.217.86-.54 1.616-.217 2.372.326.756.762 1.08.762 2.16s.326.973.761 1.189c.272.133.624.058.88.166.28-.366.535-.814.862-1.138 1.306-1.297 3.265.108 3.918 1.728.653 1.62 1.41 2.052 2.39.756.98-1.296.653-1.08 1.741.108 1.088 1.188 1.524.972 1.524.972s1.088-.432 1.85.216 1.197.54 2.608-1.512c1.415-2.052-.65-1.404-1.302-.108ZM850.688 318.046c.431-3.166.143-6.332 1.449-7.486 1.306-1.151 2.9-3.453 2.754 1.441-.142 4.894-.289 4.607-1.302 5.758-1.017 1.15-1.888 1.437-.87 3.311 1.012 1.87 1.159 2.015 1.012 4.894-.142 2.879-.142 4.03 1.018 5.471 1.159 1.438 1.448 1.583 1.74 3.166.29 1.583 1.303 3.743 2.609 4.894 1.306 1.15 2.758 4.462 2.9 6.767.147 2.302 2.177 2.88 4.06 4.462 1.889 1.583-.43 2.734-1.883 2.015-1.448-.719-.87 0-1.741 1.005-.87 1.01-1.16 1.155-1.884-.573s-3.194-2.88-4.353-3.311c-1.16-.432-2.173-2.306-3.19-4.175-.87-1.608-2.595-2.784-4.169-2.904.435 1.213.67 2.164.544 2.617-.435 1.583-1.017 2.734.724 4.603 1.742 1.874 2.901 4.607 3.048 6.19.142 1.587.435 2.16 2.172 1.587 1.741-.577 2.612-1.155 3.194-1.874.578-.718 1.737-.573 3.336.287 1.595.864 4.06 1.728 5.509.864 1.452-.864 2.176-2.156 3.482-2.156 2.03-1.441 2.755-4.466 3.19-5.326.435-.864.147-.864-.724-1.728-.87-.864-.435-2.306-.582-3.743-.142-1.442-.724-3.598-2.465-6.768-1.738-3.165-2.755-7.054-3.914-8.059-1.16-1.01-1.742-3.456-1.888-4.607-.142-1.151-1.448-2.16-2.32-3.025-.87-.86-1.74-2.156-2.753-7.195-.796-3.938-1.411-6.992-1.641-8.554-1.043 1.65-1.754 2.052-2.13.922-.436-1.292-1.018-2.014-1.596-1.15-.581.864-.728-.719-.728-1.438 0-.723-.142-.864-.87-.864-.725 0-.143-1.15-.436-3.31-.289-2.161-.724-2.448-1.013.145-.289 2.588-1.741 4.17-1.16 4.748.578.577.29 1.728-.292 3.456-.578 1.724-.29 2.734.146 3.885.435 1.15-.289 3.31-.582 5.184-.289 1.87 1.164 3.74 1.6.574ZM824.18 292.172c-1.077.08-1.813 1.014-1.198 4.283.385 2.024-1.16 1.583-1.737.574-.582-1.006-1.017-3.166-2.177-5.04-1.164-1.869-.582 1.297-.724 3.025-.147 1.728 1.013 1.728 2.03 3.166 1.013 1.441.142 2.019-1.017 2.019-1.16 0-.578 2.301-.289 3.884.289 1.583-.289 1.873-1.164.577-.866-1.296-.288-3.31-.142-5.758.142-2.447.289-1.873-1.306-2.447-1.595-.577-1.306-.864-.724-2.305.578-1.438 1.16-2.16.435-2.88-.728-.718-.582-1.15.578-1.295 1.16-.142.728-1.006 1.741-1.297 1.017-.286 1.453.146 1.595-1.724.121-1.562.649-2.521 1.83-2.048.71 2.406 1.636 6.149 2.268 7.266ZM838.792 309.122c0 3.024 0 4.175 1.306 5.326 1.306 1.15 1.16 2.302 1.741 5.04.578 2.733.578 8.636 2.32 12.666.518 1.2 1.234 2.725 1.967 4.312.962-.752 1.8-2.044 2.097-2.73.43-1.009-.87-3.024-1.888-4.748-1.013-1.728.146-2.305 1.16-4.466 1.017-2.156-.143-2.301-1.738-2.879-1.599-.573-1.599-2.014-2.47-4.316-.87-2.302-.724-3.311-.142-4.607.578-1.296.143-2.302-1.017-2.593-1.16-.286-.87-1.15-.435-2.588.435-1.441.724-1.728-1.013-1.296-1.319.324-1.637.57-2.03 1.043.096.415.142.993.142 1.836Z" style="fill:#dabcb0;stroke-width:4.17009211;fill-opacity:1"/><path d="M855.473 315.167c-.16 1.728-.147 2.592-.582 3.165-.431.578-.142 1.442.293 2.306.435.864.724 2.015.289 3.598-.436 1.583.288 2.879 1.16 3.31.87.433 1.305 0 1.016 2.016-.293 2.014.871 4.175 1.884 5.039 1.017.864 1.741 2.301 1.595 3.166-.143.864.728 1.728 1.741 2.16 1.017.432.87.577.87 1.15 0 .578.436.578 1.596.865 1.16.286 2.03 1.01 3.336 2.592 1.306 1.583 3.19 2.447 2.9.719-.288-1.729 0-2.88-1.74-3.743-1.738-.865-3.044-5.04-3.772-7.919-.724-2.879-3.043-6.763-4.35-7.482-.146-2.019.147-3.024-1.159-4.034-1.306-1.005-1.741-2.301-1.741-3.31 0-1.006-.724-2.302-1.306-2.589-.578-.29-.87-1.01-.87-1.873 0-.865-1.014-.72-1.16.864Z" style="fill:#b38c79;fill-opacity:1;stroke-width:4.17009211"/><path d="M847.787 392.396c2.608-.216 9.682-2.268 10.44-2.916 1.741 1.188 4.789 2.808 6.095 2.808-2.504.54-4.136.216-4.789-.216.326.756 1.197 1.945 1.741 2.053-2.394-.108-5.11-.648-5.981-1.513-2.068.865-5.55 1.08-7.506-.216ZM852.463 395.637c.925.27 5.546 1.026 6.145 1.026-1.524 1.292-.218 2.534 2.34 2.318-1.252.162-2.616.632-1.687.81 2.231.432 8.267-1.188 9.464-1.836-2.068 2.646-12.126 5.077-16.262-2.318ZM856.599 402.221c1.247-.648 4.349-.432 5.818.27-1.632.595-4.839.595-5.818-.27Z" style="fill:#9cb8c5;stroke-width:4.17009211;fill-opacity:1"/><path d="M861.274 402.113c2.231-.378 8.54 1.135 10.77-.216-.761 1.999-4.734 2.269-6.094 1.837-1.356-.432-2.662-.972-3.587-.918.49-.27-.327-.324-1.089-.703ZM863.56 405.192c1.687.266 7.723-.486 9.573-1.188 1.955.648 5.818 1.67 6.689 1.562-1.85 1.134-5.387.486-6.526 0-3.265 1.08-5.931 1.404-9.736-.374Z" style="fill:#9cb8c5;stroke-width:4.17009211;fill-opacity:1"/><path d="M866.444 406.201c2.415.54 4.475.154 6.852-.635.741.315 2.487.702 4.127.623 1.093.619 2.562 1.483 3.977 1.591-1.47.594-6.856 0-7.94-.594-2.721.054-7.401.648-8.54 1.566-.054-.756.44-1.807 1.524-2.55ZM863.56 394.017c1.883.623 8.702.324 12.18-1.297 1.374-.64 2.223.433.654.973-5.655 1.944-10.118 2.7-13.378.972-1.29-.682-1.415-1.296.544-.648ZM896.955 384.84c-8.376 3.884-13.927 5.072-25.563 1.512-1.085-.333-1.85 0-.653.756 1.197.752 7.614 2.48 9.137 2.588 1.524.108.98.81.055 1.08-.925.27-1.197.918.054.432 1.252-.486 8.242-.669 11.097.81 1.247.648 1.574.54 1.465.054-.109-.486.544-.81 1.47-.918.924-.108 1.468-.432.761-.702-.707-.27-.816-.432-.272-.702.544-.27.599-.54-.218-.702-.816-.162-1.36-.378-.598-.756.762-.374 1.904-.648 2.775-.752.218-.594-.163-2.16.49-2.7Z" style="fill:#9cb8c5;stroke-width:4.17009211;fill-opacity:1"/><path d="M883.028 385.812c4.789.336 13.6-1.836 18.28-6.369 1.628.968 3.914 2.048 5.111 2.264 1.197.216 2.285 1.296.435 1.296s-4.462-.756-5.655-1.296c-6.203 3.78-13.462 5.023-18.062 4.645-1.302-.108-1.628-.648-.109-.54ZM868.888 359.901c1.633 1.134 4.517 3.02 8.268 2.75 1.85 1.458 4.734 2.7 6.04 2.97-2.503 1.027-5.224 1.89-5.932 2.7-1.142-1.08-2.607-.917-2.988-1.457-1.089.864-.925 1.404-.218 1.836.707.432 6.2 1.35 7.56.972 1.36-.378 1.724.74.598 1.13-2.938 1.026-8.648.054-10.607-3.074-1.959-3.133-3.646-4.32-8.974-1.458-.599-1.513-.599-1.89-1.633-1.89s-2.938-1.35-1.469-1.297c1.47.054 5.823-.594 9.355-3.182Z" style="fill:#9cb8c5;stroke-width:4.17009211;fill-opacity:1"/><path d="M870.194 366.864c-.908.224-3.482 1.62-4.403 1.728-.925.108-2.558 1.404-.87 1.458 1.682.054 3.859-1.782 5.056-1.944 1.197-.162 1.306-1.512.217-1.242ZM875.469 372.314c-.645.112-3.424.756-4.186.702-.762-.054-1.524.162-1.47.702.055.54.273.864-.87.756-1.143-.108-2.122.325-2.395.649-.272.324-.49.648.653.756 1.143.108 1.742.216 3.048-.378s2.557-1.513 3.972-1.567c1.41-.054 2.826-1.89 1.248-1.62Z" style="fill:#9cb8c5;stroke-width:4.17009211;fill-opacity:1"/><path d="M871.555 375.663c1.189.764 7.07 2.754 9.192 2.592 2.122-.162 1.725.843.109 1.188-3.32.698-7.372-.735-10.117-2.916-1.36-1.08-.11-1.458.816-.864Z" style="fill:#9cb8c5;stroke-width:4.17009211;fill-opacity:1"/><path d="M899.403 378.525c-4.5 1.425-9.083.918-10.933.432-1.85-.486-3.537-.594-2.286.594 1.252 1.184 5.279 1.994 7.56 1.4-8.104 1.836-10.226 1.674-12.235 1.35-2.014-.324-5.793-.253-7.397-.108-1.197.108-2.83-.054-3.537-.486-.707-.432-.925-1.242 1.197-1.026 2.119.216 2.395-.216.545-.486s-4.408.486-1.905 2.052 7.995-.108 11.478.864c3.478.973 10.875 1.675 17.894-3.942.36-.287.98-1.076-.38-.644ZM877.319 371.936c.163.54.163 1.134 0 1.512-.163.378-.163.864.544.324.707-.54 1.143-1.188 1.85-.81.707.378 2.503.324 3.315.216.82-.108 1.089-.27-.104-.756-1.198-.486-2.395-.648-3.048-.594-.653.054-1.469-.108-2.013-.324-.544-.216-.707-.108-.544.432Z" style="fill:#9cb8c5;stroke-width:4.17009211;fill-opacity:1"/><path d="M888.905 374.042c-.925.054-2.557-.54-3.428-.918-.87-.378-2.118-.432-1.193.81.921 1.243 4.948 1.945 6.363 1.35 1.414-.594.816-1.242 2.226-.377 1.415.864 2.885 1.458 3.918 1.458 1.034 0 1.415 0 .273-.648-1.143-.648-1.687-.81-1.796-1.35-.11-.54-.272-.865.762-.54 1.034.323 2.23.918 3.047.485.816-.432 2.336-1.404 3.696-1.404l.327-.81c-1.96-.162-3.207.432-3.751.648-.544.216-1.524.324-2.558.162-1.033-.162-2.394-.27-2.72-.54-.327-.27-.327-.486.544-.648.87-.162 1.143-.756-.055-.54-1.197.216-4.403.108-6.09-.432-1.687-.536-2.394-.59-3.102-.324-.707.27-.598 1.026.436 1.08 1.033.054 3.373.27 4.19 1.026.816.756.707.81-.218.432-.925-.378-2.612-.162-.87 1.08ZM903.1 372.098l-.327.81c2.013-.054 6.91.432 8.485 1.404 1.523-1.188 1.251-1.566 2.34-1.35 1.088.216 2.448.594 3.047.27.599-.324 1.034-.27 1.687-.162.649.108 2.064-.162 2.88-.648.816-.486 2.503-1.134 3.482-1.134.98 0 2.173-.216.381-.486-1.795-.27-4.516.27-5.441.594-.921.324-3.696.54-5.329.54-1.632 0-3.86.81-5.71.324-1.85-.486-4.407-.162-5.495-.162ZM928.282 371.126c-3.261 2.376-7.179 2.916-11.855 3.24-1.36.096-.941.478.218.595 4.893.486 10.553-1.297 12.399-3.24.535-.562.477-1.492-.762-.595ZM906.038 376.635c1.415.054 6.308 1.296 7.886 1.836 1.197-.108 1.524-.378 1.306-.81-.217-.432-.38-.918 1.796-.81 2.172.108 7.179.054 8.104.054.762-.324 2.444-1.62 3.206-1.674-1.955.108-10.113.54-11.147.432-1.034-.108-1.578 0-2.23.378-.654.378-1.035.54-1.851.216-.816-.324-2.285-.756-3.098-.27-.816.486-2.503.054-3.972.648Z" style="fill:#9cb8c5;stroke-width:4.17009211;fill-opacity:1"/><path d="M925.13 376.905c.762-.324 2.444-1.62 3.206-1.674 1.415-.108 3.048.486 3.81.594.761.108 1.577-.054 1.033-.648-.544-.595-.054-1.62 2.177-1.35 2.227.27 3.37.647 5.546.431 2.177-.216 3.156 1.405 7.288-.216-.327 1.62.435 1.729 1.197 1.405.762-.324 1.632-.216 2.938.756 1.306.972 9.247 1.08 11.097.756 1.846-.324 2.826.648 1.41 1.08-1.41.432-1.74 1.08-1.41 1.512.323.428.649.968-1.088.752-1.741-.216-2.068.324-2.939.972-.87.648-1.088.864-3.482.432-2.39-.432-2.826-.108-4.132.108-1.306.216-1.632.216-2.938-.216-1.306-.432-4.132-.864-5.873-.324-1.741.54-3.047 1.08-4.571.648-1.524-.432-1.632-.216-.653-1.188.98-.972 1.197-.864 3.047-1.08 1.85-.212 3.265-.752 1.96-1.508-1.307-.756-1.742-.648-3.483.216-1.742.864-2.612 1.4-4.567.324-1.959-1.08-2.939-.864-4.245-.54-1.306.324-3.478-.432-5.328-1.242ZM931.656 380.141c-2.491.353-3.16-1.238-5.764-.914-.871.108-2.34 1.184-.327 1.022 2.01-.162 4.186.918 6.145.756 1.959-.162 1.088-1.026-.054-.864ZM928.772 382.031c1.31-.473 4.026.432 5.17.216 1.142-.216 2.23.486 1.033.864s-4.081-.702-5.387-.324c-1.306.378-2.608-.108-.816-.756ZM902.773 388.994c1.796.058 8.267-.216 10.825-5.613.196-.415.38-.594 1.197-.054.816.54 3.81 2.323 9.41 2.809 1.57.137 3.265.918.109.702-3.157-.216-8.159-1.08-9.846-2.106-2.83 4.424-7.91 4.947-11.695 4.856-2.281-.054-1.737-.648 0-.594Z" style="fill:#9cb8c5;stroke-width:4.17009211;fill-opacity:1"/><path d="M916.754 381.653c-.87 1.188-3.864 3.24-5.224 3.349-1.356.108-5.438-.27-6.471-.648-1.034-.378-2.286-.27-.817.756 1.47 1.026 5.115 1.728 6.58 1.404 1.47-.324 3.157-.81 4.3-.108 1.142.702 3.264 2.048 4.512 1.778 1.251-.266 3.809-.266 4.625.108.816.378 2.231 1.512.109.864s-3.864-.108-4.843-.54c1.088 1.512 3.558 3.942 5.66 3.942.489 0 .815.865-.218 1.35 1.033.487 3.424.865 4.675-.27-.326.433-.163.703.381.973s1.197.648.218.756c-.98.108-3.207.378-3.86.108 2.118 1.346 7.615 3.506 13.215 2.426 1.068-.204 1.633-.644-.109-.594-3.591.108-3.805.054-4.458-.32-.653-.382-.544-.702.49-1.026 1.03-.324 3.642-.702 4.73-.702 1.089 0 2.177-.432-.054-.432s-4.948 0-6.036-.378c-1.089-.378-1.905-.864-.762-1.62 1.143-.757 2.34-.54 2.884-1.243-3.591-.054-8-1.944-5.55-3.668.569-.403.38-.432-.545-.54-.925-.108-3.641-.864-4.784-1.512-1.143-.648-.381-1.188.544-1.35-2.122.378-6.367-.757-9.192-2.863ZM948.68 381.545c-1.96 1.458-5.656 2.052-7.234 2.052-1.578 0-1.795.54-.544.703 1.252.162 2.612.324 3.156.162.545-.162.871-.216 1.683.162.816.378 2.558.594 4.081.108 1.524-.486 4.023-.702 5.057-.648 1.034.054 2.177.108.109-.487-2.064-.594-5.438-.162-6.254.054-.816.216-3.047.054-1.85-.324s2.23-.972 2.83-1.458c-.436-.108-.708-.216-1.034-.324ZM947.646 385.758c-1.687 1.242-4.132 2.426-6.635 2.534 2.286.81 4.19 3.132 5.655 3.024-.707.432-1.574 1.08-2.499 1.188 1.415.378 3.805-.054 5.764-1.134 3.265.918 7.505.324 8.92-.864-2.122 0-4.675-.756-5.818-1.728 1.034 0 2.01-.648 2.499-1.238-2.445.428-6.635-.756-7.886-1.782Z" style="fill:#9cb8c5;stroke-width:4.17009211;fill-opacity:1"/><path d="M944.167 392.504c.925-.108 1.792-.756 2.5-1.188-1.792.594-9.628-.648-11.964-2.7-2.34-2.048-2.34-.486-.707.972 1.632 1.458 4.512 3.673 10.171 2.916ZM949.931 397.469c-.98.54-5.655.864-7.179.54-1.523-.324-2.176-.162-1.795.432.38.594.544 1.134-.708.972-1.251-.162-3.482.108-4.403.432-.925.324-2.068 1.134-.11.81 1.956-.324 3.751-.702 5.22-.324 1.47.378 6.69.486 7.724.054 1.033-.432.326-.432-.164-.432s-.707-.324 0-.648c.708-.324 1.252-1.242 1.415-1.836ZM904.678 391.208c-1.96.864-8.485 2.593-10.226 2.7-2.177.973-3.914 1.513-5.003 1.513.762.648 3.697 1.292 4.894.972-.653.644-2.173 1.4-2.717 1.724 1.737-.216 3.805.216 4.676.324-2.286 1.296-5.438 1.728-7.07 1.512.544.756 1.306 1.512 2.285 1.512-2.068.54-4.57.54-5.877.108.544 1.08 1.089 1.729 1.85 1.837-1.74.216-3.918.54-5.764-.54 1.411 1.836 4.567 2.48 9.247 1.944 4.676-.54 8.594-2.593 9.682-3.457-1.959.216-4.57.324-5.877.108 2.612-.648 8.267-3.024 9.247-3.996-1.089 0-2.173-.324-2.939-.864 1.524.216 6.857-.428 8.49-1.076-1.96-.432-3.157-1.62-3.701-2.376 6.852 2.16 14.479 1.454 18.167.54.87-.216.975-1.313-.762-1.189-3.048.216-8.92-.648-10.444-1.404 1.415 1.08 3.156 1.728 4.353 1.944-2.83.757-6.743 1.297-12.511-1.836Z" style="fill:#9cb8c5;stroke-width:4.17009211;fill-opacity:1"/><path d="M891.626 398.117c.544-.324 2.064-1.08 2.717-1.724-1.197.32-4.132-.324-4.894-.972 1.089 0 2.826-.54 5.003-1.512-3.914-.108-6.635-.108-8.05-.865-1.415-.756-4.023-.54-5.002-.324-.98.216-.653 1.837 3.478 1.405-1.74 1.188-6.417 1.62-8.158 1.188.436 1.4.762 2.804.327 3.56 2.285 1.296 8.267 2.916 11.205 2.7-2.612-.972-4.027-2.052-1.85-2.268 2.177-.216 3.374-.648 5.224-1.188ZM884.878 405.138c5.208-.432 12.181-.524 17.732-5.185 1.415-1.188 2.365-.79.98.432-2.935 2.593-10.227 6.153-17.188 6.26-2.834.047-4.131-1.295-1.524-1.507ZM923.878 396.605c-1.306.486-4.952 1.08-6.036.918-1.088-.162-2.666-.216-3.537.324-.87.54-.925.864.272.972 1.197.108 2.721.216 3.483.162-.98.54-1.633 1.296-1.85 1.62 1.741-.432 4.947.324 5.873.864-.708.216-1.524-.054-2.123-.378 2.939 3.079 11.641 3.079 13.056 2.539-.653.486-1.252.972-1.905 1.134 2.45.432 5.275.378 8.05-1.242-.925.162-3.696-.108-4.404-.162a5.231 5.231 0 0 1 2.118-1.243c-1.084-.216-4.512-.108-5.328.325.326-.649.925-1.459 1.578-1.729-4.299 0-9.519-.054-11.423-1.08 3.047.324 6.42-1.458 7.831-1.458-2.39-.054-5.002-.594-5.655-1.566ZM912.945 398.981c-2.122.432-5.329 1.296-6.2 1.782-.87.486-1.795.756.11.756 1.904 0 7.07.216 8.212.378-2.884-.432-6.798-.54-7.56-.54-.762 0-1.632-.054-.217-.486 1.414-.432 3.265-1.404 5.655-1.89ZM908.65 404.004c.758 0 4.077 0 5.383-1.134 1.36 1.026 3.972 2.48 5.655 2.48 1.687 0 1.524.432.055.594-1.465.162-4.35-.698-5.819-1.778-1.959.702-3.587.108-5.274-.162ZM883.468 418.523c3.37 1.296 7.832 2.269 11.092 1.188 1.85 1.62 5.66 1.729 7.723 1.297 2.068-.433 3.918-.649 6.204.108 2.281.756 6.96.81 8.267 1.886-1.197.058-3.755 0-4.353.166-.599.158-.273.536.816 1.13-3.696-.216-10.063 1.35-12.018 3.024.703-1.674 2.88-3.942 6.308-3.942-1.959-.698-8.212-.752-10.226.486-.598-.648-1.306-1.724-1.36-2.156-3.315 1.886-9.845-.81-12.453-3.187ZM874.816 412.479c4.014-.57 6.747-1.837 7.944-3.025.708.648 3.642 1.296 6.853.324-.653.486-.708 1.404-.436 1.89-2.122.055-6.149 1.08-7.505 1.783-1.36.698-5.333 1.184-6.635.482-1.306-.698-1.36-1.292-.221-1.454Z" style="fill:#9cb8c5;stroke-width:4.17009211;fill-opacity:1"/><path d="M889.177 411.669c-2.122.054-6.149 1.08-7.505 1.782.272.54.435 1.4.49 1.994 3.914-1.404 12.888-2.264 16.316-1.724-1.632.108-4.734 1.778-6.471 1.994 4.24-.324 8.376.54 9.46.81 1.088.27 1.306 1.08.49 1.836-.816.756-1.193.864.544.918 1.741.054 5.333-.162 6.965-1.728-.653-.702-2.34-.432-2.83-.918 1.143-.378 2.45-1.188 2.94-1.782-2.94-.054-4.028-.108-5.007-.324-.98-.212-1.687-.486-.49-1.13 1.197-.648 1.741-1.188 2.122-1.62-2.122.594-5.437 1.08-8.212-1.08 1.034.27 3.478.107 4.349-.27-.925-.487-1.683-.865-2.445-.865 2.227-1.08 6.635-2.052 12.072.108 2.721-.216 5.66-.108 7.723.432.87-.864 2.721-2.916 3.7-3.456-6.416.54-17.949-.648-17.73-3.992-2.069 2.696-6.853 4.208-8.921 3.776-.218.972.653 2.16 1.415 2.808-2.177.432-5.877.756-7.614.432.98.972 2.825 1.837 3.914 1.728-2.282 0-3.479.433-5.275.27Z" style="fill:#9cb8c5;stroke-width:4.17009211;fill-opacity:1"/><path d="M902.501 419.28c1.741.053 5.333-.163 6.965-1.729-.653-.702-2.34-.432-2.83-.918 1.143-.378 2.45-1.188 2.94-1.782 4.566-.374 8.647-.158 10.602-.752 1.959-.594 6.965-.27 7.945-.54-4.354.698-5.224 1.076-5.442 1.778-.218.702 1.415 1.296 2.449 1.296-1.96-.108-4.408 1.944-4.626 2.754-2.607-1.512-3.859.27-4.131.864-1.088-.432-4.68-.324-6.53 1.243-2.39-.702-3.968-1.08-6.363-.702 1.47-.325 1.198-1.297-.979-1.513ZM923.389 406.646c1.469-.054 4.675.108 5.818-.054-.762.378-1.737 1.08-1.955 1.404 3.696-.432 8.753-.702 10.222-.486-1.792-.27-3.642.864-4.567 1.458-.925.594-.38.972.87 1.134 1.252.162 2.94 1.134.654.81-2.286-.324-6.798-.324-7.886-.162-1.089.162-1.687-.378-.11-.594 1.579-.216 2.663-.756 3.425-1.188-1.306.324-3.805.324-4.567.108-.762-.216-1.251-.648-.38-.864.87-.216.271-.54-.654-.432-.925.108-3.265 1.08-4.57 2.322 1.414-1.458 2.666-2.754 3.7-3.456ZM906.8 409.076c1.796 1.998 3.914 3.133 7.287 3.24.708.021 2.026.964.327 1.027-4.571.162-6.852-.918-8.866-3.835-.414-.598.352-1.433 1.252-.432ZM934.05 371.342c2.403 1.126 7.233 2.106 10.988 1.944.653-.029 1.967.665.322.81-4.24.378-8.05-.211-11.582-2.16-.98-.54-.653-1.026.272-.594ZM936.499 371.288c3.696-.108 6.471-.054 7.614 1.026 2.118-.648 5.927-1.026 6.798-.864.87.162 1.85-.216-.164-.702-2.013-.482-6.689-.644-8.158-.374-1.47.266-6.04.428-7.56.266.653.108 1.085.216 1.47.648ZM950.856 372.746c1.742-.918 6.744-.054 8.267-.702-1.088 1.296 3.483 1.404 7.451.378-1.523.972-4.784 1.134-6.2 1.728-1.414.595-2.176.162-3.264-.324-1.088-.486-3.86-1.458-6.254-1.08Z" style="fill:#9cb8c5;stroke-width:4.17009211;fill-opacity:1"/><path d="M966.574 372.422c-3.968 1.026-8.539.918-7.45-.378-1.524.648-6.526-.216-8.268.702 1.796-1.08 3.156-.216 4.458-2.43.816.166 2.721.274 3.374-.59 1.143.27 3.156.756 3.755 1.346.598.594 1.52-.162.757-1.076 1.796-.648.658.769 4.843-.27.871-.216 2.993-.594 3.7-.648-1.414 1.134-3.101 2.372-5.169 3.344Z" style="fill:#9cb8c5;stroke-width:4.17009211;fill-opacity:1"/><path d="M889.336 354.313c-.07-8.167-.866-76.531-.866-92.335 0-3.78-1.96-3.024-1.96 0v91.903c.9.162 2.115.324 2.826.432ZM919.604 257.01l3.4 97.465-.595.781-1.972.03-2.147-98.276ZM948.248 339.308c-.276-9.925-1.532-55.868-2.017-78.518-.063-3.02-1.875-2.492-1.846.108.197 18.242 1.29 69.262 1.49 78.464.712 0 1.938-.07 2.373-.054Z" style="fill:#f2d049;fill-opacity:1;stroke:#000;stroke-width:.52126151"/><path d="M902.936 273.208 874 272.776c-1.628 5.828 5.66 5.72 8.38 4.208 3.152 2.376 5.547 2.16 7.288.216 2.503 2.052 5.655 1.512 6.961.216 3.483 2.592 7.07 0 6.308-4.208ZM905.113 287.673l-29.59-.108c-5.111 4.857 1.524 7.233 7.183 3.884.762 1.62 4.24 2.593 6.961 1.297 2.503 1.944 5.655.54 7.288-1.08 3.047 1.404 6.634 1.836 8.158-3.993ZM904.242 306.027l-28.501-.216c-.544 5.073 5.224 4.425 7.505 3.132 2.177 3.345 6.965 2.589 8.815.644 2.717 1.837 5.22 1.405 6.635-.324 3.156 2.7 5.764-.752 5.546-3.236ZM905.657 324.381l-31.871-.54c-1.741 5.397 3.152 6.369 5.437 5.073.762 3.132 5.002 2.052 6.09-.216 1.633 1.62 3.701.756 4.68-.325.436 2.917 4.132 3.025 6.962.54 5.764 3.997 11.205-.648 8.702-4.532ZM933.941 316.824l-26.543-.216c1.198 5.397 3.805 6.801 8.05 3.669 3.156 3.24 8.376 2.052 9.682.432 5.764 4.644 8.92-.756 8.811-3.885ZM931.22 298.794l-25.672-.756c.436 6.477 6.635 6.26 9.791 3.453 2.394 3.024 6.635 2.16 8.158 0 3.265 3.24 8.594 1.296 7.723-2.697ZM934.594 278.496h-27.63c.326 4.533 6.416 7.125 11.096 2.808 1.302 5.181 6.308 3.56 8.485 1.509 3.152 3.996 10.44-.536 8.05-4.317ZM932.962 264.679l-24.693.324c-.435 3.992 5.438 5.72 7.614 2.48 1.197 2.052 5.329 1.836 6.526-.108 1.959 3.024 4.353.972 5.111 0 2.83 2.052 5.877 1.08 5.442-2.696ZM961.899 273.64l-30.243-.324c-.11 3.128 3.156 4.424 5.11 3.128 0 3.024 4.245 3.996 6.966 1.62 1.85 2.592 7.287 3.348 9.464-.216 4.458 3.673 9.247 1.08 8.703-4.208ZM961.463 298.254l-29.59-.108c.218 4.1 5.002 5.505 7.723 3.345.653 3.456 4.354 3.672 6.526 1.944 2.612 2.916 6.965 3.132 9.355-.108 3.592 1.296 6.313-1.728 5.986-5.073ZM959.94 320.385l-23.391-.324c0 4.104 4.897 4.644 7.074 2.484 2.281 2.7 5.764 2.7 7.723.54 3.152 2.7 7.94 1.944 8.594-2.7Z" style="fill:#f2d049;fill-opacity:1;stroke:#000;stroke-width:.52126151"/><path d="M922.409 355.256c-12.616.216-25.454.216-34.157-1.08-8.702-1.296-11.444-2.509-17.405-6.044-8.92-5.289-11.096-6.585-23.713-13.926-1.933-1.126-4.03.27-1.306 2.048 12.725 8.313 17.548 11.396 23.605 15.334 6.308 4.1 10.376 7.744 14.248 12.09 5.007 5.616 8.703 5.724 10.988 4.86 2.286-.864 5.877-2.052 9.464-1.188 3.592.864 8.376.972 10.88.54 2.285 2.052 7.505 1.62 10.443.972 2.935-.648 5.111-.972 7.18-.54 2.067.432 5.219.108 7.287-.216 2.068-.324 7.505-.864 11.314-.324 3.805.54 7.723.216 10.226-.54 2.5-.756 7.07-.54 8.594-.108 2.172-1.62 3.26-3.673 3.805-5.829 2.557-.324 3.407-.64 3.972-2.106 1.034-2.7 2.01-5.347 2.34-6.53h1.03l.326-2.431-2.118-2.43.762-4.64 2.281-.54c.11-1.405-.544-3.565-.98-4.43-13.704.54-27.14.973-36.764 1.189-1.088.864-2.285 3.132-2.503 4.536-5.873.968-9.355 1.4-10.879 1.724-1.524.324-2.373.445-3.587 2.053-1.96 2.592-3.81 5.612-5.333 7.556Z" style="fill:#7e7b80;stroke:#000;stroke-width:.52126151;fill-opacity:1"/><path d="M966.453 338.764c.665-2.29 2.444-8.455 5.667-20.108.54-1.944-1.36-2.712-2.063-.216a7482.077 7482.077 0 0 1-5.768 20.407c.736-.013 1.791-.092 2.164-.083Z" style="fill:#5c5568;stroke:#000;stroke-width:.52126151;fill-opacity:1"/><path d="M987.68 315.96c-4.626 2.372-6.857 3.29-8.975 2.48-1.95-.743-4.818-1.163-6.497-.344-.004.174-.029.361-.088.56a2036.65 2036.65 0 0 1-4.386 15.654c3.424 1.2 9.322 1.363 10.699-.104 1.41-1.512 5.274-1.188 7.233-1.08 1.252-1.62 1.741-3.618 1.415-4.59-.327-.973-.218-2.697.272-4.047.49-1.35 1.143-5.725.326-8.529Z" style="fill:#fff;stroke:#000;stroke-width:.52126151"/><path d="M882.38 276.984c-5.116 14.681-22.847 47.613-33.546 58.22M857.047 339.993c12.143-9.322 42.846-39.583 48.066-52.32" style="fill:none;stroke:#000;stroke-width:.52126151"/><path d="M875.74 305.811c-1.41 11.121-4.646 30.958-6.387 41.432" style="fill:none;stroke:#000;stroke-width:.52126151"/><path d="M880.5 330.6c-4.131 3.997-9.992 10.972-14.345 14.752M919.416 308.403c-3.478 3.345-7.45 7.246-10.93 8.218M921.417 308.943c3.06 3.237 7.409 6.893 11 7.865M919.035 291.022c-3.152 2.696-7.832 5.87-12.072 7.058M920.818 291.665c2.721 2.269 5.618 5.576 9.096 7.088M907.616 278.496c3.37-.972 8.389-3.564 11-6.26M920.11 271.695c2.952 3.345 8.607 6.045 11.437 6.801M908.27 265.003c3.478-.756 7.789-2.593 10.075-5.833M919.65 258.306c2.935 2.484 8.092 6.074 11.461 6.398M944.477 267.969c-1.888 1.944-6.513 5.438-9.448 5.384M946.394 267.807c1.36 2.16 4.789 5.467 6.748 5.737M933.07 298.146c3.805-1.296 9.138-4.387 11.805-7.573M946.968 290.805c1.113 1.995 5.357 6.502 7.752 7.42M937.583 320.073c1.741-.374 6.475-2.709 7.777-5.463M947.537 313.098c1.796 2.214 6.2 6.26 8.92 7.233M877.7 323.908c5.328-1.675 16.099-8.164 21.431-14.32" style="fill:none;stroke:#000;stroke-width:.52126151"/><path d="M888.947 317.364c4.458 3.129 9.64 6.261 13.608 6.963M876.72 305.824c2.939-1.243 6.798-3.361 9.79-6.436M888.755 298.956c1.197 1.67 9.995 7.005 13.746 7.059M886.51 281.737c-2.285 1.832-7.776 5.126-10.443 5.828M888.591 281.845c3.048 2.102 9.071 5.816 13.203 5.816M886.51 264.84c-2.448 2.75-6.58 7-10.007 7.973M888.482 265.485c1.905 3.024 7.003 7.112 10.323 7.652M932.514 283.652c7.626 13.954 21.77 31.012 36.074 39.973M909.63 268.185c11.582 16.518 34.32 52.74 55.952 66.113" style="fill:none;stroke:#000;stroke-width:.52126151"/><path d="M969.567 320.169c-3.483 4.806-9.736 12.309-20.071 19.139" style="fill:none;stroke:#000;stroke-width:.52126151"/><path d="M968.274 324.73c-7.288-11.55-11.055-26.152-16.505-45.382M892.656 330.696l8.974 24.506M890.99 330.122l7.936 24.997M889.282 328.968l7.367 26.014M888.537 329.37l5.689 25.458M894.016 353.906h7.112M900.178 351.247h-6.706M899.441 349.2h-6.471M898.683 347.118h-6.174M897.867 344.854h-5.877M891.555 342.897h5.576M891.149 341.06h5.29M890.701 339.063h5.031M890.303 337.28h4.747M889.885 335.432h4.512M889.516 333.733h4.27M889.094 332.154h4.148M888.863 330.816h3.864M881.865 330.854l-5.057 20.489M883.342 330.509l-4.34 21.644M884.506 329.724l-3.512 23.052M885.984 329.238l-2.55 24.107M886.51 351.966h-8.049M886.51 349.752h-9.313M886.51 347.484h-8.768M886.51 345.323h-8.224M886.51 343.113h-7.693M886.51 340.683h-7.082M886.51 338.577h-6.567M886.51 336.416h-6.01M886.51 334.314h-5.508M886.51 332.478h-5.072M886.51 331.02h-4.691M886.51 353.881v-24.427M913.577 321.407l-16.865 33.567M914.64 320.842l-14.358 34.29M915.67 320.497l-11.39 34.826M916.41 321.087l-8.857 34.223M907.943 353.744h-10.607M908.759 350.67h-9.875M909.249 348.186h-9.084M910.103 345.485h-8.594M910.538 343.33h-7.94M911.3 340.845h-7.48M912.049 337.945h-6.773M912.618 335.73h-6.228M913.271 333.205h-5.642M913.72 331.477h-5.22M914.142 329.86h-4.785M914.565 328.211h-4.408M914.946 326.757h-4.052M915.327 325.3h-3.713M915.707 323.8h-3.348M916.06 322.45h-3.019M927.026 321.955l7.38 23.181M928.432 322.433l8.954 22.246M929.71 322.487l10.485 21.756M942.715 342.361l-11.566-20.306M942.706 342.345h-9.175M941.137 339.59h-8.452M939.567 336.84h-7.748M937.997 334.086h-7.066M936.428 331.331h-6.4M934.858 328.581h-5.693M933.288 325.827h-4.998M931.718 323.072h-4.32M941.195 323.729l-7.22 21.49M943.36 322.757l-6.698 22.03M939.764 344.301l4.914-20.738M945.942 324.269l-4.136 19.733M934.812 342.735h7.246M935.712 340.06h6.906M936.612 337.388h6.58M937.512 334.717h6.24M938.412 332.046h5.902M939.312 329.375h5.563M940.212 326.7h5.224M941.112 324.028h4.298M949.236 324.464l3.542 14.736M950.555 323.787l4.893 15.359M952.212 323.708l5.337 15.38M954.406 324.572l5.345 14.445M959.274 337.742h-6.856M958.466 335.581h-6.513M957.658 333.421h-6.24M956.855 331.26h-5.986M956.047 329.105h-5.685M955.243 326.944h-5.375M954.435 324.784h-5.098" style="fill:none;stroke:#000;stroke-width:.52126151"/><path d="M885.205 362.921c3.374-2.156 9.138-1.724 12.076.432 3.483-1.94 9.791-1.404 12.73 1.188 4.457-3.02 8.267-3.452 12.616-.54 3.373-2.372 8.593-2.588 12.62.216 3.914-1.836 8.267-3.344 12.072.648-2.281-1.62-7.179-3.024-12.072.757-3.809-3.781-10.444-2.377-12.62.216-2.83-3.349-8.812-3.889-12.403.216-3.914-3.24-9.787-3.349-12.943-.865-2.503-1.944-6.2-3.56-12.076-2.268ZM944.657 358.28c-17.296 2.967-54.99.865-63.257-1.187-2.842-.707-2.068-1.729.326-1.189 9.528 2.148 29.858 2.16 41.064 1.62 2.177-2.862 5.6-7.718 6.635-9.068 1.033-1.35 1.49-1.475 3.645-1.837 3.86-.648 6.066-.997 9.41-1.566.055.432.055.972.055 1.296-.272.216-.544.594-.762.702 0 2.215.435 7.611.87 9.556.436-.054.98-.216 1.252-.27.762-.217 1.52 1.728.762 1.944Z" style="fill:#5c5568;stroke-width:4.17009211;fill-opacity:1"/><path d="M972.991 359.103c.624-.016 1.926-.045 2.286-.054.707-.016 1.7-.498 2.134-1.578.436-1.08 1.784-5.073 2.273-6.747l-1.741-2.605c.38-2.148.87-5.06.925-5.654.87-.324 1.792-.648 2.227-.81.109-.486-.105-1.807-.544-2.24-7.451.283-29.75 1.052-33.83 1.106-.98 0-1.42-.042-1.792 1.35-2.068 7.665.791 18.42 8.594 24.615.544.432 1.23.07.322-.756-1.302-1.189-3.315-3.619-4.676-6.02 1.524-.025 4.613-.075 5.538-.112.444 1.815 1.834 5.645 2.106 6.294.272.648.942.739.623-.229-.749-2.268-1.142-4.852-1.469-6.094 1.415-.034 4.081-.009 5.714-.1.08 2.052.297 4.802.352 5.558.054.757.707.81.72-.054.016-.864.033-4.515.02-5.591 1.842-.05 4.195-.13 5.065-.13-.121 1.168-.347 4.945-.43 5.543-.126.88.338 1.296.556.054.218-1.242.653-4.146.774-5.617.737-.02 2.675-.1 3.491-.12-.08 1.15-1.168 4.648-1.494 5.566-.327.919.2.948.57.08.384-.89 1.577-4.4 1.686-5.655Z" style="fill:#5c5568;stroke-width:4.17009211;fill-opacity:1"/><path d="M948.299 358.227c-.599-1.188-2.45-5.413-2.612-8.488 1.578-.029 5.525-.103 7.43-.145.28 2.318 1 7.312 1.38 8.496-2.226.054-4.947.124-6.198.137ZM954.423 349.569c.205 1.77 1.138 7.848 1.289 8.55 1.616-.096 5.358-.108 6.007-.162-.067-1.62-.331-7.698-.36-8.562-1.692.045-6.087.153-6.936.174ZM945.988 342.046c-.301 1.553-.356 4.873-.272 6.29 1.905.037 6.593-.076 7.242-.13-.16-1.611-.415-4.528-.578-6.347-1.553.066-5.358.157-6.392.187ZM953.765 341.838c.055 1.512.394 5.21.503 6.34 1.645-.046 5.672-.13 7.032-.175-.071-1.384-.293-5.841-.318-6.381-2.185.058-5.831.195-7.217.216ZM962.405 341.58c.067 1.404.247 5.368.193 6.394 1.745-.046 5.081-.08 6.115-.162.08-1.409.31-5.434.201-6.46-1.959.074-5.082.178-6.509.228ZM970.111 341.31c0 1.188-.15 5.363-.205 6.498 1.729-.067 5.655-.204 6.677-.229.272-1.392.816-5.006.98-6.53-1.633.053-6.259.228-7.452.261ZM976.855 348.967c-2.231.07-5.819.166-7.033.212-.188 2.733-.531 7.457-.694 8.537 1.963-.042 5.93-.166 6.802-.191.653-1.296 2.067-5.343 2.394-6.585-.49-.756-.87-1.188-1.47-1.973ZM962.635 349.365c0 .973.172 7.931.214 8.525 1.276-.041 4.592-.087 5.081-.141.247-2.709.62-7.897.687-8.546-2.26.063-4.479.13-5.982.162ZM933.782 347.7l-2.834.498c-1.306 2.094-6.145 8.57-6.743 9.327 3.37-.096 8.64-.196 9.908-.316-.092-1.737-.327-8.65-.331-9.51ZM935.034 347.467c.067 2.214.28 8.113.334 9.68 1.67-.096 4.747-.295 5.999-.403-.289-2.784-.816-9.43-.925-10.24-1.403.253-4.157.734-5.408.963Z" style="fill:#7e7b80;stroke-width:4.17009211;fill-opacity:1"/><path d="M905.82 324.128c.381.004.432.328-.004.324l-32.139-.395c-.435-.004-.377-.328.004-.324ZM931.078 298.607c.38.013.427.337-.008.324l-25.463-.693c-.435-.013-.373-.337.008-.324ZM904.217 305.882c.381.004.431.328-.004.324l-28.497-.208c-.436 0-.377-.324 0-.324ZM905.059 287.528c.38 0 .435.324 0 .324l-29.808-.154c-.435 0-.377-.324.004-.32ZM902.995 273.046c.38.004.427.332-.004.324l-28.962-.432c-.436-.009-.377-.333.004-.324Z" style="fill:#000;stroke:#000;stroke-width:.52126151"/><path d="M932.987 264.554c.38-.004.44.32.004.324l-24.856.237c-.435.004-.385-.32-.004-.324Z" style="fill:#fff;fill-opacity:1;stroke:#000;stroke-width:.52126151"/><path d="M934.51 278.359c.381 0 .436.324 0 .324h-27.467c-.436 0-.381-.324 0-.324ZM961.484 298.013c.381 0 .435.324 0 .324h-29.602c-.436 0-.381-.324 0-.324ZM961.899 273.449c.38.004.43.328-.005.324l-30.243-.295c-.435-.005-.376-.329.005-.324ZM933.941 316.625c.381.004.431.328-.004.324l-26.606-.175c-.435-.004-.376-.328.005-.324ZM959.94 320.206c.38.004.43.328-.005.324l-23.386-.307c-.435-.005-.373-.329.008-.324Z" style="fill:#000;stroke:#000;stroke-width:.52126151"/><path d="M981.04 324.651c.658-1.45.75-4.782.373-6.044-1.013.203-1.871.157-2.708-.167-.44-.166-.921-.315-1.428-.44-.092 1.67-.703 5.924-1.456 7.57-1.315.369-3.964-.063-5.471-.532l-1.097 3.913c1.871.428 4.22.39 6.078-.037-.146 2.496-.477 4.769-1.838 6.34 2.223.049 4.211-.275 4.94-1.048.067-.075.142-.137.222-.2 1.025-1.702 1.054-3.92 1.301-5.416.758.054 1.738-.163 2.173-.595.435-.432 1.143-.648 1.85-.594.645.05 1.65-.083 2.926-.594a7.986 7.986 0 0 1 .448-2.318c.142-.395.297-1.05.427-1.844-1.62.768-5.233 2.052-6.74 2.006Z" style="fill:#ef072d;stroke:#000;stroke-width:.52126151"/><path d="M877.59 185.488c-1.468-.054-4.352-.399-6.743-.162-.544.054-1.197.324.11.486 1.305.162 4.838 1.022 6.09 1.454 1.251.432.707 1.08-.381.81-1.089-.27-1.49.13-.599.756 4.626 3.24 5.115 4.483 3.918 15.6.87.594 1.578 1.026 2.34 1.404.762.378.544.918-.272.702-.816-.216-1.578.27-.272.54s1.9.864.653.81c-1.252-.054-2.72 1.027-.272.757 2.444-.27 3.424.864.544.918-2.884.054-1.796.972-.272.972 2.717 0 1.9.756 1.197.756-.707 0-1.034.918.762.756 1.791-.162 2.499-.216 3.152-.108s.925.644-.055.702c-.98.05-.925.752.545.752 1.469 0 2.08.44.761.702-.544.108-1.297.378.273.594 2.72.378 2.83 1.026 1.958 1.134-.87.108-.979.594.273.702 1.247.108 2.335.486 1.306.756-1.034.27-1.579.865-.277.973 1.306.108 2.395.594 1.415.918-.98.324-1.197.918.055.864 1.251-.054 1.74.648.87 1.13-.87.486-1.469.81-2.013-.05-.54-.864-.867-1.134-1.03-.486-.163.644-.544.216-.98-.756-.435-.972-1.197-1.242-.979-.486.218.756-.762.864-1.687.486 3.428 3.452 8.485 6.584 16.534 3.344.687-.274.817 0 1.36 1.134.545 1.134 2.069 3.619 2.613 4.537.544.918.975.091 1.247-.81 1.089-3.565 1.905-6.211 2.231-7.18.327-.971 1.85-1.943 1.36 1.455 1.198-.81 6.501-1.575 10.608-.054 4.512 1.674 9.05 4.27 11.369 5.995.435.324.979.702 2.063.594 1.088-.108 1.36-.27-.707-2.16-2.064-1.89-1.193-2.809.109-1.89 1.306.917 2.013.377 1.033-.757-.979-1.134-3.315-3.344-4.077-3.884-.761-.54-.87-.756-2.612-.864-1.74-.108-5.437-.108-6.525-.108-1.089 0-1.415.108.98.972 2.39.86 7.287 3.992 8.375 4.748 1.088.756 1.85 2.485-.544.972-2.394-1.512-9.9-6.152-14.902-7.88-11.423.756-20.452 2.268-27.195-5.073-3.232-3.514-3.374-11.553 2.063-14.902-1.088-.918-.925-1.458-.49-1.674.436-.216.599-.432.164-.972-.431-.54-.381-1.022 0-1.238-1.193-.648-1.737-1.404-1.683-2.214-1.47-.324-2.122-2.053-4.081-1.512-1.96.54-2.939.108-3.533-.378-.603-.487-1.088-.703-2.177-.595-1.088.108-1.959-.324-2.013-.864-.055-.54.92-.801 2.394-.162 3.098 1.35 5.6 1.999 7.505-.54 1.905-2.534-.544-4.91-4.19-5.612-3.641-.702-6.308 1.944-7.668 3.186Z" style="fill:#fff;stroke:#000;stroke-width:.52126151"/><path d="M895.866 184.57c-1.096-1.18-3.047-2.268-4.022-2.592-.98-.324-1.089.648-.544 1.134-.436.648-.599 2.214.163 2.646.762.432.77 1.047.054 1.4-1.088.54-.72 3.407.921 2.593.544-.27.98-.163.87.27-.108.432.11.972.6 1.08.49.108.435.81.326 1.08-.109.27.054.378.598.432.545.054.6 1.35-.38 1.782 1.197 0 1.523-.216 1.85.756.326.968 1.632 1.184 1.632 2.372s-.217 1.405-1.632 1.188c-1.415-.216-1.96.216-2.395.757-.435.54-.544 1.08.545 1.134 1.088.054 1.306.54.217 1.026-1.088.486-2.88.162-3.152 1.188-.272 1.022 0 1.508.812 1.13.817-.374 2.503-1.076 3.156-1.454.653-.378 1.252-.432 1.796.432s.109 1.832-.816 1.08c-.925-.756-1.36-.058-1.905.374-.544.432-1.36.702-2.23.702-.867 0-1.466.112-1.357 2.052.327 5.833 4.893 10.15 13.27 10.041 8.375-.108 12.51-.216 13.762-.054-2.775-1.512-4.516-2.322-5.496-2.214-.98.108-1.795.27-1.36-.486.435-.756-.054-.756-.49-1.08-.435-.324-.975-.756-1.846.162-.87.918-2.938 1.944-3.972 2.16-1.034.216-2.286.162-1.306-.81.98-.972 3.156-1.296 3.81-1.728.652-.432.652-.698.652-1.022 0-.324-.163-1.242 1.088-.54 2.5 1.404 6.417 3.506 7.451 3.452 1.034-.054 1.742-.486.816-1.08-.925-.594-1.197-1.454-.925-1.778.272-.324.436-.648 2.068.27 1.629.914 4.295 2.102 5.274 2.534.98.432 2.286.27.273-1.188-2.014-1.454-8.268-5.558-10.009-6.855-1.741-1.296-.98.27-.816.756.163.487-1.197 1.08-1.905.487-.707-.595-1.197-1.243-.217-1.783.98-.54 1.197-.594-.272-1.89-1.466-1.292-1.9-1.184-1.574-.108.326 1.08.435 2.268-1.089 1.674-1.523-.594-2.285-1.296-1.306-1.89.98-.59 2.231-.914.599-2.264-1.633-1.35-1.143 0-1.524.756-.38.756-1.632.756-2.34.162-.707-.594-1.034-1.188-.544-1.674s.435-.756 1.143-.378c.707.378 1.796.162.49-.972-1.306-1.135-1.796-.648-1.524 0s-.762 1.782-2.39.27c-.775-.715-.762-1.675.054-1.837.812-.162.892-.581.323-1.404-3.316-4.802-1.955-8.69-5.275-12.251Z" style="fill:#fff;stroke:#000;stroke-width:.52126151"/><path d="M896.419 185.218c-.285.424-.39.407-.917.756-.649.428-.795 1.654.293 1.508.754-.1 1.193-.544 1.49-.905a9.35 9.35 0 0 0-.866-1.359ZM893.016 182.501c-.837.806-.984 1.167-.557 1.167.507 0 .289.071-.075.649-.36.577.728.864 1.163.432.436-.432.507-.578.725 0 .175.47.891.025 1.343-.428-.74-.71-1.737-1.367-2.6-1.82ZM891.517 187.158c-1.088.54-.72 3.407.921 2.593.544-.27.98-.163.87.27a.95.95 0 0 0 .101.697 5.042 5.042 0 0 0 1.804-1.292c1.018-1.15.072-1.08-1.448-1.08-1.524 0-1.959-.286-.51-1.15 1.297-.773.451-1.31-1.344-1.06.26.366.13.765-.394 1.022ZM897.754 193.531c-.8-.864-.293-1.296.578-1.728.213-.104.36-.237.464-.395-.246-.951-.443-1.865-.703-2.754-.456.129-.988 1.138-1.138 1.637-.218.718-.436 1.15-1.16.934-.644-.19-1.289.528-1.423 1.296.1.042.255.071.46.092.302.029.453.436.36.868 1.964-.062 2.298 1.284 2.633 2.206.365 1.01.8.864 1.089.29.289-.577-.364-1.582-1.16-2.446Z" style="fill:#a89078;stroke-width:4.17009211;fill-opacity:1"/><path d="M898.332 204.83c-.356.798-.364.72-1.524.79-1.16.075-2.62.27-3.26.94-.348.356-2.353.452-2.357 1.328-.009.881 0 1.62.87 1.675.867.054.976.162.653.81-.33.648-.544 1.728.976 1.836 1.523.108 2.612-.378 2.993.482.38.864-.03 2.243.272 2.754.301.511 1.33.84 2.926 1.33 1.063.328 5.077.515 6.312.374 1.23-.146.77-.877-.465-.985-1.23-.108-2.139-.287-2.428-1.184-.288-.902-.544-1.371.147-2.123.686-.756 1.377-1.333.98-2.592-.402-1.259-1.055-2.738-2.504-3.133-1.452-.394-.992-2.363-2.432-2.555-.544-.07-1.013-.07-1.16.254Z" style="fill:#f2d049;fill-opacity:1;stroke-width:4.17009211"/><path d="M891.3 216.525c1.247.108 2.335.486 1.306.756-1.034.27-1.579.865-.277.973 1.306.108 2.395.594 1.415.918-.98.324-1.197.918.055.864 1.251-.054 1.74.648.87 1.13-.87.486-1.469.81-2.013-.05-.54-.864-.867-1.134-1.03-.486-.163.644-.544.216-.98-.756-.435-.972-1.197-1.242-.979-.486.218.756-.762.864-1.687.486.913.918 1.938 1.811 3.106 2.567 1.335-.453 2.809-.083 3.311-.033.544.054 2.231.432 3.156.918.925.486 1.524-.378 1.143-1.35-.38-.968-.435-.644-.925-.108-.49.54-.599-.216-.544-1.346.046-.956-.599-.702-.816-.108-.218.594-.708-.378-.436-.972.272-.594-.054-.81-.544-.648-.49.162-.544 0-.599-1.08-.054-1.08-.544-.919-.707-.487-.163.433-.599-.162-1.252-1.026-.569-.756-1.226-.311-2.365.137.143.084.402.154.792.187Z" style="fill:#a89078;stroke-width:4.17009211;fill-opacity:1"/><path d="M904.514 223.218c-5.944 2.393-10.23 1.33-13.457-.793 1.335-.453 2.838-.067 3.34-.017.544.054 2.231.432 3.156.918.925.486 1.524-.378 1.143-1.35.816 1.026 1.415 1.728 2.39 1.674.98-.054 2.612-.216 3.428-.432ZM891.806 196.049c-.364-1.222-.724-1.513-1.377-1.438-.653.07-.942-.075-1.67-.361-.724-.287-1.666.07-1.813 1.366-.146 1.297-.942 1.945-2.03 2.734-1.088.794-1.741 1.442-1.741 2.738s-.289 1.653-1.013 2.592c-.323.416-.779.89-1.206 1.388.47.29.909.544 1.37.768.76.378.543.918-.273.702-.816-.216-1.578.27-.272.54s1.9.864.653.81c-1.252-.054-2.72 1.027-.272.757 2.444-.27 3.424.864.544.918-2.884.054-1.796.972-.272.972 2.717 0 1.9.756 1.197.756-.707 0-1.034.918.762.756.025-.004.046-.008.075-.008.26-.266.452-.599.595-1.018.288-.864.577-3.386 1.594-4.105 1.013-.718 1.524-1.728 1.524-2.447 0-.718 1.52-3.884 2.537-4.677 1.017-.794 1.452-2.518 1.088-3.743Z" style="fill:#f2d049;fill-opacity:1;stroke-width:4.17009211"/><path d="M889.7 196.12c-1.03-.682-2.03-.287-2.03 1.009 0 1.296-.653 1.653-1.523 2.085-.867.432-1.666 1.512-1.813 2.522-.142 1.005.147 1.653-.577 2.447-.729.79-.8 1.437-.29 1.87.507.431.507.506.725 1.15.218.648 1.448-.07 1.448-.79 0-.718.293-.718 1.089-1.15.8-.432 2.105-2.522 1.812-3.095-.289-.578-1.013-1.08-.071-1.874.942-.789 1.959-.864 1.959-1.653 0-.794.289-1.08.578-1.367.293-.29-.653-.723-1.306-1.155Z" style="fill:#a89078;stroke-width:4.17009211;fill-opacity:1"/><path d="M889.7 195.043c-.678-.262-1.084 1.15-.142 1.367.942.216 1.089-1.01.143-1.367ZM889.504 196.875c-.72.087-1.524 1.026-.327.864 1.198-.162 1.687-1.026.327-.864ZM888.089 198.657c-.74.37-.599 1.35.49.649 1.088-.703 1.36-1.567-.49-.649ZM886.93 200.153c-.746.366-.599 1.346.49.648 1.088-.702 1.36-1.566-.49-.648Z" style="fill:#000;stroke-width:4.17009211"/><path d="M885.406 200.834c-.741.37-.272 1.35.816.648 1.088-.702 1.034-1.566-.816-.648ZM886.348 201.736c-.741.37-.272 1.35.816.648 1.088-.702 1.034-1.566-.816-.648Z" style="fill:#000;stroke-width:4.17009211"/><path d="M885.042 202.13c-.741.37-.272 1.35.816.649 1.088-.702 1.034-1.567-.816-.648ZM885.879 203.173c-.745.37-.272 1.35.812.648 1.088-.702 1.034-1.566-.812-.648Z" style="fill:#000;stroke-width:4.17009211"/><path d="M884.606 203.788c-.74.366-.272 1.346.817.644 1.088-.702 1.034-1.562-.817-.644Z" style="fill:#000;stroke-width:4.17009211"/><path d="M884.715 204.756c-.74.37-.272 1.35.816.648 1.089-.702 1.034-1.566-.816-.648Z" style="fill:#000;stroke-width:4.17009211"/><path d="M884.117 213.825c-.75.096-1.231 1.155-.29 1.371.943.216 1.16.287 1.16 1.005 0 .72.293 1.729 1.306 1.8 1.017.074 1.888-1.08 1.017-1.438-.87-.362-1.67-.648-1.74-1.442-.072-.79-.872-1.367-1.453-1.296Z" style="fill:#a89078;stroke-width:4.17009211;fill-opacity:1"/><path d="M910.818 207.648c.134.166.302.348.494.51.708.595 2.068 0 1.905-.486-.163-.486-.925-2.052.816-.756 1.741 1.297 7.995 5.401 10.009 6.855 2.013 1.458.707 1.62-.273 1.188-.98-.432-3.645-1.62-5.274-2.534-1.632-.918-1.796-.594-2.068-.27-.23.27-.046.922.553 1.475-.971.141-2.55-.07-3.001-1.097-.545-1.242-1.85-2.754-2.776-3.942-.343-.44-.443-.715-.385-.944Z" style="fill:#f2d049;fill-opacity:1;stroke-width:4.17009211"/><path d="M964.778 384.516c-1.356.918-3.152 2.538-1.959 4.802.143-.075.277-.162.415-.24a131.757 131.757 0 0 0 13.776-20.087c.046-.241.087-.47.117-.67-1.524 1.297-3.918 2.589-4.898 2.913.653 1.728-2.39 3.997-4.022 4.645.653 1.08.435 2.7-.98 3.024.327.968-.762.968-2.068 1.508s-1.959.972-2.39 1.62c.703-.378 1.683-.702 2.227-.54.544.162.653.972-.326 1.188-.98.216-1.629.756-1.96 1.189 1.415-.54 3.429-.27 2.068.648Z" style="fill:#9cb8c5;stroke-width:4.17009211;fill-opacity:1"/><path d="M900.274 205.674c-1.607-1.392-2.013-.54-1.36.324.653.864.163 1.296-1.252 1.512-1.415.216-3.537.486-4.408.486-.87 0-1.9 1.189.164 1.08 2.067-.107 5.55-.81 6.475-1.188.925-.378 1.683-1.08.381-2.214ZM903.426 208.105c-1.327-1.184-1.796-.865-1.47 0 .327.864-.271 1.026-1.138 1.296-.87.27-4.299 1.404-5.768 1.566-1.47.162-1.796 1.188.381 1.134 2.177-.054 6.363-1.782 6.852-2.106.49-.324.653-.972 1.197-.648.545.324 1.034-.27-.054-1.243Z" style="fill:#000;stroke:#000;stroke-width:.52126151"/><path d="M904.406 211.56c-.963.57-3.37 1.617-4.35 1.887-.98.27-1.795 1.35.273 1.188 2.063-.162 4.512-2.052 5.165-2.426.653-.378.98-.648 1.524-.594.544.054 1.523-.702-.273-1.674-1.795-.972-2.884-.486-2.013.27.87.756.218 1.026-.326 1.35Z" style="fill:#000;stroke:#000;stroke-width:.52126151"/><path d="M887.453 184.387c-2.658-1.732-5.693 1.899-2.755 3.889 2.575 1.745 5.296-2.231 2.755-3.889Z" style="fill:#000;stroke-width:4.17009211"/><path d="m884.146 185.974.787.054c-.163.806.653 2.023 1.904 1.724-1.004.756-2.963-.108-2.691-1.778ZM894.456 225.291c.803.233 3.595.515 4.541.561-.473.989-.9 1.645-1.184 2.351-.285.702-.423.752-.473-.328-.046-1.084-.662-1.786-1.227-.66-.569 1.13-.854 1.55-1.134 2.019-.285.47-.712.66-.57-.516.143-1.175.097-2.397.047-3.427Z" style="fill:#fff;stroke-width:4.17009211"/><path d="M999.475 257.01c-.192 67.849-10.98 140.945-99.473 175.763-88.498-34.818-99.285-107.914-99.477-175.763Z" style="fill:none;stroke:#000;stroke-width:1.04252303;stroke-opacity:1"/><path d="M999.475 257.01c.076-25.558-1.356-50.372-.703-72.116-33.068-14.686-76.58-17.706-98.77-17.706-22.193 0-65.706 3.02-98.774 17.706.653 21.744-.774 46.558-.703 72.116Z" style="fill:none;stroke:#000;stroke-width:1.04252303;stroke-miterlimit:4;stroke-dasharray:none;stroke-opacity:1"/></svg>