<?xml version="1.0" encoding="UTF-8"?>
<svg width="1260" height="900" version="1.1" xmlns="http://www.w3.org/2000/svg" xmlns:cc="http://creativecommons.org/ns#" xmlns:dc="http://purl.org/dc/elements/1.1/" xmlns:rdf="http://www.w3.org/1999/02/22-rdf-syntax-ns#">
<title>Flag of Kosovo</title>
<metadata>
<rdf:RDF>
<cc:Work rdf:about="">
<dc:format>image/svg+xml</dc:format>
<dc:type rdf:resource="http://purl.org/dc/dcmitype/StillImage"/>
<dc:title>Flag of Kosovo</dc:title>
<dc:date>2 August 2014</dc:date>
<dc:creator>
<cc:Agent>
<dc:title>Shervin Afshar</dc:title>
</cc:Agent>
</dc:creator>
<dc:rights>
<cc:Agent>
<dc:title>Public Domain</dc:title>
</cc:Agent>
</dc:rights>
<dc:description>Outline of Kosovo is according to the document published by The Office of Prime Minister of the Republic of Kosovo at http://www.kryeministri-ks.net/repository/docs/flamuri_republikes_se_kosoves.pdf [http://www.kryeministri-ks.net/repository/docs/flamuri_republikes_se_kosoves.pdf the document] published by The Office of Prime Minister of the Republic of Kosovo

Colors are RGB approximations from the same document (which is in CYMK). Additionally, a [https://commons.wikimedia.org/wiki/File:Flag_of_Kosovo.svg non-Public Domain version] from Wikimedia commons was used as a reference for sizing and placing of elements.</dc:description>
<dc:contributor>
<cc:Agent>
<dc:title/>
</cc:Agent>
</dc:contributor>
</cc:Work>
</rdf:RDF>
</metadata>
<g transform="translate(0 -152.36)">
<path transform="translate(0 152.36)" d="m0 0.062502 0.0625 899.94 1260 0.0625v-900.06z" fill="#244aa5"/>
</g>
<g>
<path d="m644.06 288.51c4.6839 6.0907 8.5878 12.182 8.5878 19.795-4.6844 2.2842-10.93 3.0456-14.053 6.8523 21.079-3.0453 25.763 22.841 49.185 12.943 1.561 3.8067 4.6839 6.8523 9.3682 5.3295l2.342-6.8523c9.3685-3.0456 7.0262 12.943 17.175 9.898 4.6843 4.5679 1.5614 12.182 4.6843 17.511 0 6.0907 3.1229 11.42 5.4648 16.75 2.3418-3.0451 3.9033-7.6132 10.149-6.0907 4.6843 4.5685 7.8066 9.1364 8.5876 14.466-1.5614 9.8978-3.9033 19.034 6.2458 24.364v3.0451c7.0262 3.0458 21.859-3.0451 21.859 9.1366-0.78059 4.5685 4.6848 0.76141 6.2456 3.0456 4.6844-1.5228 10.149-0.76141 15.615-0.76141 3.9033 9.1366-5.4654 15.989-7.8072 24.364 3.9033 4.5679 2.3418 12.181 1.5614 17.511l-2.3423 1.5223c6.2456 1.5228 14.833-0.76085 21.079 3.0456l10.93 4.5685c5.4654-3.0456 11.71-3.8071 17.956-3.0456 5.4654 3.8067-1.5608 10.659 3.1235 13.704 5.4648 0 10.93 0.76141 11.71 6.0909l0.78095 1.5228c4.6843-7.6137 16.394-2.2842 21.86-8.3752 8.5872 0 10.149 9.898 14.053 15.227 1.5614 13.704-14.053 19.795-9.3687 33.5-3.1229 6.8523-10.149 12.182-14.833 18.273 1.561 0.76141 0.78059 3.0453 0.78059 4.5681-5.4648 3.0456-0.78059 12.182-7.8068 12.943-0.78096 6.0907-11.71 3.8071-7.8072 9.8978 7.0262 9.136-3.9033 15.227-3.9033 23.602-3.9039 4.5679-12.492-4.5687-12.492 4.5679-5.4647 1.5222-10.149-4.5679-14.052 0.76141-1.5614 6.0907 3.9033 8.3752 3.1229 14.466 8.5876-0.76142 10.93 7.6132 14.052 12.942l8.5878 9.1369c-8.5878 6.8523-19.518-0.76198-29.666 3.0453-2.342-1.5228 0-4.5681-2.342-6.0909-3.1229-3.0456-7.8072-3.0456-12.492-3.8071 0.78114 3.8071-6.2451 5.3299-3.1227 9.898 0 1.5228 1.5614 5.3293-1.561 5.3293-7.0268 2.2842-6.2458-6.0907-12.492-3.0451-7.8072 3.0451-1.5614 15.227-12.491 13.704 1.5614 10.659-17.175 17.511-4.6844 26.647 2.342 2.2839 0.78096 5.3295 1.5616 8.3752-7.8074 6.8521-21.86 4.5679-30.447 1.5228-7.0262-1.5228-2.342-10.659-5.4648-15.227-2.3425-4.5685-10.149-7.6136-10.149-13.704-4.6843-2.2842-9.3687-3.8071-12.491-8.375-12.491 12.181-26.544 23.602-43.719 24.363-7.8066 3.8071-11.71 19.796-24.202 12.944-4.6843 8.375-18.737 0-19.518 11.42-5.4649 2.2842-3.1225 9.8974-6.2453 13.704-1.5616 8.375 0 15.989 7.0262 21.318 3.1229 6.8521-6.2458 6.8521-2.3425 12.943 0.78096 2.2842 0 5.3293-1.561 6.0907-2.3423 1.5228-3.1227 3.0456-2.3423 5.3301-2.342 0-3.1224 1.5228-4.6839 3.0451-2.3423 4.5679-9.3685 6.8521-14.053 9.8978-4.6837 1.5224-7.8066-2.2842-10.93-5.3299-0.78095 4.5685-4.6843 7.6137-9.3682 7.6137-7.0268 0-5.4652-6.0909-10.93-9.136 2.342-7.6137-4.6839-11.421-2.342-18.273 5.4649-4.5679 14.834-7.6137 12.491-16.75-6.2458-7.6137-3.9033-19.034-10.149-27.41-3.9033-3.8065-10.149-9.136-7.8072-17.511 5.4652-6.8523 0-14.466-3.1224-21.318-1.5615-6.0907-4.6844-11.42-4.6844-18.273-9.3685-5.3293-10.149-20.557-23.421-22.079-9.368 0-10.93-12.181-20.298-11.42-0.7804-1.5222-3.1224-3.0451-4.6837-4.5679-7.0268 4.5679-15.614-1.5228-24.202 0.76141-5.4649-9.898 4.6843-22.841-10.149-28.932v-6.0907c1.5619 0.76141 2.3423-0.76141 3.1235-1.5228 0.7804-6.8523-10.93-7.6137-6.2458-15.227-2.3425-2.2839-5.4649-3.0453-3.9039-7.6132-6.2453-13.705-25.763-12.182-29.666-25.887 3.1229-3.0451 3.1229-6.0907 4.6843-9.1364-3.1229-5.3295-3.9039-10.659-3.1229-16.75 3.1229-0.76141 4.6844-4.5687 6.2458-7.6137-3.9039-3.0456-8.5876-6.8521-12.491-5.3299-7.8068-1.5223-13.271-7.6132-20.298-11.42-1.5619-1.5228-0.78096-4.5679-0.78096-6.8521 9.3682-3.0453-1.5614-16.75 10.149-15.227 3.1229-3.8067 9.3687-5.3295 14.052-8.3752 4.6844-0.76084 8.5878 0.76198 13.272 2.2842 3.9035 5.3295 10.93 3.0456 14.834 7.6137 3.9033-0.76142 8.587-3.0456 13.272-0.76142 0-7.6137 3.1224-12.182 8.587-17.511 0.78095-3.0456 5.4654-5.3299 9.3687-6.8527 7.0262 1.5228 15.614 1.5228 21.079-3.8065 3.1229 2.2842 6.2458-2.2837 10.149-2.2837 4.6844-0.76198 8.5878 0.76085 11.711 3.0451 0.78095-9.1366 15.614-1.5228 18.737-12.182 3.1229-6.8527-9.3685-9.8978-8.5876-15.989-2.342-6.8521 3.1229-10.659 5.4647-15.227 3.1229-1.5223 6.2458-3.0451 10.149-2.2842 10.149-3.8065 2.342-24.363 17.956-16.75 0 2.2842-0.78041 4.5679 0.78095 5.3293 5.4649 0 6.2458-6.8521 10.149-9.1364 1.5614-6.0909-2.342-13.704 3.1229-18.273 2.342-0.76141 4.6843-1.5228 6.2458-3.8065 0-4.5685-2.3425-7.6136-6.2458-10.659-1.5616 2.2842-4.6843 0.76141-7.0262 1.5228 0-5.3295-3.1229-9.1366-3.9033-13.704-2.3425-1.5228-3.9039-3.807-3.1234-6.8523 3.9039-3.8071 0-13.704 9.3687-11.421 3.1227-3.0453 9.3685-0.76141 12.491-6.0909 9.3687-5.3293 21.079-5.3293 28.106-15.227 3.1227 0.76084 6.2453-2.2842 9.368 0 0.78114 6.0907 8.5878 3.8065 9.3687 9.136" fill="#cfa550" fill-rule="evenodd"/>
<g fill="#fff">
<g transform="translate(.70711 -.70711)">
<path d="m275.53 230.04 38.184 0.35355 12.374-37.123 12.728 36.77h37.477l-30.052 23.335 11.314 36.416-31.113-22.627-31.113 22.627 10.96-37.123z"/>
<path d="m393.68 187.77 38.184 0.35355 12.374-37.123 12.728 36.77h37.477l-30.052 23.335 11.314 36.416-31.113-22.627-31.113 22.627 10.96-37.123z"/>
<path d="m517.07 165.85 38.184 0.35355 12.374-37.123 12.728 36.77h37.477l-30.052 23.335 11.314 36.416-31.113-22.627-31.113 22.627 10.96-37.123z"/>
</g>
<g transform="matrix(-1 0 0 1 1260.1 -.35355)">
<path d="m275.53 230.04 38.184 0.35355 12.374-37.123 12.728 36.77h37.477l-30.052 23.335 11.314 36.416-31.113-22.627-31.113 22.627 10.96-37.123z"/>
<path d="m393.68 187.77 38.184 0.35355 12.374-37.123 12.728 36.77h37.477l-30.052 23.335 11.314 36.416-31.113-22.627-31.113 22.627 10.96-37.123z"/>
<path d="m517.07 165.85 38.184 0.35355 12.374-37.123 12.728 36.77h37.477l-30.052 23.335 11.314 36.416-31.113-22.627-31.113 22.627 10.96-37.123z"/>
</g>
</g>
</g>
</svg>
